<mxfile host="65bd71144e">
    <diagram name="Page-1" id="ZMG2Esa0wwaTZBrTVdwK">
        <mxGraphModel dx="1942" dy="558" grid="1" gridSize="10" guides="1" tooltips="1" connect="1" arrows="1" fold="1" page="1" pageScale="1" pageWidth="850" pageHeight="1100" math="0" shadow="0">
            <root>
                <mxCell id="0"/>
                <mxCell id="1" parent="0"/>
                <mxCell id="ySScw8KteJKSBOL0Q-q0-3" style="edgeStyle=orthogonalEdgeStyle;rounded=0;orthogonalLoop=1;jettySize=auto;html=1;entryX=0.5;entryY=0;entryDx=0;entryDy=0;" parent="1" source="g6aydo7fGb56ICa9m1As-1" target="ySScw8KteJKSBOL0Q-q0-1" edge="1">
                    <mxGeometry relative="1" as="geometry"/>
                </mxCell>
                <mxCell id="g6aydo7fGb56ICa9m1As-1" value="av_register_all()&lt;div&gt;avformat_network_init()&lt;/div&gt;" style="rounded=0;whiteSpace=wrap;html=1;" parent="1" vertex="1">
                    <mxGeometry x="-630" y="50" width="230" height="60" as="geometry"/>
                </mxCell>
                <mxCell id="ySScw8KteJKSBOL0Q-q0-5" style="edgeStyle=orthogonalEdgeStyle;rounded=0;orthogonalLoop=1;jettySize=auto;html=1;" parent="1" source="ySScw8KteJKSBOL0Q-q0-1" target="ySScw8KteJKSBOL0Q-q0-4" edge="1">
                    <mxGeometry relative="1" as="geometry"/>
                </mxCell>
                <mxCell id="ySScw8KteJKSBOL0Q-q0-1" value="avformat_alloc_context()" style="rounded=0;whiteSpace=wrap;html=1;" parent="1" vertex="1">
                    <mxGeometry x="-630" y="160" width="230" height="60" as="geometry"/>
                </mxCell>
                <mxCell id="ySScw8KteJKSBOL0Q-q0-2" value="AVFormatContext" style="rounded=0;whiteSpace=wrap;html=1;" parent="1" vertex="1">
                    <mxGeometry x="-352" y="160" width="180" height="60" as="geometry"/>
                </mxCell>
                <mxCell id="ySScw8KteJKSBOL0Q-q0-7" style="edgeStyle=orthogonalEdgeStyle;rounded=0;orthogonalLoop=1;jettySize=auto;html=1;" parent="1" source="ySScw8KteJKSBOL0Q-q0-4" target="ySScw8KteJKSBOL0Q-q0-6" edge="1">
                    <mxGeometry relative="1" as="geometry"/>
                </mxCell>
                <mxCell id="ySScw8KteJKSBOL0Q-q0-4" value="avformat_open_input" style="rounded=0;whiteSpace=wrap;html=1;" parent="1" vertex="1">
                    <mxGeometry x="-630" y="270" width="230" height="60" as="geometry"/>
                </mxCell>
                <mxCell id="ySScw8KteJKSBOL0Q-q0-10" style="edgeStyle=orthogonalEdgeStyle;rounded=0;orthogonalLoop=1;jettySize=auto;html=1;entryX=0.5;entryY=0;entryDx=0;entryDy=0;" parent="1" source="ySScw8KteJKSBOL0Q-q0-6" target="ySScw8KteJKSBOL0Q-q0-8" edge="1">
                    <mxGeometry relative="1" as="geometry"/>
                </mxCell>
                <mxCell id="ySScw8KteJKSBOL0Q-q0-6" value="avformat_find_stream_info" style="rounded=0;whiteSpace=wrap;html=1;" parent="1" vertex="1">
                    <mxGeometry x="-630" y="380" width="230" height="60" as="geometry"/>
                </mxCell>
                <mxCell id="ySScw8KteJKSBOL0Q-q0-14" style="edgeStyle=orthogonalEdgeStyle;rounded=0;orthogonalLoop=1;jettySize=auto;html=1;entryX=0.5;entryY=0;entryDx=0;entryDy=0;" parent="1" source="ySScw8KteJKSBOL0Q-q0-8" target="ySScw8KteJKSBOL0Q-q0-12" edge="1">
                    <mxGeometry relative="1" as="geometry"/>
                </mxCell>
                <mxCell id="ySScw8KteJKSBOL0Q-q0-8" value="av_read_frame" style="rounded=0;whiteSpace=wrap;html=1;" parent="1" vertex="1">
                    <mxGeometry x="-630" y="490" width="230" height="60" as="geometry"/>
                </mxCell>
                <mxCell id="ySScw8KteJKSBOL0Q-q0-11" value="AVStream" style="rounded=0;whiteSpace=wrap;html=1;" parent="1" vertex="1">
                    <mxGeometry x="-330" y="410" width="180" height="60" as="geometry"/>
                </mxCell>
                <mxCell id="ySScw8KteJKSBOL0Q-q0-19" style="edgeStyle=orthogonalEdgeStyle;rounded=0;orthogonalLoop=1;jettySize=auto;html=1;entryX=1;entryY=0.5;entryDx=0;entryDy=0;" parent="1" source="ySScw8KteJKSBOL0Q-q0-12" target="ySScw8KteJKSBOL0Q-q0-8" edge="1">
                    <mxGeometry relative="1" as="geometry">
                        <Array as="points">
                            <mxPoint x="-380" y="660"/>
                            <mxPoint x="-380" y="520"/>
                        </Array>
                    </mxGeometry>
                </mxCell>
                <mxCell id="ySScw8KteJKSBOL0Q-q0-22" style="edgeStyle=orthogonalEdgeStyle;rounded=0;orthogonalLoop=1;jettySize=auto;html=1;" parent="1" source="ySScw8KteJKSBOL0Q-q0-12" target="ySScw8KteJKSBOL0Q-q0-21" edge="1">
                    <mxGeometry relative="1" as="geometry"/>
                </mxCell>
                <mxCell id="ySScw8KteJKSBOL0Q-q0-23" value="出错，或者读到末尾" style="edgeLabel;html=1;align=center;verticalAlign=middle;resizable=0;points=[];" parent="ySScw8KteJKSBOL0Q-q0-22" vertex="1" connectable="0">
                    <mxGeometry x="-0.2456" y="-4" relative="1" as="geometry">
                        <mxPoint as="offset"/>
                    </mxGeometry>
                </mxCell>
                <mxCell id="ySScw8KteJKSBOL0Q-q0-12" value="读取成功" style="rhombus;whiteSpace=wrap;html=1;" parent="1" vertex="1">
                    <mxGeometry x="-565" y="620" width="100" height="80" as="geometry"/>
                </mxCell>
                <mxCell id="ySScw8KteJKSBOL0Q-q0-17" style="edgeStyle=orthogonalEdgeStyle;rounded=0;orthogonalLoop=1;jettySize=auto;html=1;" parent="1" source="ySScw8KteJKSBOL0Q-q0-15" target="ySScw8KteJKSBOL0Q-q0-16" edge="1">
                    <mxGeometry relative="1" as="geometry"/>
                </mxCell>
                <mxCell id="ySScw8KteJKSBOL0Q-q0-18" value="经过解码" style="edgeLabel;html=1;align=center;verticalAlign=middle;resizable=0;points=[];" parent="ySScw8KteJKSBOL0Q-q0-17" vertex="1" connectable="0">
                    <mxGeometry x="-0.2107" relative="1" as="geometry">
                        <mxPoint as="offset"/>
                    </mxGeometry>
                </mxCell>
                <mxCell id="ySScw8KteJKSBOL0Q-q0-20" style="edgeStyle=orthogonalEdgeStyle;rounded=0;orthogonalLoop=1;jettySize=auto;html=1;" parent="1" source="ySScw8KteJKSBOL0Q-q0-15" edge="1">
                    <mxGeometry relative="1" as="geometry">
                        <mxPoint x="-380" y="610" as="targetPoint"/>
                    </mxGeometry>
                </mxCell>
                <mxCell id="ySScw8KteJKSBOL0Q-q0-15" value="AVPacket" style="rounded=0;whiteSpace=wrap;html=1;" parent="1" vertex="1">
                    <mxGeometry x="-330" y="580" width="180" height="60" as="geometry"/>
                </mxCell>
                <mxCell id="ySScw8KteJKSBOL0Q-q0-16" value="AVFrame" style="rounded=0;whiteSpace=wrap;html=1;" parent="1" vertex="1">
                    <mxGeometry x="50" y="580" width="180" height="60" as="geometry"/>
                </mxCell>
                <mxCell id="ySScw8KteJKSBOL0Q-q0-25" style="edgeStyle=orthogonalEdgeStyle;rounded=0;orthogonalLoop=1;jettySize=auto;html=1;" parent="1" source="ySScw8KteJKSBOL0Q-q0-21" target="ySScw8KteJKSBOL0Q-q0-24" edge="1">
                    <mxGeometry relative="1" as="geometry"/>
                </mxCell>
                <mxCell id="ySScw8KteJKSBOL0Q-q0-21" value="avformat_close_input" style="rounded=0;whiteSpace=wrap;html=1;" parent="1" vertex="1">
                    <mxGeometry x="-630" y="820" width="230" height="60" as="geometry"/>
                </mxCell>
                <mxCell id="ySScw8KteJKSBOL0Q-q0-24" value="avformat_free_context" style="rounded=0;whiteSpace=wrap;html=1;" parent="1" vertex="1">
                    <mxGeometry x="-630" y="950" width="230" height="60" as="geometry"/>
                </mxCell>
                <mxCell id="ySScw8KteJKSBOL0Q-q0-26" value="" style="shape=image;verticalLabelPosition=bottom;labelBackgroundColor=default;verticalAlign=top;aspect=fixed;imageAspect=0;image=data:image/png,iVBORw0KGgoAAAANSUhEUgAAAjIAAAMPCAIAAABAPajJAAAgAElEQVR4Aey9eVwUR/7/3zPODDPOMICi8MWDTTwWr3gRr8QjrkZdz48xumqim6z6iUY3JmY9432vF1E84hVN1MRro8ZNlGyIuIISznAPl5wC6k8UWBiGhfkp7933p9I9MwwwDcz4rj/03d3V73rXs+ZRL6q6uppLNJ8SEhLi4+NjYmLi4+MXLlzIcZyMSX5+fomJibGxseYd1HAF/MfHxyckJMTFxc2ZM4dxL3N2dt69ezfPRUJCAp6JiYmJjo5OTEyEk6GhoatXr/b29uZ+nZpVJ5lMpvh1guo4Ozur1Wq8QyaTLV68OCAgAEsB/wm/TuxVng2ViouLi42NjYuLg6v79+/v3r27TCbjOK5Zs2YSiQRLtGBIqlOzZs0gz5AhQ2JjYwEXy4EXQG0PIyMjDx8+7OHhwYsEov3d734XGhpaW5+UnwgQASJQZwKchTvj4+Pj4uIsy1JMTIwFD5YvgRrVWZYSEhJu3bqVmJgYExNz7dq1jz76qEuXLhKJpFmzZkqlkuM4hULh4+MzduzYWbNmbdq06eCv01/+8pc//vGP3bt312g0HMdpNJrWrVsrFIoWLVq8//77AQEBMTEx2Pv/WpX+TxotVDA+Pj4xMfGf//znxo0bO3fu7OTk5OzsDIIkl8t79+49atSoTWaSv7//2rVrZ8yYMWrUqA4dOoBg/O53vwOpi69OGJKFGCxfgj8pfv755w8++EColCRLlunRVSJABEQiwCWZTyAbsbGxCQkJwtHSp59+mpSUFBsba95BDVcSExNBk8CYO3cuO1rSarW7d+/muUhMTGTPxMfHJyUl3blzZ//+/R4eHlKplP2Tf9SoUXv27Pnll1/i4uLYu9D++eefDx06NGnSpObNm8vlcqlU6uTkxHFcixYtPvzwwx9++CEhIQEy8+ijhxqNjRs3tm3bluM4UEr4t1+/fl9++WWN98bGxkZHR2/fvn3EiBHt2rWbOXNmXFwcahKGVKMfcxmg7fbu3du9e3eWG9goSz///LM5D3SeCBABImBzAvYtS4AjJiZm1qxZCoWC47jmzZtrtdrZs2cfOHAgPDzcSl7vvvuul5eXWq1WKBSgTK6ursuXL8fbeVN5KAk8mcT80dHRSUlJq1evbt++PYglzMW1bt16586dt2/fjo6O/uWXX6KioqJrk3C0hMM4cwFgJBaM8PDw+Ph4Hx8f1KRhw4YtXryYZMkCNLpEBIiA2AQcRJaWLVum1Wo5juvZs+d7771XK01KSkq6ffv2G2+8Ac+flEqlQqGQy+WTJ0++desWjLSsl6WwsDCQir1793bp0gV7fI7jXn755QMHDty+fRsaFcY9dfgXpu9QGuv8E4mOjv7rX/8qkUhgGpPjuMWLFx86dEgqlarVahot1Rks3UgEiEB9CHA68wnm1uC5/aJFi3hLHvbu3avT6eLi4sw7qOFKUlIS/NUPhnASb8+ePTwXSUlJ7Jn4+HiI4dy5cyNGjBgwYMCOHTt++eWXiIgINps19sWLF/v168dxnFQqdXNzU6lUL7300t69e0NCQoAvygBvgMJzHh4enpCQ8PXXXw8ePBge2MBoqXfv3jt37tTpdL/88gvvlvoc8oDUytWRI0dgqNS8eXOO4/r373/16tU7d+5otdpmzZqhLIWFhdXKLWUmAkSACNSHgH3LEohifHz8P//5T51OFxUVBYOb2hKJjY3V6XR79+6FwY1cLuc4TqvVzp0796efftLpdDxlYv8QMFnWwoULW7duDd6aNWv2dD3FgQMHdDpdREQErKQweVcDn5w5c6arqysudlizZk1wcHB4eDjMN5IsNXBzUHFEgAgAAfuWJRgt2aQtk5KSwsLC3N3dOY6DnrpZs2YdOnQ4d+4cK0JJSUmWR0s6ne748eMqlQqeUXEc5+npuWXLljt37kRGRsZWp/oMcWxS2YSEhH379rGV9fX1jY6O1ul0//jHP3jPlmi0ZBPm5IQIEAErCXDJ5hPMrcFqN5OTeMnJyfHx8eYd1HBFp9NBFw/GvHnzeCvx/Pz8eC50Oh17JikpiT2svz1u3DgYJUDX7OHhER0dDW4RKKgUHvIKvXHjxty5cxUKBfiRSqXDhw8PDQ2FBY1wL++Whj8MCwuD1Xeurq4cx/3mN7/x9/cPDw9PTk7mydKIESPCwsIaPkIqkQgQgeeWgH3LEk+l6t+KmzdvbteunaQ6wbDpxo0bUApvzGROlnbs2OHi4iKVSmFlIKw1j4qKgrXm9Y/QJh6WLFmiVqtdXFxgvm7atGnoNiAggB0tkSwhGTKIABFoGAL2LUs2ZAQDr6dL+MaNGyetTtA7BwQEwCVWllCTeLr4z3/+c+7cuXCjU3V69dVXz507B0+8bBhtnV3Fx8cHBgZ26NBBpVLBG1pdu3Y9dOhQcnLyzz//nJycfO3aNZKlOuOlG4kAEag/AS7FfIK5tYSEBJ1O9+c//5m3Em/fvn0pKSkJCQnmHdRwJTk5GZ6ygGFyEo/nIjk5mXfGVoc6nS4lJeXAgQN9+vSBrSKgd7527RpcMidFbABJSUnjx4+HG+HN2b1799aTEuu//vb169f/53/+RyaTQXhqtXrp0qWRkZHo+fr16zxZCg8Px6tkEAEiQATEJkCy9B/CrCyBAEPvfP36detl6eDBg926dYMbFQqFq6vrrVu3UlJSxFNT638fSUlJ0dHRR44c6dy5s0wmg9WG7du3v3nzJuuEZImlQTYRIAINT4Bk6T/MebIEvTbHcShLycnJOGDijVKx2caNGwer+ODfkSNH4qVGN+Lj42/cuDFu3DjYLVAqlb700ks7d+5MTEyEjWUhQpKlRm8pCoAIPOcEuFTzCebWEhMTk5OThZN4/v7+qampiYmJ5h3UcCUlJQWezYDxv//7v7yVeJ9++inPRUpKCu+MrQ7B88GDB/v06cNxHMpSUFAQFAGDHhAk3o8GY/jtb38LQyWJROLq6rply5bo6Gi82rhGeHj47t27YS8MlUrVvHnzWbNmpaampqSksI0olKWIiIjGjZxKJwJE4LkiQLL0n+ZOTk5OTU3985//DIvT5HI5jHiwU0YpYmfk4ObY2NjU1NRbt27BdgmgTP379//222/hUuP+pGJiYlJTU7/88kvYNBbC8/T0PHjwIAQGdQebZKlxG4tKJwJEgGTpP78BnU73dPA3bdo0lCWpVKrRaM6cOYO/ElAmlCU8D8a5c+dYWRoxYsSPP/4YHx/Py9aQh3FxcVBcZGTk/Pnz8ZUslUq1cOFC2L4PBkwYFckSoiCDCBCBRiHApZlPMLeWlJSUkpLywQcf8FbiHThwIC0tLSEhIS0tDR+6CA2c9WLXUmP/zk7iLViwgDeJt3fvXl50qampvDP1PwSfUJGuXbviwyGZTNanT59vv/0Wi4AWwolEPJ+WlhYdHb106VJWlmbNmvXLL78kJyez2RrYjo2NhRL37NmDE4wymWzAgAHff/89hM0LSfjeUmRkJC8PHRIBIkAExCNQX1mKj49PS0tjtzHl2bjRDpznbZGAV5OSkt5///2GlyUYK6SkpPzyyy9paWmwHw9Mc8nl8pEjR0IGaAALshQaGvrWW2+xsrRw4cKUlBS8sQ5NaCsNDgkJ6d27Ny4vdHd337NnT1RUlEnJJFmqQ0vRLUSACNiQQN1l6fDhwykpKfAdP/iYt8lvNMAucLyvfaMa4ZI2nU63ePHixpIleLiybt069tvhvXv3/tvf/gZjo7S0NBAJVpnYZjhz5kyvXr1YWdq8eTP0+/BZo6SkpLS0tJCQEBhi3rlzZ+/evfv/mz7//PNLly4FBARERkZCTlhpAuWivLElWrYh2piYmNjY2OXLl7dq1Qpn8GbNmnXz5k2dTmfSA8mSSSx0kggQgQYjwKWbT6mpqbAqOjU1VTiJd+LEibS0NNgBgf0qHW+0xDsEQYJJPHY0kJqaumzZMqEs8aJLS0vjnannIYBOT0+/fPny6NGj3dzcYKjEcdzMmTNBIdgiID9GjpeOHTvWoUMHVpY2btwIV2E0GR4enpiYGBsbu2PHjgULFrzyyivdu3d3Y5KXl1f//v0/+OCDnTt33rp1KyQkRKfTpaeng7ZhQbUyUlNTz5w588orr0ClZDJZx44d9+7dm5ycbM7PDz/8gJk5jhs5cmRUVJS5zHSeCBABImBzAnWXpdOnT0OniZ9N4imQyUN4mATdOq8yn3zyScPLEsawbds2tVoND5agX162bBleRYMnSyiTf/3rX5VKJStLJ0+ehLtu3LixcePGKVOmwOLs5s2be3h4uLi4wLedYP89+LdZs2Zubm4e1Wn48OG7du0KCgpKTEzEP1IwDCuNuLi4d999F4W2efPmy5YtCw0NtXA7yZIFOHSJCBCBBiBQd1lasGDB6dOnT5w4cfz48aNHjx6zLn3++ecnTpz44osvvvzyy9OnT5+pTqer0/DhwxtLlkJDQ6dNmwafopBKpU5OTu3atduzZ4+wAUzKUkpKyoYNG+CT7agBW7ZsCQwM3LFjxx/+8Ad3d3f8AixkgI1cYd88JycnnGGD/WHlcrlarfby8poyZcpXX32FE3rCeCyf2bNnT8eOHTmOa9WqFcdxvXv3DgwMtHwLyZJlPnSVCBABsQlwd82ntLQ0eIc0LS1t8eLFvJV4rISIYWu12n379vGiS09P552pwyE6gW923L179/PPP+/cuTPHcc7OzjBgeu+9927cuCF0Du2BgyRwlZqaun79ep4s9ejRo3Pnzs7OzhzHNWvWDN7PbdGihZubW4sWLSBz8+qkVCpBmWBtOugWLE/v3Lmzh4fHxo0bU1NThcFYPhMYGAiaBA7h21GxsbGW7+J92GLkyJHR0dGWb6GrRIAIEAEbEngeZYmHLzk5eezYsTKZrFmzZu3ateM4TqPR/OMf/0D1YvNbL0s4bIJBmFqt9vb27t2795///OfDhw8HBwfjcg8wDhw4sHLlyldeeaVFixbNmzeXy+VOTk4wxvL29l61apX18pCWlnb79u3169e7ubnhOGz9+vVsRczZJEvmyNB5IkAEGoZArWWpWbNmMDaSVycxxkngU7zR0t27d2GxBiDet28f9N1SqRSGL2+//bY5+tbLEn6d1tvbe9q0abCWYc+ePcnJyeacR0ZGBgQEPF29PXHiRC8vL7lcDjOKHMd5e3vDpKK5e9nzycnJn3/++YABA0DVmjdv3qtXr7///e9sHnM2yZI5MnSeCBCBhiHAZZhP6enp8NZOeno6TuLBVB5oklwuF1WW/P39edHdvXuXd6a2h4A1NTUVBkNHjx7t1KkTjmw4jnv11Vfv3Lljzi3czg6kMjIyUlNT4dmSWq1GVy1atJBIJH369PnLX/4SGRkZHx/P+oyPj4+KiopkUkZGRkJCAuT57rvvJk6cCN7gX3iJ6vbt28nJyawfk3ZISMh7770Hj684jmvfvv27775748YNk5l5J3/88UeoAkj1yJEjf/nlF14eOiQCRIAIiEegjrKk1WrPnDkDPTJ+Nkm4xYPwDLwGBN06r1arV69mRU6r1YohS2yhSUlJ8+fPRyGB5z0bNmzgSQh7i/Wy1L179xMnTkRERGRkZERGRsKrUehK+EdHRkZGSkoKnM/IyDh79uwf/vAHjuOUSiU8l+rcufPUqVN//PFHcII50Scau3btatOmDb4/6+HhER8fn56ejhksGCRLFuDQJSJABBqAQF1kSSqVtmjR4syZM3fv3oXhFLuxEO+RCe8QXkdtXFmCIVdCQsKaNWs6dOgglUq1Wi0MSt57770LFy6kpqaaQ2+9LL399ttJSUkgNjqdjjfOMylLsK4Bio6Kijp79qyPj49EIgG1btGiha+v708//SSMDZynp6fHx8eHhISMGDECNMnJycnd3X3NmjXCW8ydQVkCLXz99ddjYmLMZabzRIAIEAGbE+AyzSd4BgN95Ycffoh/fUul0pYtW3711VfQt8KCPdCbGv+FBdYZGRnCYoXvLfn7+/OymbyRl8fyIXhITEw8fvx4+/bt4eNDHMep1WofH5/z58/DTJo5J9AArMZkZmampaVt3LgRnODYa8eOHZmZmYmJifHx8Xfv3uU5FDZkZmYmm+3u3bvJyckrVqyAV5pgSk2tVp8+fZrnKjMzMyEhAcq6dOnShx9+CIoik8kUCsXEiROF+S2cCQwMhCrAHODo0aPj4uIs5KdLRIAIEAHbEqi7LH355ZdpaWkZGRm4MY/wnR44g+fhLVro04XVaBhZgq7/xo0bo0ePxocoMpnshRde2Lp1K3w+XBgbnrFelr766qvMzMzk5OTMzEyhmpqUJTYbgD179uxLL70E338CZdq4cePt27cxHjASExMzMzPj4uKOHj3asmVLlEZnZ+etW7fCJd4t5g5RlmDJxpgxY+Lj481lpvNEgAgQAZsTqLssHT16NC0tDfpcVn6ENg6q0tLSzGlSRkbGJ598ImUSPFviVZjtuHmXanU4ffp0d3d3qVQKr6/KZLJt27ZBXdghC+sThYQdKkE8JkdL27dvz8zMhPlA1g/Y6E1o8DLAOFUul8PwZciQITdu3AAdQrcQ89Pndm+99RZq0tP3pTZu3BgVFVUraChLSqWS47jf//73MBTDssggAkSACIhKgMsynzIyMtLT02FIJJzEO3ToUFpaGtwt7FvZM1ABOAO2sMzMzEyhLO3fv5+XMzMzk3emVoewtnD9+vXwSMnLywuUadasWcHBwZZdYTPwevmsrKz09HThJB7IUnp6usmY0ZtJIysrC+7KzMxEWYLhywsvvHDy5Mn4+HhhtOvWrevWrRvMtbq5ufXt2zc6Ojo9PV2Y08KZn376CYQNNlIaO3ZsYmKihfx0iQgQASJgWwL1kqXU1FSIxmTfauEkrw4wTFm1ahU8R4F/tVqtzWUpKyvr2LFjsLpBIpHAW0GDBg26du0a1oUXGygERIhay1YNZGnbtm28Z0ubN2/OysrKyMgQOkSfrB/WZjP85S9/AaWBJ0ZqtfrAgQM8n+np6REREX379nVycoLtIfr27fvpp5+aVETevbxDlCUYLY0bNy4pKYmXhw6JABEgAuIRqJcspaSk2CSyBpOlI0eODBo0SKlU4js9gwYNOnr0KARgri48TWJHS3BLenq6UJY2btxoziGrOqwambSXLVvGylKLFi22bdvGG8EEBgauXr3a3d1dXZ3c3d3nzZtnoXQLl1CWmjdvLpVKx48fn5ycbCE/XSICRIAI2JYAl20+wdowmIb66KOP2JV47u7un332WWpqqvm7a3EFuulPPvmEN1o6cOAAz0tWVhbvjJWHWVlZ33//va+vL8dxTk5O8F2ldu3arVmzBlaamfQDrIVqwbZBdnZ2enq6n5+fh4cHjMNgEmzp0qUmfcJJ1oNlGxfjwXyju7v7tm3bkpKSWOdbtmxp06YNbgnh5eX16aefshmstO/evXv69GmIH/aYmDRpEu+77zqdDrylpKRY6ZayEQEiQASsJ+D4sgTaee3atZEjR0KHC/9qNJq1a9diJ2sSmWVZArnKzs7OzMw8fvx4x44dWVlasmSJSZ9w0rIUsVdBrWFpBsdxLVu2FMrSvHnzYPoOpIutpvW2VCqFiU2YLcS/QmQymaY6qdVqjUYD+zNpNBrLFbRQd7pEBIgAEbBAoO6ydOjQIVv9vSz2aOnatWtTpkyB3hb+bd++/fLly6OiosyhMSdIIEV49e7du2BfuXJl6NChrCx98MEH5pxnZ2ezwsOz2buysrLWrFkDS8NBYEzK0uTJk1n5AXVht8yw0oZlDvBdKHyji/UM6qhWq2Uy2eTJk9lQySYCRIAI2IQAl2M+wRN76HnNTeKZv7sWV6CbNjmJx/OSnZ3NO1PjYXp6+oQJEziOY788+8477+Tk5GRnZyckJJj0YI1y4AqInJycGzdujB8/npWlxYsXm/QMJ801Hu+W7OzstWvX8mRp+/btOp2OzTls2DAQDJgF5QmJNYdSqVQmkzVv3lyhULDFsffC6n2oo4eHx5QpU9gYyCYCRIAI2IRA3WXp0KFDycnJEAR0snUOSAxZwtimTZvG+/N/5cqVsbGxWVlZsMBdGLZlTcLnWyDbGRkZ2dnZERERmzdvZmVp8ODBiYmJQucsMaE4CfMvXboUdqOAWbVWrVqdO3cuNTWVzenn59e+fXuNRqOsTYJJOefq5FKdvL293d3dYSM+FKQePXq0ZJJGo2nVqpW3t/f27dvZGMgmAkSACNiEgMPKUk5OTmho6Nq1a1GTYAH35MmT4QutFjTJelnC+TedTnf+/HlWlvr27Qv7M5lsJ6EgmZP29957DzdukMvlL7/88vXr1+/evQtu4a6QkJC9e/d+Wsu0b98+/+p04MCBQ9XJ399/8eLFOFqSy+UvvfTS6tWrjzLJz8/v7Nmzn3/++c8//2yyanSSCBABIlAfAlyu+QQP82E0sGTJEnwGLpVK3d3dYbQEd0ME5j3VcAXm01avXs1biXfw4EHenTk5ObwzvEM2A2xJjn/1u7i4TJky5bvvvuPdgodQC3OCwZ4X5rx7925MTAwrSy4uLosWLULnPMNcm7HZ4uLiwsLCxo8fj1XgOO7jjz9OSUlhs+Xm5sITL97Juh3+/PPPuORBoVDMmTMnLS2tbq7oLiJABIhAHQg4miwhgmXLlrVu3Rp7WBcXl9dee+3IkSOJiYmYh2eAOrLyY87miQrot06nY2WJ47iRI0cmJSXxSoFDngf2EPOHhYX9+OOP8NwIlcnf3x8z8AzYNDY5OTnFuoT7uGdmZkJNc3NzQ0JCYEke7PT6zjvv5ObmstvA5+bmpqen84qmQyJABIiArQg4mixlZ2fHxcWtXLmya9eu8OlxrVYrl8sHDRp06tSpsLCwzMxMk+ys1yThsguQpZSUlCVLlqAQwiKLkJAQk504q0M8Ozs7G7Xz97//PTsJKZfLIyMjTcZvq5PBwcEggbAIYtasWbDbLCtdELCtSiQ/RIAIEAGWAHfPfMrJyYHZoZycHJOTeCkpKXA3eDTvqYYrubm5OTk5wkm8Q4cO8e7Mzc3lnbl37x6cTE9Pv3fv3t27d/fu3YuaJJfLJRLJyJEjT548CdsLCW8HDxADTyFycnKysrKEJ1mCcGNWVlZKSspXX33Vt29fHNlwHLd27drAwEBhoTwPCBCMzMzMe/fuXbt2zdnZGTekaNWq1ZQpU5C50KdNzoSEhEgkEo7jpFKpXC5/6623cC8P4IC4bFIcOSECRIAI8AjYTJZ4fmt1WE9ZysnJweKOHj3q6+sL4yT4snuPHj0OHToEHT1mYw1UCJ78gCCx/2IGvAUMUC+YOXvzzTdxtMFxXNeuXc+ePcsWBzZPBcEP2+P/8MMP8P4vDr+6du367bffgvpmZGQIfdrkDE+WZs6cyZMlrLtNiiMnRIAIEAEeAUeQpaysLKjV3/72N/iKkkKhAE2Sy+V79+6NjIxkpYuHAPtZ1kAFqtVoKSUl5ZNPPoFpN9hwQa1Wr1y5ki0Rxna8suCQlaX169fL5XInJyeZTCaRSDQazR//+MeUlJTY2Nh79+41mCzNmDGDZIltPrKJABEQmwCXZz7l5ubCAujc3NyPP/6YtxIP9sQzf3ctrkB3vGbNGt5KvEOHDvG83Lt3j3cmLy8vIyMjLy/v2LFjo0ePhkUHMMJ49dVX9+zZAwSFd1lzBhaRsxKC+sE2TG5ubnZ2NmQ+f/58t27dNBoNTIVptdqXX375ypUrcGNeXh7eCAHcu3cvOzubrde9e/euXr06cOBA+PofTKb99re/PXDgABRRnxrVWOvbt29DK0C5M2fOxJ0PeXWv0RVlIAJEgAjUgYAjyFJqampYWBhqEvTmvXv3/tvf/padnV0HKOwtOIJhxQmlBQyUpYSEhKysrM8//xzn8ZRKpVar7d69+9dffw2ahI/H2FLQTk5OPnz4MHw2CZ9RKZXKrVu35uXlZWdnW74d/dTZIFmqMzq6kQgQAZsQsCRL8Ic8dIUwWoKJKYlEAjuIp6WlQVdbz1BwtIQdMcdxWq3WytFSaGjojBkz2MXZCoXiN7/5zfLly7/55pvz9Uj79+/ftm3bsWPHgoKCLMtSVlbW3bt38/LysrKy4uPj586di1N5MBf38ssvr1ix4u9//3tkZKROp4O3wUBpdDpdTExMeHj4+fPn33nnHS8vr6dfy4XPHSmVyv/3//7fmjVrQF8bQJaCg4NhtATq/oc//AF3s6XRUj1/53Q7ESAC1hDg8s0nvP/evXusLMHrtIcPH05PT8/Pz8/JyTHvw6oroG1r1qxhZcnFxeXgwYO8+/Py8nhn0tPTd+zYATfCFqVSqbR58+aenp4+Pj4dO3Z0c3NzcXHRarWwy46V/zZv3lypVMJ+Bz169Jg/fz47QkIyYIB+w15E2dnZsFfe1KlTQZnkcrlMJoNvy3bo0GHRokXHjh2LioqC7ZF0Ot2tW7cCAgLeeeedtm3b8r4l+PQh2ebNm9PS0u7duwePu4QEeEDqeciTpalTp+L+e7zJw3oWRLcTASJABEwSsCRL+fn5+Cxk0aJF+G0FjuM0Gs3Ro0czMjLy8/PhD3mT3q08mZqamp+fv2DBAlaWpFLp4cOHeR6EnbJOpwPJdHJyAgGAoYZarXaqd9JqtfCISCKRWCNLsCQPtOrOnTuzZ89u0aIFfHICPl8E3thqAlXYBZX9LIVSqfT29vbz84M9frB0IQEeonoe3rp1C8ZJsEb81Vdfxd1sSZbqyZZuJwJEwBoClmQJNAkGQ6tXr4Z+ytPTk+O4Dh06XLhwAQTp3r171pRkIQ/0d2+99RbbX/v4+Hz++ecZGRk4GoPunucnMzPzq6++gp4UV9/ZyoCJQVgIh8LALk/gjZbgnVw4mZeX99NPP33yySfjxo1TKBTsxyYwPBzkoVzBpdGjRy9ZsmTfvn3p6em4hhDd8gjY8DArKyskJASW10Nsr776anx8PKZ6e4cAACAASURBVAzUSJZsiJpcEQEiYI4AV2A+wT15eXkFBQX+/v49e/bUaDTwdufbb78dERFRUFCQk5NTUFCQn59v3o1VV/Ly8k6ePNmCSStXrgwMDAT/UATEI3QXHR2Ne2yzwlZ/G2beXFxc3njjDaQhHK/k5eWBIMHTFzZDUlLSxYsXJ06c6OzszHGcq6uruY9HwLeOWrduPXr06OvXr2dmZiJbXuMJCdjwTERExKBBg2Apo1QqXbhwIcpSbm4uWzUbFkquiAARIAJIwJIsYSZQhdjYWDyTmZmZmppaUFCQnZ1df1lKS0tDz2hApyzsmjEDGKmpqbm5uTqdjtd32+QwKyuLLc6cz7y8PHg9ltdxo1rn5OTExcWdP39+/vz5w4cP79OnT8uWLeHBlaura79+/UaPHv3Xv/71+vXruK8ESj5KMhuJeDb7ni/asN8Sr3bixUCeiQAReJ4JWCtL5hihbJjLUM/zubm54AEloZ4O63Y7Cgw8b2MHDXDGpCzxskEVzppJt2/fTkpKYsOD29kzDWNjjUiWGgY4lUIEiABLgLtfv3Tv3r379+8XFBTUz43Zu58uhYBrGLTZrGJewNJNDg3z8/NhpRw8ZmMzszbIEkz04S4ScHjv3j0hQ+EZMav4f76hjvAkCZUJ3pdCeW6s2P4vSrKIABFwUAL1lSWQDfE6KfSM/XujNASWXh9ZQieNUgUrC4UgQWjhfTJQUJIlKwFSNiJABOpJoL6yBMWjeNQzGgu3N26fjqXXR5Ys1K7pXCJZajptQZEQgeeTAPfAFun+/fu2cGPJBzaPpUyiXcPSTc5YFhQUwKoHWLXIZmZt0aKzpWMIGGoEbwjgNCOvdrYslXwRASJABP5LgGTpvyQs/s+qi3BoCJ04vM8kvIr3WiyhqVwUyhJM5Qlr11QipjiIABFwLAIkS1a1J0qLOaOgoMDksgU2v1UlNXYmlCWYzcMBEwyVWNFt7EipfCJABByTAPfQFunBgwe2cGPJB+K3lEm0a1i6OeP+/fuw+sNchgZAZJPaQ/yoprB6EJaqw0msoE2KIydEgAgQAR4B28gSz6kYh02nNxQKDHblYED1MWDWEIOMGD4fPHiAyoSKyz5BFKNQ8kkEiAARePjwIcmSbX4GqD3oDs+wBl5t4gbGzIoTnhQKcxOvDoVHBIiAHRHg/j87Sci0ycb78OFDNjYMmDXYDE3ZZmN++PChUIeacvAUGxEgAnZNgGRJrObj9exwKFZhtvZrMnj2pK0LJH9EgAgQgf8QIFkS66fAduJoi1WYrf1iwOYMWxdI/ogAESAC/yHAPbKThC1mJ/E+woBZw66Dt8eK2AtwipMIEAEkQLKEKGxssJ042jYuQzR3GLA5Q7SSyTERIALPOwGSJbF+ASY7dLEKs7Vfk8GzJ21dIPkjAkSACPyHAFdoJwlbzE7iLcSAWcOug7fHitgLcIqTCBABJECyhChsbLCdONo2LkM0dxiwOUO0kskxESACzzsBkiWxfgEmO3SxCrO1X5PBsydtXSD5IwJEgAj8hwD32E4StpidxPsYA2YNuw7eHitiL8ApTiJABJAAyRKisLHBduJo27gM0dxhwOYM0Uomx0SACDzvBEiWxPoFmOzQxSrM1n5NBs+etHWB5I8IEAEi8B8C3BM7SdhidhLvEwyYNew6eHusiL0ApziJABFAAiRLiMLGBtuJo23jMkRzhwGbM0QrmRwTASLwvBMgWRLrF2CyQxerMBH8mowfT4pQILkkAkSACDwjwBXZScLmspN4izBg1rCX4IuKTMePdbGjilCoRIAI2BcBkiWx2gt7cNYQqzAR/LJhC20RCiSXRIAIEIFnBEiWxPodCLvyJ0+eiFWYCH5Nxo8nRSiQXBIBIkAEnhHgiu0kYXPZSbzFGDBr2EvwxcWm48e62FFFKFQiQATsiwDJkljthT04a4hVmAh+2bCFtggFkksiQASIwDMCJEti/Q6EXXlRUZFYhYng12T8eFKEAsklESACROAZAa7EThI2l53EW4IBs4a9BF9SYjp+rIsdVYRCJQJEwL4IkCyJ1V7Yg7OGWIWJ4JcNW2iLUCC5JAJEgAg8I0CyJNbvQNiVFxcXi1WYCH5Nxo8nRSiQXBIBIkAEnhHg/mUnCZvLTuL9FwbMGvYS/L/+ZTp+rIsdVYRCJQJEwL4IkCyJ1V7Yg7OGWIWJ4JcNW2iLUCC5JAJEgAg8I0CyJNbvQNiVl5SUiFWYCH5Nxo8nRSiQXBIBIkAEnhHgSu0kYXPZSbylGDBr2EvwpaWm48e62FFFKFQiQATsiwDJkljthT04a4hVmAh+2bCFtggFkksiQASIwDMCJEti/Q6EXfm//vUvsQoTwa/J+PGkCAWSSyJABIjAMwJcmZ0kbC47ibcMA2YNewm+rMx0/FgXO6oIhUoEiIB9ESBZEqu9sAdnDbEKE8EvG7bQFqFAckkEiAAReEaAZEms34GwKy8tLRWrMBH8mowfT4pQILkkAkSACDwjwOntJGFz2Um8egyYNewleL3edPxYFzuqCIVKBIiAfREgWRKrvbAHZw2xChPBLxu20BahQHJJBIgAEXhGgGRJrN+BsCsvKysTqzAR/JqMH0+KUCC5JAJEgAg8I8CV20nC5rKTeMsxYNawl+DLy03Hj3Wxo4pQqESACNgXAZIlsdoLe3DWEKswEfyyYQttEQokl0SACBCBZwRIlsT6HQi7cr1eL1ZhIvg1GT+eFKFAckkEiAAReEaAM9hJwuayk3gNGDBr2EvwBoPp+LEudlQRCpUIEAH7IkCyJFZ7YQ/OGmIVJoJfNmyhLUKB5JIIEAEi8IwAyZJYvwNhV15eXi5WYSL4NRk/nhShQHJJBIgAEXhGgKuwk4TNZSfxVmDArGEvwVdUmI4f62JHFaFQiQARsC8CJEtitRf24KwhVmEi+GXDFtoiFEguiQARIALPCJAsifU7EHblBoNBrMJE8GsyfjwpQoHkkggQASLwjAD3bztJ2Fx2Eu+/MWDWsJfg//1v0/FjXeyoIhQqESAC9kWAZEms9sIenDXEKkwEv2zYQluEAsklESACROAZAZIlsX4Hwq68oqJCrMJE8GsyfjwpQoHkkggQASLwjABXaScJm8tO4q3EgFnDXoKvrDQdP9bFjipCoRIBImBfBEiWxGov7MFZQ6zCRPDLhi20RSiQXBIBIkAEnhEgWRLrdyDsyv/973+LVZgIfk3GjydFKJBcEgEiQASeEeCq7CRhc9lJvFUYMGvYS/BVVabjx7rYUUUoVCJABOyLAMmSWO2FPThriFWYCH7ZsIW2CAWSSyJABIjAMwIkS2L9DoRdeWVlpViFieDXZPx4UoQCySURIAJE4BkBzmgnCZvLTuI1YsCsYS/BG42m48e62FFFKFQiQATsiwDJkljthT04a4hVmAh+2bCFtggFkksiQASIwDMCJEti/Q6EXXlVVZVYhYng12T8eFKEAsklESACROAZAZIlsX4H2IOzhliFieCXDVtoi1AguSQCRIAIPCNAsiTW70DYldNoSSzW5JcIEAEHIkCyJFZjkiyJRZb8EgEi4NAESJbEal6SJbHIkl8iQAQcmgDJkljNS7IkFlnySwSIgEMTIFkSq3lJlsQiS36JABFwaAIkS2I1L8mSWGTJLxEgAg5NgGRJrOYlWRKLLPklAkTAoQmQLInVvCRLYpElv0SACDg0AZIlsZqXZEkssuSXCBABhyZAsiRW85IsiUWW/BIBIuDQBEiWxGpekiWxyJJfIkAEHJoAyZJYzUuyJBZZ8ksEiIBDEyBZEqt5SZbEIkt+iQARcGgCJEtiNS/JklhkyS8RIAIOTYBkSazmJVkSiyz5JQJEwKEJkCyJ1bwkS2KRJb9EgAg4NAGSJbGal2RJLLLklwgQAYcmQLIkVvOSLIlFlvwSASLg0ARIlsRqXpIlsciSXyJABByaAMmSWM1LsiQWWfJLBIiAQxMgWRKreUmWxCJLfokAEXBoAiRLYjUvyZJYZMkvESACDk2AZEms5iVZEoss+SUCRMChCZAsidW8JEtikSW/RIAIODQBkiWxmpdkSSyy5JcIEAGHJkCyJFbzkiyJRZb8EgEi4NAESJbEal6SJbHIkl8iQAQcmgDJkljNS7IkFlnySwSIgEMTIFkSq3lJlsQiS36JABFwaAIkS2I1L8mSWGTJLxEgAg5NgGRJrOYlWRKLLPklAkTAoQmQLInVvCRLYpElv0SACDg0AZIlsZqXZEkssuSXCBABhyZAsiRW85IsiUWW/BIBIuDQBEiWxGpekiWxyJJfIkAEHJoAyZJYzUuyJBZZ8ksEiIBDEyBZEqt5SZbEIkt+iQARcGgCJEtiNS/JklhkyS8RIAIOTYBkSazmJVkSiyz5JQJEwKEJkCyJ1bwkS2KRJb9EgAg4NAGSJbGal2RJLLLklwgQAYcmQLIkVvOSLIlFlvwSASLg0ARIlsRqXpIlsciSXyJABByaAMmSWM1LsiQWWfJLBIiAQxMgWRKreUmWxCJLfokAEXBoAiRLYjUvyZJYZMkvESACDk2AZEms5iVZEoss+SUCRMChCZAsidW8JEtikSW/RIAIODQBkiWxmpdkSSyy5JcIEAGHJmCXslRVVVVjo1iTp0Yn9ckAAfDEqT4OG/heXuS8wwYOhoojAkTg+SFgx7JkQXigD7WyFWuV2UqfbDa2Q2fPN3GbDVtoN/HgKTwiQATsl4BdylJlZaXRaLSVLNWh8SwUjd7YPNit49Wmb2DMJo2mHz9FSASIgJ0SaFqyxHblRqMxPz8/Nzf39u3bQUFB0dHRhYWFkKGioqK8vNwCcdCt0tJSC3l4l6Dz5Z1kDzMzM/HQYDCA/eTJk7S0tOTk5NjY2Ojo6OTk5JycnLKyssrqhPlBRHm1Y682QdukGuHJJhgwhUQEiIBjEGhasgRyYjQaHzx4EBQUtGXLlrFjx44ePXro0KFTp07dsGHD4cOH4+LiKioqLNNHP2WCpK9O5eXlFRUVrE5UVlayhzz/VVVVbIaysrIHDx7cvn37yJEjH3300bx58yZMmDBq1Kj33ntv9+7dMTExxcXF5eXlGAbJEo8nHRIBIkAEzBFoWrKUkZFx8+bN0aNHKxQKuVwulUolEglXnSQSibQ6qdXqF154YcWKFQkJCdjd8xSlqKho06ZNEydO7Gk+jR8/ftGiRRcvXoyIiLhfnfR6PU9IeNQqKir0en1hYeGWLVsGDhyoVCpVKpVSqZTJZBAk++/06dNPnjz55MmTkpISexxkYMwmDR4ZOiQCRIAI2IpA05Klbdu2jR49GtRIJpOhJkF3L5VKFQoF2lOnTjUajTBdxpOlxMRET09PViRM2mq1ulu3boMHD968efO1a9fu379vbt4PRksGgyE0NHTZsmWurq7okBckx3ESiUSpVHIcN2zYsD179qSkpGDPbqtmawA/GLNJowECoCKIABF4Pgk0FVkqKys7ePCgQqFQKpWoPdC5azQajuOcnJxQCeBQpVIFBQU9fPhQ+CAnJibGycmJFTaJRKLVakEzpFKpTCaTy+UKhUKlUmk0GhcXFw8Pj5UrVz5+/PjJkyf5+flGo1E4VXjlypWRI0eq1WqO46RSqTAqGM9JqhNE27Nnz4CAAOzZ7ehHhjGbNOyoIhQqESAC9kWg8WWprKzMaDReuHChX79+KpUKenOZTDZu3Lhjx45lZGQUFhYajcbS0tLAwMDdu3d3797dzc2N4ziZTBYZGfnkyRPhgAlkCWXMycnJ1dVVqVQKRzaYBxyOGDEiKCgImtBgMLDPk4qLi2fOnAn5QTg9PT0/+uijwsJCvV4PtyQkJHz55ZcTJkzo2LEj5BkxYsRPP/2EPbsd/TgwZpOGHVWEQiUCRMC+CDS+LFVUp1GjRoEwcBzXq1evVatWRUdHw9QcdItGo7G8vDwzM/PKlSsrV64cM2ZMz549cVjD6ofRaOTJ0syZM4OCggICAq5du3b9+vWAgIBLly4dPXrUz8/v9ddfl8vlzs7O8HyoZcuWy5Yte/LkiV6vx+64oqLCYDCcOnWqa9euKGO+vr5Hjx7NyMhgl6rr9fqcnJxbt259++23Y8aM8fX13b17d0ZGBrqyox8HxmzSsKOKUKhEgAjYF4G6yxLvcU59qh0dHY3dPcdxS5cuLSoqevDgQVVVVUVFRUFBAc6nFRUVVVZWFhQUpKamnjp1Ch4FgSax8bCyJJVKd+3aZTAY0tLS4BERCGFFRUVlZeWVK1fmzp3btm1bHKh16tQpICAA1j5Aj1xeXq7X60E4OY5TKBS+vr7Xrl0zGo1FRUXghy0dUdy5cyc3N9fcugzM1jQNk2qEJ5tmzBQVESACDkCgLrIEfRP2tvWkUFBQsHXrVlaW9u/fD/Ny7L+4uoE9iQvneN0lK0scx/n5+YGEYDae4evri7NzSqVyyJAhWKnKysrS0tInT544OztDntatWy9YsOD+/fsgb+Xl5QaDgbfcHG+3X4OHiHdov/WiyIkAEWjiBKyVpZKSkvDw8Nu3bycmJsKrrCgJ9axhenr6ypUr2ac+dZYljKS2snT48OH+/fvDggiZTNa6deu0tDTwVllZWVxcXFhYCFc5jtNqtcuXLy8tLdXr9TC/ZzAYhC9CYTB2avB0iHdop5WisIkAEWj6BEzIEnRAbOjh4eH+/v6TJ0+eMGHCBx988M0330RFReFzfsgpvIv1YMGOiYn505/+BIvuYDjCkyUYlMD8G2+ohNN3vNJrK0tGo/FPf/oTPNySy+Ucx4WEhEDMlZWVJSUlrCxxHLdmzRqsNSiTXq+3oEzYp1vg0NQuYcwmjaYWLcVDBIiAwxCoWZbef/99T09PWBUtkUhkMplSqdRoNBcvXoT3T3kLE2qLJiwsbNq0abAKHEYkPFkyVCd4hCOUJVaZsOg6yNK2bdtgwTesRD99+vTjx49h5hAm8UCuQDgXLlyI+w9BHoPBAMqE8WAwONtp8vkTm61J2SbVCE82qVApGCJABByJAF+WsN+prKwsLCxcunRp165d2aEM9Mscx7Vp02br1q3s0oC6dbs5OTk7duxQKpXwJhDHccuXL8c1DvDkBh7emFMmjBkbps6ypFKpQH62bt364MEDUBRY8tCmTRuse//+/b/++mt2X77KykpQJlhWDuKE8QgjxEtN1sCYTRpNNmwKjAgQAXsnwJcl6IihVv7+/j4+Ps7OzrDtArsVECxIU6lUV65cqedowGAwXLt2DVeHcxzXt2/fbdu24XAENmYFZcLREm5Sx3aa2BjWyBJmBjWF0RIK8PHjx+F9KRgMVVRU+Pj44PuzLVu2nD17dlxcHDrBMRPIEqyAgNjqyYctoiFtFqzQbshIqCwiQASeKwImZAnq/+jRoxdeeAFm1WDuDvapk8lksJeBq6urRCJ54403rl69it1W3dg9fPiwY8eOuHUCx3Ft27Y9fPhwQUEBTo7hgAnGTCADWC4YWHqdZQn3kggLC8ONiMD55s2b27Rpg1N5Wq129uzZZ86cyc7OxnIrKyshPPgXo8I4MWfTNzBmk0bTj58iJAJEwE4JmJWlwMBAmFiDPVLlcrmTkxOrTDCj5eHhsX//fuy56kxh1apV3t7euNqN47jOnTuvWrUqODg4NTUVB0k4RSa2LGVlZbFzdEajMSUlZejQoVBrGFQ5OzsPHz7cpDKRLNX5l0A3EgEi8JwTMC1LycnJR48e5ThOo9FIJBLYPk6pVDo5OfE29raVLCUkJCxdutSpOuFDJrlc3rt37xUrVkRGRsJ3jPD9WWg2lEMwsC1rHC1hTjBCQ0NBcuCl2m7duvEywOH+/fvbtm2LT5g4jmvdurVEIvH19T1x4sTDhw/LyspwVAdSyq4HqduzN5ORNMBJHlveYQMEQEUQASLwfBIwLUt5eXmnT5+GLU1h324nJyfxZKmysrK8vDwmJmbChAlPV1LALqvY+8vlch8fn4ULFwYFBT158gTbiX1+Y70s4e1oPHr0aPbs2S1bttRoNM7OziqVas6cOUVFRfBaEmYzGo0Gg+HYsWNt27Z1dnYGeYYgpVKpVqvt1avX7t27b968WVZWBovFceED9umstyZuY8wmjSYePIVHBIiA/RIwIUvwR/21a9dAHmClA0ziwWgJHi9Bj2yT0VJVVVV5eXlJScn169c/+ugjX1/f1q1bu7q64pMeWPjXv3//BQsWHD9+HLbCA9nABdnsWKTG0RJkLiwsfJpz69atMD6DRfC9evUCaSkrK2N9wppDg8Gwf//+GTNmeHt7y+VymOHEd4Hd3d0nT54M4vTo0SP4EiA44Qln0//FmFQjPNn046cIiQARsFMCZmUpKChIpVLhtyFkMhnMsCkUCpvLEmzDCluJFxcXHzlypHv37i+++KKnp6erqyv7kT1YFrh+/frc3Nzi4mK9Xo9Pm9h+30pZSklJ+fjjj3FYBmsuVqxY8ejRI2FzFhYW4sYWYWFhM2bMgO2InJ2dNRqNWq1WVSeNRgPidPXq1UePHuECDaHDJn4GFcik0cSDp/CIABGwXwJ8WYI+CPrf8ePH40ZwKEswmwcL0lQq1dKlS/Py8rDnqjMI2MqBvf3rr78eN24czpJBJB4eHk/3uHN1dZ07d25AQACbnx3Z8GRp0KBBs2bNWvfr1KVLFxcXF/AP1XF2dp47d25iYiLr1pwNH9r405/+5O7uLpfL4QNOqHDOzs6dOnXauXOnudub/nlsU5NG04+fIiQCRMBOCfBlCd9bKikpOXv27PDhw+FLrBKJRKFQgCap1epWrVpxHDdt2rTIyEioOXRedaYACwR4t9+8eXPv3r0fffRR69atsccHA5QpLi7u4cOHBoOBVzorS2q12rM6qauTSqWCqUjWoVwu79ev37p16+7cucOLwfJhaWnpZ599tmPHjunTp3t7e8MKEfAsk8l69Oixf/9+/PgFK5yW3TaFqybVCE82hQgpBiJABBySgAlZgnpWVVU9efLkwIEDXbp0gX5WoVCAGsFbpZMnT7558yZm5glDbWGZvB32eqiqqrp06dKAAQNatmzJTui5urrOmTMnMDAQdgliS+TJEsQPsqRWqzXVCabd4PlZz549t27d+ujRI5ymY71ZsGFjpKqqqpycnPXr1+PwCzWvY8eOx48ft8feHGM2aVhgQpeIABEgAvUhYFaW4EsQZWVlsHS7Q4cOMHvGcVzXrl3ff//9qKgoLBh7LjxjEwN2QTUajSUlJfAF2969e2OPD8bBgwdhBQRbIitLHMfJqxPvRo7junfvvnPnzh9++AE9sCv9WIfW2IWFhREREe+++y7u7wclvv3228DHGidNJw+2qUmj6cRJkRABIuBgBMzKUlVVFSxFMxgMT548CQkJWbFixdq1aw8cOHDz5s3k5GTctk68zXXYIoxGY2Fh4enTp/v27QtbH8E6vXnz5gmbhCdLEydOPHr06Pbt248zKSgoKDU1FRZz426w7KJzoVtrzoSHh2/ZsgU3MZJKpb6+vt98843dKZNJNcKT1qCgPESACBCBOhCwJEvl5eXQDcFyMt6XLNjCROqthA9jCgsLv/jiC+j0YUZxxIgROp2ODYb30XRPT8/t27fDdqt6JpX/N4EmsV/zg+rwfFp5WFJSEhsbO2nSJByctWnTZvfu3eyHOerj38ow6p8N29SkUX//5IEIEAEiYJKAJVnCoQO8GyRcLIcesefCM+IZFRUVsB6vVatWUqm0c+fOoaGhvOLY0ZJGo9m0aRMvg9FohBnC/2rTs/9xN1iTsoEvSAldsWfgBSx2PwipVDpu3DjIg6szhIrLOmkKNrapSaMpREgxEAEi4JAETMuSsCfCFXpCCmxm4VWbn6mqqoL3bWFlYM+ePb///nteKTxZWrt27ePHj0tKSlgxgOELfFgWxMmyLMELUqwHXqEodUajMTAwcNq0aThg6tq1K2Suz7MrYXGinmGbVWiLWjQ5JwJE4HkmYFqWrCcC3TR2W9bfWJ+ckydPxhenhgwZgl+SRZ+sLKnV6tWrV8O7upgBP1dhTpYwp8FgKKlOMFi0cqne2bNnBwwYgLKEoyXhokEsqKkZ2KYmjaYWLcVDBIiAwxCorywBCOy56sOFt2O3OVfFxcWDBw+GvcaVSuW4ceN43z3iPVtycnJatWqVUJZgtARTebjkgd1fFTbBwzDgQ384lQdVxqtgoOocP34cF9ZrNJqFCxdChuLiYt4tTfYQ29Sk0WTDpsCIABGwdwKNL0t5eXkxMTHWc/z+++/hDV9ldZo3bx5+rw+dsKMlhUKxcuVKoSzBtCR8IQlHQqzYVFVVwcJ0o9GYnp5eUlLCbsDK5sRyCwoKjEZjdnb2lClTcJl4ly5dvvnmG8jDW1uINzZBw6Qa4ckmGDCFRASIgGMQaHxZOnny5IIFC27fvl1UVGQN088++wwmxzQajVKpXLJkCSzNYO9lZUkul5uTJVQmHCTxxAa+o5Genn748OEff/xRp9OVlJTUuGwhJCQE3zvmOG7AgAHR0dEQnuVHU2wVGt1GBTJpNHp4FAARIAKOSsA2slQfOuvWreM4TqlUzpw5MyIiIj8/nx27oOeqqqrHjx9v2bIFH9hwHOft7f3ll1+WlpbiF9Yhv/WyhP5NGvAkad++fVBop06djhw5YnLghbdfvnx5xIgRkB92Ft+0aZOV85PopCkYJtUITzaFCCkGIkAEHJJA48vSvHnzOI6DbXv69ev3wQcf+Pv7nz9/PoxJAQEB/v7+77zzjqenJ8qSs7Pzrl274DOyvMkxW8kSNPnhw4fxExtarXbUqFE7duzw8/O7cOFCcHBwQkJCREREQEDA5cuX161bN3bsWPhABsw0jh49+tatW/b400EFMmnYY40oZiJABOyCQOPL0uLFi2HXBtAb6M0VCsVrTGrXrh3mga3EVSrVmDFj4FkOPgFC4jaRJZxwO3HiRKdOnVAO4WVeuVzu5eU1adKk119/Qs1vCAAAIABJREFUffDgwV27dm3Xrh27ZR/HcWq1+uuvv8ao7MswqUZ40r7qQtESASJgRwQaX5aOHz/ev39/3NXb09MThibw+SL4183NDfaHdXNzwz2HMjIyysvLS0tLcf0bcreJLMFcYlVV1f37948dOwYzjbCQQalUwgSdSqWCDffgu/IKhQK/+D58+PBjx47xhnEYYdM3UIFMGk0/foqQCBABOyXQ+LKUn58fFRW1efPm7t279+jRQ6VS4bgEDZgWc3Fx6dOnz4IFC06cOBEfH//gwQN4qgSLttkGiI2N7d27d9u2bfv06fP6669fuXKltiuzYfk4/KvX61NTU48cObJo0SIfHx93d3f4YCAqEMdx8D0qkC4fH5/ly5cHBASkpqbC0yns2dkgm7iNMZs0mnjwFB4RIAL2S6DxZQlWwVVUVGRnZx89enTOnDndunWDL7XDiAQ/ST5hwoQvvvgCBAmIg2zgOjpsBr1ef/ny5SNHjpw9ezYqKgoW1OFVKw18U7iiogL2A8zJyQkKClq/fn2/fv1g0AZ6KZFIlEqlRqPp2bPn/Pnzo6KiICT4V7ytbK2sSN2ymVQjPFk3n3QXESACRKBGAo0vSyZDfPz4cSyTTO7Zw3b9+JYreisvL7dyxTnewjNQlqAvhqtVVVU48CosLAwPD79161ZsbCwbIbwLhWrEc2svh6hAJg17qQXFSQSIgN0RaHxZYndb4K29Rj2oqqqC7RhgL3P2HVg8g5mhDXAgBTs41Llh0A/PPzi0x5XfVqIwqUZ40konlI0IEAEiUFsCjSxLIDCwMZ3BYLAgS7jDN24UBEsSzMlSbUFYyA99MQ7IcIWehVsc4BIqkEnDASpIVSACRKBpEmhkWWKHSpZlSahGDS9LOG0IE3RNs0VtFZVJNcKTtiqF/BABIkAEeARIlnhATBxCX4yaBMMmK7cSF7qzl54d4zRpCOtFZ4gAESACNiFAslQzRqEssRJVK5vt4msuuFFzsKEK7UYNjQonAkTAkQmQLNXcuiRLJEs1/0ooBxEgAjYi0FRkCR4UwetBWDXoDeFBDj5JEhowXsHMeLutDJIlkiVb/ZbIDxEgAjUSaHxZwlUPFRUVvPXWqDSwQBwX3fHmzdhOs8YK1yED69+Gdh0iachbLNe0ISOhsogAEXiuCDQVWQKl4X2fAnpGGC3xpIg9ZDtQMRqP9W9DW4xQbejTck1tWBC5IgJEgAiwBBpZlnArBOgELWxsarmXbIB3iWoMwJoMLPombluuThMPnsIjAkTAfgk0viyxymRh1bWFXtJ+6TflyC0Ab4A/ApoyGYqNCBABUQk0LVmy0N9Z6CVFBfTcOrcA3EIzPbe4qOJEgAjYikCTkCVbVYb82JAAyZINYZIrIkAErCdAsmQ9q+crJ8nS89XeVFsi0GQIkCw1maZoYoGQLDWxBqFwiMDzQoBk6Xlp6drWk2SptsQoPxEgAjYhQLJkE4wO6IRkyQEblapEBOyBAMmSPbRSY8RIstQY1KlMIkAEjCRL9CMwTYBkyTQXOksEiIDIBEiWRAZst+5Jluy26ShwImDfBEiW7Lv9xIueZEk8tuSZCBABCwRIlizAea4vkSw9181PlScCjUeAZKnx2DftkkmWmnb7UHREwGEJkCw5bNPWs2IkS/UESLcTASJQNwIkS3Xj5vh3kSw5fhtTDYlAkyRAstQkm6UJBEWy1AQagUIgAs8jAZKl57HVrakzyZI1lCgPESACNidAsmRzpA7isAFkib7b5CC/FaoGEbApAZIlm+J0IGcNIEsWPkbsQCCpKkSACNSOAMlS7Xg9P7nrL0ulpaWRkZGXL1/+8ccf4+PjMzMzjUZjcXGx0WgsLy8vKytDmI8fP4bzeAYNg8FgNBrLqhOeJIMIEAEHJkCy5MCNW6+q1U2WDAZDRkbG2bNnV69ePWPGjGHDhnl7e/v4+AwcOPC1117bvn37rVu39Hp9eXm5lcHp9frTp0/7+fmtW7du3759UVFRNMayEh1lIwJ2SoBkyU4bTvSw6yZL2dnZ/v7+PXr00Gq1HJNkMplCodBoNHv27DEajUVFRQYmVVRUmKtPRUVFhw4dwJtSqdy2bRs9kTLHis4TAccgQLLkGO1o+1rUQZZKSkquXr2q1WqlUilKkkQiQZvjuGnTphUUFOj1+sePH8fHxx8/fnzTpk179uwJCAh4/PixyWqwt69cudJkHjpJBIiAwxAgWXKYprRxRWorS2VlZdHR0RMmTPDw8AAhkcvlM2bM2Lx58/Lly995550333xzwIAB586de/ToUVVV1XfffderVy+tVqtWq+Vy+YgRI4KCgkzWQSaTcRwH8rZmzRqTeegkESACDkOAZMlhmtLGFamtLBUUFBw4cMDd3Z3jOBCSsWPHXr9+HRY4FBQUZGRkBAQEFBYWQqDr1q2Ty+UgYDKZ7OkAa926dcI6VFVVkSwJsdAZIuDABEiWHLhx61W12sqS0Whct24dO+FmbvQDYVkpS5WVlSRL9WpIupkI2BsBkiV7a7GGire2slRcXPzxxx9zHAcPllxdXYuKioxGY0VFBbt2rqqqqry8XK/Xm5zEEy5nIFlqqAancohAUyFAstRUWqKpxVFnWZLL5RKJZODAgez6OtSbiooKkKXMzMwjR45Mnz69T58+kydP3r9///3794UQSJaETOgMEXBsAiRLDd2+2EE3dMG1LK/OsiSrTjxZwsIrKytBlmAgBe/VlpWVmcMiqiyZKxSjJYMIEIGGJ0Cy1NDM2Rkta8purK6zPrIkl8trlCUcS4FRWVmJZ1gsospSZWVlY+Fl60g2ESACLIHnUZas6YlqKx4sU8t2bT1bE63lEut2lZUlo9HIHpoMCZ8tyWQya2TJaDSWVCej0ajX601qktFoFFWWDAaDybrUjRjdRQSIgE0IPHeyxP5VXlxcnJKScunSpW+//fbWrVt5eXl6vR66YHbHtjqDLigogOXR+fn5paWlRqMRdjYAh7ABj06n++GHHy5evPj999+Hh4eXlJRgcZb/li8rKysoKAC3eIvBYMjPz4+KigoJCTlx4kRwcDBkwGzQC8Nhfn4+3KjX67OysuLj46OqU0R1wpdbc3JyjEZjfn5+Tk4OhCTsyh9Xp7feegtW4kml0pEjR8KSB4wNDJjE44kQbHwH5IX5ZTKZpDpxHFer95aqqqru379/+fLlb775JjAwMDU19cGDB/rqVFpaWlRUVFJSUlFRIawOLwY6JAJEoCEJPF+yVFhYaDAYysvLHz16dPr06ZUrV06aNKl///79+vUbMWLE7NmzFy1adOPGDfhDvv7NUFpampqaeu7cufnz52/atCkmJgaUyWg0BgcHr1+/fsaMGUOGDOnUqVPXrl179OgxcuTIjz/+eNeuXd9++y3ok4Ue08/Pb8OGDX5+fufPn8dQg4ODR48e3a1bt06dOr344ov9+/dfs2ZNWloaboTKOgwPDz958uSGDRsWL148evTofv36dWPS66+/PmfOnIMHD8K7R7BfKk+WysvLd+7cuXbt2k3VqXv37hzHwZKHnj17Hjt27IvqdOLEiWPVCUY/8Gzp4cOHgYGBW7ZsWbNmzY4dO8LDw20lS48ePbpx48bWrVuXLFkybdq0wYMHe3l5dezYcdCgQWPGjJk/f/7SpUsvXLiQkZFRWFhYXl4OA0FkSAYRIAKNS+D5kiUYDD1+/Pj06dOdO3d2dnZm37ORSCRKpXLChAkRERE26ar0ev2FCxf69evHcZxard69ezc0dkBAwKBBgziOU6lUCoUCXiZlI3nllVeuXr3KjpyEvxJPT0+1Wu3h4dG3b9+YmBiDwRAUFDRz5kylUgl7Iri5uXEc1759+1OnTuHtMIVYUlKSl5e3e/fuVq1aQbkajcbZ2Vmj0ahUqqdbz2Fyd3cfMGDAxYsXQdhwKg8cxsXFKRQKjuOUSmX79u3ZPYecnJzgkoZJVVVVuBIvMjLy/fffx1umT58eFxeHcaJR4ySecFL01KlTgwYNUqvVbm5u+MYu4pVKpUqlctCgQbt3746KigJlEjrBAMggAkSggQk8X7KUl5dnNBq/++674cOHYz/FGjKZTK1WDxgwAL7CUOfGqKysLC0tNRgMJ06ccHV1dXd3l0gky5cvr6ys3LJlS7du3WBUgUVLJBJpdUKJeuWVV7799lsLAUCnL5fLX3jhhWPHjmVkZLz44ougfyAtcrlcqVS6u7vv27cP/cDsWXh4OIxscFMfjIQ1XFxcIM7WrVt/9tlnMCnHjrcCAgKgLqDoarUab1epVGijwcpSVFTU7Nmz8dLEiROvXbuGcaJRoyzx5gM/+OAD9AnjNjwEQyqVgla5urpu2rQJlAmLI4MIEIFGJ/B8yRLMoQ0ePNhkp8n2X/XfErSkpMRgMHz33XfQcXMc165duxUrVrRu3RoK6tat26xZs1asWLFs2bLVq1dPnTrVw8PDyckJ9zYdP348PhMS/lBYWZo7d+6iRYvUarVUKnVxcXnjjTfeeuutqVOnuru7v/POO7GxsTga0Ov14eHhY8eOdXZ2xpFKx44dp0+fvvrXqW/fvhqNBvP06tXrzJkzvDCio6N79OghkUiwUixDDw8PHHWBYUGWxo8fXzdZgudSlZWVubm5u3bt8vT0lFcnjuN8fX0XLVr062qtHjBgAAap1WpXrFjBqxQdEgEi0LgEni9ZqqioCAoKcnV1xY5JaDg5OXEc16VLl0uXLtWnbUpKSiorK0GWwKdEImnXrh38qd6mTZtVq1ZlZmbCvGJpaWlWVta2bdtcXFxAb2CKb/369agovGBYWQJBkkgk3bt3X7FiBTzEMhqN169fv337dk5ODi45KykpWbFiBTt72blz59WrV+t0uuJfp4CAgEmTJrm7u4MyqdXqNm3aJCQkwOgEZvMePHiwa9eupwOUdevWLVq0qHfv3m5ublBZLy+vTZs2+f064btKer2eN1qaMGFCbWUJYgA+xcXFV65cwV1iOY4bOHDg8ePHedCMRuP58+f79Omj0WjgYxmdOnW6evWqMBudIQJEoLEIPF+yZDQaT548KZQi3hnoiP38/OrTKiUlJbBPdrdu3WAtGZYyaNCgCxcumHTu5+cHD4fgX29v75SUFJg3Y2fPjEYj7BQnlUrbtm3bvn17juM6duy4bt06HGChnlVWVhoMhrKyspKSkv3793t5eUEFtVrt0KFDo6OjWaVhnx7dvHlz0qRJGo0GpxxXrlwJOgqLFwwGg16vx3V9kyZN4jgO9HLs2LG4lg9rWlVVBUtObC5L6enpixcvRsKtW7eOjY01udDDaDSePn26T58+crkcOEyYMMHCUkAMngwiQAQahsDzJUtFRUXHjh1TqVTCJ+HYo3EcB8Opp2vM6tMGsGABJ/FkMhkMI/r163fy5EnssisrK0tKSvR6PahOenr6rFmzNBoNPKdRKBRP16rBJZQZiAplycvLC4JftWoVK10gMFgFvV5fUlLSr18/Z2dnqP7QoUP9/f1hFTtmQwPWrwcEBPTt2xfK8vT07N69e1hYGOSprKwsLCxkS1yyZAliHDNmjF6vh4+dl5WVwc54IJCwEs8moyVcGXjp0qU2bdqAlrdr1w7ajkcMq1ZVVbV9+3Z8yOTt7R0aGoqVwmxkEAEi0CgEni9ZevDgwb59+7DrtGwcOXKkPk3CyhL8Vc5xnKenZ0REBLqFZy34mdaKioqHDx/evn0bBiiwHuHDDz+Ev+V5z/bxERSMTgYMGPDgwQP0DAarGUajMSgoCJbngeatWbOG55N3O3xG9sKFCwAKHsht2bIFsoHGYBHFxcUTJkwAAVOpVK+//jqrCgaDoaI62Xy0BFUYMWIEx3EwOVnju016vf769etyuRz+UHByctq/fz/IMBuzkAadIQJEoAEIPC+yVFmdDAZDeHi4ZTWChzocx9lQluCBf/fu3VevXg2TYAaDAb6GB910eXk5dNwwLcY+I5kzZw4sgcORAfwssBYymWzUqFFff/017+eCggHn79+/v3z5chgnqdVqLy+vkydP8m4RHlZVVRUVFUFZMOu1bNkyg8EAPNl3UUGWwL9KpRo5ciQbAOS3+WgJ9iNPSUnp0KEDytKOHTugImwAbNUMBoNOpxsxYgRE26pVq3nz5hUUFPDGl+wtZBMBItBgBJ4XWYJXNUtKSh48eICzXtiz8wyZTPbGG2/gbFXdGoMdLcG4Z8iQIVeuXIGuuaio6MmTJzhOYo3y8vJevXrhWsHx48dnZWVVVVWZkyWJRPLhhx/WGGRUVNQLL7yANe3bt29gYCBMHprrvtFn165dYX5Mo9FMnz49JycHJ+XwXpAlGH+oVKrhw4fj7fAgCv8yMDmJN3HixB9//JG9BWwLC8RRRYKDg2H8p1arXV1dT58+DfdibDy3lZWVer1+w4YNMOJ0cXEZO3ZsWFgYDpXQM+9GOiQCRKABCDxHsoQ0lyxZwlMmnBDDXvubb74x16mhH8sGT5Y4jhs0aND3338PAgl7IFVUVLCChCOnV155BZcLvvbaa3FxcaBJbIkY6tP1CJs3b2YvmYz85MmTOMOmUCimTZsWFxcH6zJM5mcdDhs2DObHNBrNmDFj4uLiYMDEdt8gS6CmKpXqtddeYz1ATgsLxCdOnPjTTz+xt4BtQZYgw+PHjy9evOjk5CSTyTQaTbt27fB9L3P1AuxffPEFx3EajcbJyalr167nzp27f/8+tBrvLwBhVHSGCBAB8Qg8j7KUnZ29fv36Vq1aoRpJpVLYbYHjuBdffNHf31/4nKa2bcDKEnzrwdfXFzbygaEPPmvhKdPTlQLLli1r2bIlCI+vr+93330He+Sw2/PUR5Y4jtuzZ8+TJ09Qlsz14FDrZcuWgSzBu8ZBQUE4KYc31keWNBrNpEmTbt68KYRcoywVFRVt2bIFnt45OTm5uLj4+PjMnDlzsBUJ9qfw9vbu1KnTxYsXcWZS+EeAMDA6QwSIgEgEnkdZqqioyM7OXrdu3fjx49u0aYP9e/v27adMmQKaVONagBrbQyhLvXv3DggIsDxaggHTsmXLYG2CRCLx9fW9evWqTWQJ+m6YjgNZgg8dsYMek/VCWVKpVAMGDLhx4wbcwnbf9ZElFxeXSZMmhYSECEuvUZays7NXrlyJjVhbQyKRyGQyrVZ77tw5m+zPK6wCnSECRKBWBJ5HWUJAT58erV27duDAgf379x82bNi+ffvS0tLqP04C/6wsyeVymUzWo0ePwMDAGmXp6TtGKEsymczX1/fy5csoSxg82/9aOYkHo0NWlnCjUhz0oH/WWLZsGSwOBFn64Ycf4KqtZMnNzW3y5Ml37txhC8UiYO4RgheusgsODp4zZw7SgG2QlEolDoXxktCAJQ8ymax379537tzBZ0vCMOgMESACDUbguZYloMx7+cZW6HmyJJVKu3fvbs1oCWQJJs1AlgICAmwoS7AqYc+ePY8fP8aHKDXKEqwpAFnC2Tb2rvqMllq2bDl58mR8eYhtghpHS999992MGTNQcrRa7YABA8aPHz/VijRu3LiBAwd+9NFHgYGB8Ml2aDU2ALKJABFoYAIkS2IBF8pSly5drly5Ys1oacGCBfA2kkwm69q1a2hoqHBSETtiK5c8rFmzBgYQMETYsWPHw4cPIRhWXUziWLJkCYyxnJ2d+/fvz756hflFlaXqzy1JTH5vKTc3d/78+bB4AZgcPHiwsLAwuzbp6ep53L0Ca0QGESACjUKAZEks7KwsKRQKqVTq4+Nz8eJFa2Rp6tSp0MNKpdL+/fvHx8cLlaO2srRjxw6YDYN/P/zwQ/wMYI0IZs+eDTKp1WpHjBiRkJAgvKWxZKmgoGDdunW4N4dGozl37hxsvgeLSmr8F1Y64FpBYdXoDBEgAg1JgGRJLNqsLMEXFmC5lzWy1Lt3b/zkxKRJk0zqR21l6dSpU61bt8YnLsOGDYNd48w9UGGFcNCgQbA0QC6Xv/322yb3KxJVlpCG8NnS48ePYR8KePqFslSHdq1x6UcdfNItRIAI1JYAyVJtiVmbn5Ul2Kq1Y8eOVo6WYOtVGNbMmjXL5Aqx2srSlStXvL29YdDDcZyPj09oaOj9+/dxl1JexVi58vHxgS85SSSS999/Hz+8xEpXY8lSSUnJrVu3YKUDMIFJPN6ye3OHMJZiK8vjQIdEgAg0MAGSJbGAs7IEK7M9PDymT58O56FUYV+ZkZGxa9cu6F5BljZt2gQPlnh/y9dWlpKTkz/88EP2Ln9/f6PRKFxMAeM5+PfBgwfnz5+H+Fu2bCmRSNauXQvLynG5BNSlsWQJnglptVr8VNWsWbOsb1S2OXiErXdCOYkAEbAhAZIlG8L8lSueLCmVSmdn56cf+tu6dStMghUXFwtl6datW+PGjYOhCaxNOHDggMkBDSsw1iwQLywsPH/+POwdB/d+/PHH+fn55dXJ3HAhNDR06NChEAm8fHr+/Plf1fO/B40lSxD5a6+9BtOMHMf17t374sWLuEf7fwO09D9+DcRSJrpGBIhAgxAgWRILMytL8L0iWMzm4+OzdevWjIwM+FQuT5l27dqlVqtVKpVarVYoFOPGjbtx44ZJzaitLBmNxtzcXNzkG7rvTZs2lZeXw4d0hSBKSkpWrVrFFrRgwYL09HRhTqPRWFxcPG7cOBAwlUo1ePBgNhsuKKioqIA98SIiIuCj6VKptGXLlpMmTTL53lJVVRWMGmHEJny2BKWcOXMG9reFh2djx469cuVKjcqUn58fHh4eHBxskjAbP9lEgAg0GAGSJbFQ82RJIpHAcx25XP70Q3wbNmwQyhIMleRyObwkxHHc8ePHU1JSIET2QY7RaGTVgh0tWZiJMhgM27Zt69mzJ7y6JJFIVCpVYmJiWVmZyQGZv79/586dcf/AF154ITg4+NGjRyaRgSyBeKhUqldeeYXNJpSlsLAwkCWZTAbvLVmWJRA8c7KUl5cHU5Sw8EGr1b799ts1KtOuXbsmTpw4ffp0k4tK2PjJJgJEoMEIkCyJhZonS9hfo5yMHz/+8uXLaWlpRUVFKSkpfn5+np6eHMe5u7vDPq3Dhw+vqKiAZyfCP+fRj/BtHp6AYQ3Ly8sTExM3b96MCx+0Wq1GoxkyZMiFCxceP34MMUdHR+/cufP1119v2bIl5JRKpUOHDj116hS8c4oOWePhw4djxox5+kGQNm3aaLXa/v3741XUJHar1tDQUFgH7+Tk5ObmNn78eKEsFRYWogDDmGnhwoXwYSR0DkZpaemFCxdatWrFYvHy8po1a9aFCxceMOnSpUtbtmwZOnQovLAMM5NQEM8nHRIBItAoBEiWxMLOkyW5XN65c+dZs2a99tpr0MNyHOft7T1s2LCJEycOGTKka9eubJc6duzYU6dOFRcXg8YIlYbNPG/evOLiYpP9Na96xcXFiYmJb775plKpRHGSy+UgTpMnT37rrbf69++vUCjweRLHcTVqktFoTE9PB1mC7r5Xr15YtElZCg4Ofu211/A12FGjRgnf0oVlcrA6HGbn2HEh+ofVGdHR0QcOHOjbty88mUM+Xl5eo5jUpUuXdu3aQRPAfudeXl7QWKxDsokAEWgsAiRLYpFnZUmhUEgkkkmTJgUHByckJEyfPh0/pySRSFAAYESl0WhGjRp16dKlsrKyvLw8c7Lk7u4OPa+7u/vOnTufbllkch05r3qwwOH777/v168fPOvC7tuc0blzZ8vjJCgiNjZ20qRJ+ILRwIEDIR5Wk9jRUmBg4Pjx4+GpG8dxb775ZkxMDGw8wcZcXl4OU45Pdz13cXHZvn17cXExmwHt0tJSvV5/8ODBvn37SqVSWJgHYiaTyeBbtOiK4ziw27ZtO3/+/BqfQmEpZBABIiA2AZIlsQizsgQiNHr0aNgfITc3d8GCBUqlEtY1wFtNoArt2rV7//33c3Jy4GEPuxcqL9B33313wIAB/fv3f/fdd2E3OWu2z4GPEJaVlZWXlx88eHDYsGFt27ZlO2vQFVCsp+85bdmy5Wm0Fubu2Kg+++yz0aNHDxkyZMOGDRcuXIBL5mQpPz//66+/Hjt2bM+ePSdPnoz5WYdgT58+fcqUKaNGjZoyZcqlS5dw/TovJxRkNBpzcnLWrFkzbNiwDh068KqGAyml8v9n78pjmlq+/23TUpqyBhXjmqdP4xrXuDyDT41rXDBPwbhH9BkQDahEQYKoUYGIQFgjKkFFIqBBwShq9ClBwahgRCCoEFEIFkihS7qmvT9+nDjf+24XSqWIjzN/4PR25syZz9T53DNz5ozjhAkToqOj3759aw1urLbwIyKACNgPAaQle2HLpCV4Z/fy8nr06JFMJtNqtY2NjVeuXAn+d4qKiiosLHz16hUzAh6Z1lmKvnv37mFXevfuHchk1mIVJh/J9YMajUalUn3+/Dk6OvrEiROHDh3av3//vn37Ar+ngoKCmpoaa2QS4TRNSySSq1evVlZWEiYj+kOGeOKpVCqFQvHp06crV668f/+elGdKI/m6urqioqI3b95AeFny3DhDmrt169aFCxeioqLC/50CAwOPHz9+7dq1+/fvf/78WSKRYPAhYxjxCSLwExFAWrIX+ExaAktowYIFjx49gh0gg8EgFotrv6cPHz58/Pjxy5cvbW1trC0iMs+yFG1vb+/oSu3t7Sb96Fjl4SPcQEjuuyPndT58+FBbW6vRaL5rVNva2gpdMCnH3EOdTicWi5VKJVGJ6A8ZMNe0Wq26K8nl8sbGRplMxuo1S75SqRSLxUAhrK+YH6EJ8gSorubfqaqqSq/XNzc30zQNLoisWqQ6ZhABROCnIIC0ZC/YWbTE4XDmzZv36NEjpk8d8z3dnB5kWmcVUKvV4BHQozUoIo3ckKtQKNRqNStkA6utXvzINNe0Wi10wdihw7hFKGn8nPnEpBzgP/IXTk3p9XpyMy9TAuYRAUTgpyOAtGSvITCmpTlz5hQVFTGBLjZ3AAAgAElEQVRpiZCEBSXMlSFsRDIWhDC/IgKBIRQKRVtbG1MrZuFezxNagnPEOp3Owv4Zs3WgcIiWxHzOzBvTEhhn4OhBTi4DDcMelXEVpkDMIwKIQN8jgLRkL8yNaWn69Om3b98mq1s/2DCRQzI9FQgTPRBSn83OTFLsqYnWrZImC5BuEkYES9Gc60RPYcTyiAAi0LsIIC31Lp7/k2ZMS1OmTMnLy7O8ifK/+t3liH1DMt3VYH8PDAFPTU7o7Aq9+plwkpVNEz7rKZ2QioSfeiqhV/uNwhABRKAbBJCWugHI5q9hpejevXuTJ08GlwegpZ6uuZlTgMzmJGOupLnnP5eWCFtYqT8p31NSIRVJpqcSzAGIzxEBRMAeCCAt2QPV/5cJ+/nGtGTNoVd76YRyEQFEABHo9wggLdlriPR6vUwmy8rKGjduHFhLkyZNun79OtKSvRBHuYgAIvCfQABpyS7DCJvqKpXq06dPCQkJ69evX7NmTXR0dHNzM9KSXRBHoYgAIvBfQQBpyS4jCdsY4CMH8dakUim0hLRkF8RRKCKACPxXEEBasu9I6vV6Jg+xPtq3bZSOCCACiMAviADSkr0Gjfh9gc0EH3U6HZOl7NU2ykUEEAFE4JdFAGnJXkNHaAmincJHtJbsBTfKRQQQgf8KAkhL9hpJQkskjAI8QWvJXoijXEQAEfhPIIC0ZK9hJLTEyiAt2QtxlIsIIAL/CQSQlvp6GJGW+hpxbA8RQAR+KQSQlvp6uJCW+hpxbA8RQAR+KQSQlvp6uJCW+hpxbA8RQAR+KQSQlvp6uJCW+hpxbA8RQAR+KQSQlvp6uJCW+hpxbA8RQAR+KQSQlvp6uJCW+hpxbA8RQAR+KQSQlvp6uPqAlkzeYGTyoT06b/O1hD+uDKuPLNd82+ST6wptq/7jtQiecI0h6dSPS0YJiED/RABpqa/H5T9PSxDVoq9hNdUexHEns7mpIt0/02q1wATdF7VPCQheRdO0riv9dJq0Ty9RKiLwPwSQlv6Hhb1zCoWirq6uurqa9VLfbbsGg4HMTd0WhqtXZV0JCnd0dEilUvLSbY0E4zJPnz79+++//f39k5OTv379alyA3Lr7g7fCFxcXQ8x1G+hNp9M9efKksbER1IObGHU6nW1TuVarValUpLpxl+3x5PHjx6GhoatXr05OTq6urqZpmuCp0+m0Wu0Psqw9dEaZiEDvIoC01Lt4mpYG0+KbN2+ys7PDw8Pv37/f3t7e7bQLL/s9IiRonjAQtAsPe8qFzJ4oFIqkpKQhQ4ZQFDV58uS4uDilUmlOf5vNQbFYfOPGja1bt166dMk2bTUazYEDBy5fvqxSqZRKpUKhUKvVhFd6JPPdu3cETGACJiB2yhsMhocPH27evFkgEFAUtWnTppKSEoKzXq/X6XTQix71xU7aolhEwE4IIC3ZCdh/iQWe0Gq1TU1NgwcPFolEBw8elMlkhD/+VZrxwWAwtLe3Nzc3d1uSUYnW6/UKhaK1tbWuru7r168ajcbKZSjmZMeqcv/+/QkTJsA1u3/88UdJSQlp0WAw6HQ6tVqtUqlsIFGQo1arz549O3bsWEdHx2nTpl25coXItz6jUCiEQiFFUaNGjUpLS/vy5YtarSabMczeWZZZVVU1e/bsgICAqqoqYjBZrtIr3wIDVVRUzJ07l6IoHo83bNiwwMDA9vZ2lnwr+9Kjnw2rCfyICPwsBJCW+gJ58sIrk8m8vb1dXFwEAsFff/315s0bmUxmWYPc3NyQkJCkpKTm5mbLJcm3MpmstLT0zp078+fP37dv35s3b8hXljPMyQ52MqC8Xq8vKSlZsWIFj8ejKCoyMtJgMJCLDaHMt2/fCgsLIyMjw8PDQ0NDjx49GhIScti6tHfv3rVr1w4dOpSiKBcXF4qi3N3dk5OTLWtr/K1UKnVxceFyuRRFOTs7p6WlKZVK42LmnpDu79u3DwjYx8enuLj4R+jWXFsmnwOL6HS63NxcLy8vR0dHiqI8PDxSU1ONmcmkBNZDpCUWIPjxl0AAaakvhonMdzRNf/nyZdmyZTDrLV++/OnTp5bnDl9fX5FINGLEiNDQ0CIr0suXL/Pz80NCQtzd3aGV9evXw25Nt10FTWDrCFau1F1Jq9USWlq8ePGXL1+MRb19+zYgIIDD4UCjFEWJRCI3NzcPDw93d3e378nV1RXsAIqigD/cu5JIJHL6ntzc3CiKWrly5bNnz2Cr37g5k0/a29sJLXE4nIyMjJ5ab1++fLlw4QLpAp/P9/f3f/r0KQDIsiBN6tBbD8+fPy8SiUCTsWPHMtdjrWmipaWFpumedt8ayVgGEbA3AkhL9kb4/+UzaUmhUMTHx8OMw+VylyxZwjI7WAoFBASMHj2aoqjRo0c7W5Hc3Nx+//13mM64XYnP5xcVFbHEsj7CPhax6ljf6nS6bmlJr9c/evQoOjo6LS2tqqrq06dPLS0t7e3tUqm043uaPXs2sNGgQYMSExMbGhpaW1vBO0MqlbZ/Tx0dHTKZDFbPWJpY/tjR0UFoKTAw8MOHD9awGlnlo2n69u3bCxYscHV1Bcrk8XgjR468cOGCOWQs60PT/7+gSjzoui3M/J3U19fv3bsX1iSHDRumVCr1ej38tYYdQWGb9/m6VRULIAL2QwBpyX7Y/k8yc7qhafrFixczZswgRgO82P6v9L9zBw8eBLtnypQpSVak5OTknJyctWvXjho1Ctay9uzZ8/XrV8s2GZnptFqtTCYrLCwMCQlJT08Hy4lJS15eXiatJZlM1tiVZDKZRCJRKBT/7sf/f5o2bRpYUWfOnDHpzmdcpUdPOl0zPDw8gJKvX78OOlhpZxgMhtu3by9cuNDJyQnWKqdMmbJ79+4zZ85YvwpqrK1ery8uLj537lx9fb3xt5afPHv2jKIoT0/PQ4cO6fV6jUajVCrBvdDyaNI03dTUVFtba1k+fosI9E8EkJbsNS5kogdrifmxvr4+KipKJBJ5enq6uLi8fPlSIpGY0+Po0aMURXE4nKSkJK0VCebiR48eDR48mKKohQsXNjc3W+P4BwoolcqysrKtW7dSFDV9+vR79+5pNBomLf3xxx9fvnwBomXRLawagRecyU0dmO65XG5TUxPAolQq5XK5SqXSaDTE+5n4QDNBM4cP87lKpYJeUxQVHx9fVVVFwGcWM5kvLi5evnw5h8Nxc3NzdXUdPXp0cnIy8XpnmbwmJZh8qFAozp07N3369Li4uJ4yk1Qq9fDwWLhw4fv372mabm1ttXJRrra2NjEx8ejRo4CzScXwISLQbxFAWur9oYHJFP6yZlji8/3q1SsHBwcwmGARr62tjZxQYeoUFhYGr/9nz54FVoLzK5quRBaX9Ho9fAszaW5uLqz/rFy5UiqVwqa9NbM8uPBt3LgRKMTLy+vr169MWpo5cyYsTKnV6vb2dq1WK5FIKisrmTqz8jCZyuVy6EhUVJRYLIblNaWpRFiK+EOzBJr7qNVqx40bB60ALZmjT6YEmUym0Wj8/Pyg4ogRI5YtW/b27VsWBxhzMFOIubxcLo+JiaEoysvLa//+/WlpaSe+p5MnT57qSie7UmRk5KlTp6Kjo8+ePRv67xQbG5uampqUlHT27NmYmJhDhw4dPHgwKioqkpFOnz596NCh8+fPnzlzZuHChRRFCYXC5cuXv3r1SqFQaDSabg0sc13A54hAHyOAtGRfwJlbC7CaBIc05XL5sGHDJk+efPToUZigCwsLHz9+XFdXx7IzIiIiWLQEVgXRWy6XA/mxaAnOvhBagim+27lVrVa3trZu3Lhx0KBBTk5OgYGB0AWytzRr1qzW1lZoXSqVHjp0aPXq1bNnz75586ZMJoNzQnK5XPE9kY33+vp6iqJ+//334uJiqVQK5KpSqdRqNWgOREvolrA76Wm3GYPBMHHiRCYtQRVzvQb3tn/++Wfv3r1Qy83NbcOGDbdv3zauYvykW32AfYODg+G815EjR65cuZLw75SamhoeHh4TE3Pnzp3MzMzk5GTyfeL3dOXKlaSkpLi4uNTU1MzMzFu3bqWlpSUnJyclJSUmJkL5+Pj4uLi4O3fuXL16lcPhODs7Q492796Nq3ndjhQW6FcIIC3Zdzh0Op1Go1Gr1bAUBlMb2Ex///13ZmamXC6nafrZs2fDhw+fPHlyfHw8CVIAmh0/ftyYlsBIevXq1ZMnT5qbm5nMRKwlPp8P/mxSqVStVgMpdju3arVaoCUnJydnZ+fMzExgTUJL06dPv3HjxuPHj+/evRsWFgY2H0VRixYtqqiooGlapVIBJcG6HPRCq9UWFhZSFOXj4wNPgH5YC3fAr1buBpkcucmTJ8OaJ1nEs7D+ptFoPnz4sHv3bicnJ4FA4Obmtm3bNoitoFAobPAXYMELx862bt0qEokmTpyYm5tbVVX17t/pxYsXGRkZCQkJeXl5jx49Ki0tfd2VXr169fLly9evX5eXl1dUVLx58yYvLy8+Pr6goACevH37tqKiorwrVVRUvH//vra29vPnz/n5+fCDAW/7RYsWFRQUwLiYRAwfIgL9DQGkJTuOyLdv3/Lz8xMTE08yUkRERFRUVGJiYlBQ0KlTpzIzM7Oysv744w+YSiZMmBAaGsrUKTIy0iQtKRQKX19fHo/n7e1dUlIil8vBTesHaUmn03V0dGzZsgUazcrKUigUzEU8iqJmzZo1depUcOMGFwMHBwc3N7czZ87AgiHoD2aWVqtVq9VtbW1JSUmDBw+OiYmBb7VaLUz9hIpYGSYI1uenTJliPS21tbXt378fyru7u0dFRREqApvVttNCRFu1Wp2SkgJMOW/ePNjrIt9CRiaT3b17F34AS5cuvX79OnOLjkntsbGxQ4cOnT59emhoaENDAzCNqiuR9caWlpbLly9TFOXg4BAWFtbY2MiUwGoaPyIC/RMBpCV7jYtWqxWLxfn5+WFhYZs3b/77779PnDgB6zCpqakXLlxIT0/PyMjIzs6Ojo4GxzwIT7B7926mTiZpCaYhf39/gUDA4XBmz569f//+lpYW4ACapnNzc2FzqKeLeHq9Xq1Ww6IWj8fLzc1lWUs8Hi8qKurSpUuXu9Kl7ykhIaGhoUGhUCiVymvXrh09evTFixcGgwHm907iPHz4sLe3982bN5m9gzy4meXk5GzatCk4OLigoAAiBhmX7PZJt7QEHNnQ0PD48eP169c7OTmJRKI5c+acPXsW5npogkQt6rZFVgGm5p8/f543bx74mkdFRZHFT2YVtVpdVVW1YMECiqL4fP7Zs2eZ3zLz2dnZMKbjx4+PiIj48uULcBL8BbP75s2b69atmzNnzqVLl8A9HcjegsnIbALziEB/QABpyY6joFQqX7x4kZKSkpSUdPny5cLCwidPnhQzUlVVVUNDQ1JSEpxMgsNJR44cYepkDS3B4hj4bRNryTZaggVGsCF4PB6wCNNaWrdu3efPnzs6Otra2lpbW9va2iRd6du3bzRNq9VqpVK5bt06iqJ8fX0fPnz44sWLkpKSY8eOzZw508vLKzIy8mlX+oeRKioqMjMzFy1aBBaYt7f348ePbdui75aWANubN2/+9ttvsM65devWpqYmJidptVpYdGUORI/yOp2utrZ23759sMMnFAofPHjA2jUkApuamtasWQMxHc6cOUOeszKEliiK2rVrV2trK6ElYi1lZGTMmTMnNTWVtZyItMQCEz/2ZwSQlnp/dGBmhy0lpVLZ6Rcgk8mIyxyrvU4Xg8DAQHihnjJlyq1bt1gFrKElPz8/sq3947Sk0+kCAwPBSxD0YdESTIItLS3GnnJarVYul8OxWScnp6FDhwqFQgi2BKuCfD5/ECOBNzYJZwBlKIr6+++/yXoaCxDLH03SEpm1wYBITEwcN26cg4MDj8c7cuQIECoRS3wabeNFvV4PR7hyc3NJFMGJEyeaNJWgUUJL69atg50togwzQ2hp8eLFlZWVOp2O0JJKpQJr6d69e1u3bnV3dz99+jSzLtISCw382J8RQFr63+gYv2D+7zubcmQ2NCdZp9NVVVXNnz+foqghQ4bExMQYH2CyhpYiIyOJguZoyUqXB5iUISgcj8fLz89nLeItX74c+vXlyxegJbiRCBSASXn79u0URQ0bNmzDhg15eXkZGRnxXencuXMnTpwICwsL7Qqad/To0fDw8IiIiNjY2OTk5KVLlwIt+fj4PHv2rLW11RqPdtJxyJikJcAECoSFhcF+2OjRo8PCwuAsEaFAcFEBd2rbaAlakcvlN2/e9Pf3X7p06bp165KSksyZSsxFvD///NPk/hPIJLS0YcMG6BGhJblc3tLS0tzcHBUV9dtvv8EhXB8fn/fv35MdO3M/QhCOfxGB/oPAQKclVoQFXVfqreExZyER+VKp9PTp0xRFOTo6Tpw4USwWSyQS1vTRx7QEdzuxaImm6dLS0tWrVwsEgvnz5wN3dnR0EN4lPYLteqjO5XJv377N/AoYDiZT40mfuMLHxMQolUrgBhYaLGnGHwktJSUlkbpwxFgsFh88eBDeALZs2VJUVPTx40fmWTHio0HuwjCW36MnlZWVMTExmZmZjx8/fmgmvX79Oj8/H/zax40bd/r06a9fv758+fI+I71+/frr168hISFA21OnTs3Ozn779i0sh8LfBw8enD9/ftasWQKBwMnJCYI8bd++ncQV7OjoIID0qBdYGBHoYwQGLi1B8E0rbQjbRsXyLCCXy1NTU0ePHs3lcseOHZuamgpzOqtWH9MS9BSO2hBriabpqqqqzZs3Dx48eN26dSSIn0KhMBgML1++jIuL+/DhA2Epc7T09etX6B2TDAi2vUtLJ06cAD3BSzs/P3/ZsmVCoXDy5MmXL182GRsJ2AjMCxsMNdIRkrl69SrQpIODg9AoOTs7u7i4jB8/Ho4Aw96Sm5vbqFGjgFfIkqazs/Ps2bOFQqGTkxPshw0aNMjDw8PJyUkoFAoEAgcHB1gHJlUg4+HhER0dDf6Exu8BRE/MIAL9CoGBS0s0Tbe1tT1//jw1NTUnJ+fu3bv19fV9+V9XLBbv378fZhNfX18wQYwV6DNaqq2tbWtra+pKPj4+sLcEi3hMawn2P8iyWE1Njbe3N4/H8/Pze/HiBTCTOVqiabq+vr62ttbkihbQEofDIdYSa++KRdgm/yMRayk+Ph5o6cGDB2fOnFm8ePGUKVM2b96clZUFz5lbSiCZvKMAJ5HmwOo1HhqTCjAflpaWRkREbNu2LTg4+LiZdO7cucjISAhgOGjQoIMHDyYmJsbFxZ3rSjFd6fTp04WFhbt27QLPb09Pz/Dw8JSUlDNd6ezZs1FRUTExMbGxsUlJSenp6RcvXszIyLh69WpMTExpaSm87sDZXqZ6mEcE+icCA5eW9Hp9Tk7O+vXrPT09nZ2dZ8yYERER8eTJk74ZJ7lcXlRUBLtKndbStWvXzLXbN7RUW1ubkJDw8uXL4q40c+ZMJi01NjbevHlz+vTpFEXNnz+/sLCwurq6o6Pj6tWrq1atIm/ofn5+ELR73759HA7HeBGv8whUeHj4hg0bSH/J1N/pjAC0xOVye4WWCgoKQHh4ePiQIUMmT56cmpoqkUjA89sc2iafA9cSW9BkGZMPYctKpVKRfTJCeMyOd7L1jh07KIpasmQJkIdEIunoStKuBPHUnzx5IhQKHR0d16xZY7I55kNylYnNyjOlYR4R6EsEBgotwXRA3r7LyspWrFjh5OQEsydcAAF/t23bBmtNrImjt0YFpiqpVLpu3TpYq8nIyLDgptUHtPT8+XNw6QaC4fF4jo6OEOXBpSv98ccfLi4uw4cPB9tu/Pjxw4cPd3d3h0M/Dl2JoqgxY8acP3++tbXVHC2p1epNmzZBK56enllZWUyQLdMS+DdCeHJwTG8zSnK5fOTIkRRFCQSCpKSkJ0+eJCYmLlq0KCMjo7y8HEIcQVwJZrtkZOFHQj6SDNh24FpZV1f35s2bz58/0zQNVhcxHEl5KzOwBErT9MOHDyG2+uLFiyFaOfFTAAMODpNdu3YNoFu+fDkrBiucYrYQ+M4GU8/KXmAxRKDXERgotATAwQWvr1+/3rlzJwQNc3R0BEdh/vfk6OgYFBTU1NRkw9uxlcOj0WguXLjA60oikYj4dpus3ge0VFdXd+3atb///nv37t0BAQGdYfoiIyNjYmLAfS4+Pj49PX3Dhg1AS76+vqmpqRkZGZcuXUpLS0tNTU3pSnBGGGJdW0NLc+bMefDgAbPLJmmJTNDMkhbycC6Voqjs7Oxv3741Nzfn5eV9+/YNpmxyIAmuh7Agh3yl0+lgI0qj0dy9e3fp0qWzZ8/uDJMK7hukmG0ZYIsHDx6sW7du4sSJFy9eZMWVAMdI2Iq7c+fOyJEjFy9eHB8fD0u+4BRO07REIoH4tuboxyQN26Yz1kIE7I3AwKIlYJq9e/eKRCJ48Sch3eA9FP66urqmpaURp+FeH4N//vln8eLF0Na4ceOUSqVKpSITB2tmsUBLcE0cn89nHlKBl3fjKA9k48Rcd1pbW8VicXt7O0sBmqY1Gk1aWpqTk5OLi8uxY8fq6+t1Oh0zdh/4hZObF8zRklarJWGNDh06xHrlN0lLBBZQGwLdEsdoVqahoWHmzJlwjjgzMxMupIc9JIlE0tLSolAogJBYYs1hAs/Ba7ykpATuV+TxeJ6enikpKd++fevW2dKcZLhuCiK7V1dX5+fn5+XlMZEH043oqdVqa2pqkpKSHj161N7eDs8hYsXnz58NBoNlWjKnBj5HBPohAgOLljQaTW1trYuLC7mxm6Io938n8K+dM2fOvXv37DFgEonk5MmTwEkCgWD06NE1NTVMFwDm3NSpgAVa8vf3hxijJGKNwWCwmZbgqKm5Lqenp8NRJIqiYmNjIcoRsAKEAGdWNEdLOp0ObnKiKCohIYHlSmCSlgganz9/fvnyZUZGRrT5dOnSJScnJ3jhAKvi+vXrR48ejY2N7YydERkZmZmZebIn6dSpU3DQauPGjVwu19nZ2cHBAdwTKIpKSUmx7TLD3Nzc/fv3v3v3DkBTKpWst4G2tjZCS8BAcHsva8FQJpOlpqZOnz6908ZFWmL+AjH/SyMwsGhJq9Xm5+fz+XxXV1d4p4ZracB318HBAbxvO53BhEJhRkZGLw4tmV4vXLgwdepUoVAoEokEAsGwYcOOHTsWHBx8/vx5mKfUajV5R+5UwBwt6fX6PXv2OHWlzssRYIrX6XQ/QkukvxBaGz7CDsqlS5fgrtv58+dXVlbCDg05fAqhesAgo2naHC2RvX0mLZHFUsu0pNVqKyoqjh075u3t7efnd/Dgwfj4+Ix/p6KiInjnoChq6dKlaWlpELsvPT39woULsNgYFhY2aNCgwMDAq1evxlqRIiIikpKSQkJCFi1atJCR1q9ff+fOHfBlILhZmQkNDXV0dFy2bFlQUFDYvxMcNA4JCTl48GBwcHBnqMN9jBT477Rz585JkyZ13nno6uq6du1aSZejhM0GnJXKYzFEwN4IDCxakkgkV69eBVMJGAjyPB6P25Vg957TleLi4nodfZlMBgFpyMGUoUOHenl5DR8+3MnJac+ePcXFxRKJBO7GBnIyR0symWz79u2irnThwgXYfmCGagWjAUK1Wn+xBXS5oqLi9u3bZWVl5C0e4lI7OzuvXLmyrq4OgtlAdGpyQxKhXgu0tHPnToCXWEtkGrVMSzRNV1dXnzhxwsfH5/z582lpabdu3Xrw71RaWjp06FB44Thw4MCzZ8+eP39eVlb24sWL58+fl3SlCxcucDgcPz+/qqqq5xbTs2fPnj59eu/evbt37z5//vz9+/efGOnZs2dtbW2kyz36qfj7+4O57OHhAVuMrL8wdhDaXCAQwOEkASPBa42zs3NnnCHor5ubG/iC90gTLIwI9EMEBi4tQQxNmB3IXw6HA//JORxOr9PS06dPDx06RFHU2rVrO28phUbXrFkjkUiOHTsGH0ePHh0aGvru3TulUgnztTlaampqWr9+PdQi50PVXYmm6by8PPgKaEmj0ZBFoW5/hTKZDBhCKBSePn0arKWMjAywlvbu3Qs77bCfAURIrCUQboGW/Pz84A3ABlpiRmEw2YumpqZp06bBfmFKSopYLO7o6FAqlQALeOJ9+fJl9OjRO3bs+Pjxo0khxg/hLYE8Z9qy5GGPMnBamaKoHTt2mKtYV1cHyIMFDLdYyf+d4uLiwGdn2rRp165dIwRvTiY+RwR+CQQGFi0xF/HgSgiYu43/9uIinsFggKiakZGRjo6Ow4cP77xAT6PRQKMrVqwAT6rNmzfDApRAIAgLC3v37h3EmjNHS/X19eTMULe0BKKAmSz/LsnttBB0YO3atWVlZTRNE1o6cuQIeKaBx3aPaEmv12/fvp3L5fJ4PBtoCUw0Zi+U/04KhWL27NlAS8nJyWKxGHwcgM9IxfXr12/dupWcFLYMCNyia4GKyCKkZTnMb8lLSVxcHMtrg3z89OnTjRs3nj59Ci4nGo0Gdo+AYqHY9evXIcTDpk2b4PAD8c1jNod5RODXQmBg0RJN05WVlbBCIhAIeDweh8Mx5iQOhzN+/PjePVp7+fLlqVOnUhSVnJwMExk0PX/+fPjFvHv3DjSB52FhYeDTfPToUVhv3LZtGzl5A/wK+wpOTk5hYWFwqwVZU8rNzQVpEyZMuHfvHpmRLf86wTu5qalp48aNcMfE5MmT4W5TQks7duxgOjHrdLo7d+74+/vD5j9M3+asJalU6uPjw+Fw+Hy+lbRkgQ+M+6JQKObNmwd2cFJSUktLi8nqnRe8rlu3ztvb+9OnT1qtlpw8NRYIT0wKMVfYmudRUVHwIzx+/Li58iEhIY6Ojh4eHjExMXCbH7kCCphSq9Vev34dlp2BlsyJwueIwK+FwMCiJZ1OJ5fL/f39O69S7bxyzcHBwSQt8Xi8+Pj43grW0tHRUWGIgVEAACAASURBVFhYCK/wp06dgpUZuVwOtDFr1izyi4mKinJycoJVREJLJOQM+L8RZjp//vzw4cMpigKvZQhIU1paCl7ROTk5cKrUz8+vpx2Jj48fPHgwRVFDhw7Nzc1lLeLt2LGjra2N6KzRaOAWjJ07d1ZUVBgMBo1GY46WWltb169fb1damj9/PpOWiJ7MTHV19erVqx0dHVNSUpgHY5ll7JqPioqCVw0LtLR7927w/XN1dV22bNmDBw+AlsBIBfsPacmuw4TCfxYCA4uW4LW3qqoK5nqBQED2lonN5Orqum3bNpiLf3xUFApFZmbm2rVrRSJRcHAwiAVnuWHDhsEF5NCKQqH48OHD4sWLBw0aRFFUWFiYUqk0GAxJSUm7du2Kior6/Pkz2VzRarUkLoO3tzfwk1AoDA8PB2mVlZWHDh2Ki4t78eIFWfuypjtSqXTFihU8Hm/IkCGpqanE/AIHcUdHR0JLsJPx6NGjhQsXwiQbHh4O4Sos0NKaNWu4XG7nJesJCQkwHMQWMenyQL61RnmFQkFoKTExkRUenikBonHDjXnM532TN6YlMGeBckCHzZs3E9+cw4cPQ1QnggacMmbSUt9ojq0gAn2AwMCiJZqmOzo6pFJpSUnJiBEjOg+igg8euDxxulJoaCjTGviRMejo6MjMzFyzZk3n6d1Tp07B6VG5XA57M0xrCa6T6NycDw0NhedhYWEKhUKv13/+/BnWcEATKKnVakeMGAEhqENDQ8ePH09RlIuLy/r160kxoA2pVEresrvtC9z/5OrqCrHvYN8ItitgO8TBwYFJS1qt9sCBA4TRFy1aVFRUZMFBvLW1dfXq1TweD2iJpU+v05LJkE4ws5eUlKxevZrP5//xxx81NTUsTez90RwtwWsHtL5z504ANiQkBEKbM7UCX3ykJSYmmP/PIDCwaIm8kxoMhoaGhpycnEWLFjk5OQ0bNmzkyJHBwcFPnjypqqoiofN+ZJilUun9+/fHjRs3f/78ixcvkikSXKpommbSEhxlhZP8ISEhEyZMSE9Ph+U44n4N8yn8lclkUH3QoEGZmZkrV67kcrlz5swpLi4GncHPAuK2WUlLer2+urp65cqV7u7uHh4eubm5cEUeCIyLi4OX96NHjwJdqVQqiUQCMej4fP6uXbvKy8shNIY5a+nDhw+TJ0/m8XgrVqwAM46JcN/QEth/crn8/v37gOHy5cv72FPAJC2BAQQvE0VFRZMnT+bz+VwuNz4+nowpEy6appGWWIDgx/8GAgOXlgwGQ0dHB5BTXl5eVlZWeXk583X1Bwe4tLT0+PHje/bsgeilIA2iMBhbS7DORtO0XC6vqam5fv36t2/fSIRQcL8GQoLJ68mTJ2RKFYvFQEtz584ltAS+f1bSErC1XC4/cuQIiD1w4IBEIgE9YcqOjY2Fr3bv3g3WZGtr6+nTpyHcbSf7wuYHdNMcLd27d2/48OEcDmfHjh2syEOdxNw3tESGVS6Xg7++q6vr1q1bLVwLS6r0VsYkLcEoAGvGxsa6u7tTFDV79uyIiIiLFy/euXOnrq6OGQ0Eaam3hgPl9DcEBjQtwYJYt45Yto1ZTk7O6dOnYUcdJOj1evDrNUlLUAZUgjxYHmAtkdCier2+rKzM19eXoqgRI0bAotnKlSt5PN78+fOBlsBTCw7YwolXy/YfTIhisRgWjqZOnXr37l1Wr6OiooCWDh06BLSUnZ0tFAopiupkmpMnTzLLm6OlAwcOwC5UbGwsszzkmbRkjdrGElh7S8RCNS4JT96/f798+XLo199//91nzHTmzBnY1CR7gTAEoJVOp5s5cyYAdeLEiX379o0ePXrQoEEbNmwoLS2FIK1Q8tq1a3AO18fHhynBXH/xOSLwSyAw0GmJucnciwOm1+vlcjmc5SRiIcyooisZL+KRYiTDoiVwK9fpdPn5+WPGjOFwOL6+vuA9sXLlSgcHhwULFhQXF8PpS1i4g/vfug1OajAY5HL5rVu3wHUiOztboVCQ6Q/cwQktpaSkwCJeQEBAZwwhNze3wMBA0Jm4/JmjJXLQity3RNM0uLazrCXQmThcEEwsZ3pKS+3t7ampqcOGDXN0dHR1de0zZjp9+jS4gB47dsy4R2q1mkQQrq+vv3nzJpwhA7SvX79Ohubq1atwNnnjxo3G+0/GkvEJIvBLIDCwaMnckMD6mLlve+s5zOZKpdKCtcRsC4qBtQTWA03TCoXCx8cHvPjOnTsH1MWiJaVSScIuQBxVnU538+bNpUuXGgcCAHc1qVQ6Y8aMOXPmnDp1qr29XSqVgsOFXq/XaDRSqfTmzZsnTpxIT0//+PGjQqEICwuDVaalS5cWFhayjpT++eefYIKwrK6xY8fCc/AyYMEeHh4OlzzduXOnk6VguZIJSLf5ntISTdMfP348duwY4Oni4rJ27dorV65029APFuiMAAs4hIWFsURptdqHDx/CobGpU6dqtdpHjx6R4LAbNmyor6+HdxGDwXDlyhXw09mwYUPnoJi8ip4lHz8iAv0fAaSlvhsjCGxqzuXBWA/m3hKQE03Td+7cGTt2LCwB3b59G2qxaAnCAcDrM1kN27JlC5fLhXB2zLb0er1SqUxISBgyZMjmzZvJ7gUsCoHOcME8ucmiqKgI3B8mTpz48OFDpjTIjx8/3tXVdePGje/fv1epVDKZTC6X19XVwav9mDFjwK6SyWTMuyFSUlLmz58fHx8Pvh7GYrt9YgMt0TT99evX+Pj4oUOHAlV4eXl1HhBmXqnebbs9LUBCyIeGhjLrqlSqb9++7d27t9NT0c3NDe4refnyJUQYWrlyZWVlJZTXaDTt7e2ZmZmg819//SWTyYCuaJqGlxWmZMwjAr8QAkhLfTdYsOXDoqXp06eb0wAYAuwVoKXW1tYVK1Z0Xi3h5OTEdGQ3R0skHIBOp/P19eXxeMYuZxKJJCEhYdSoUV5eXrm5uWSBiDiGabVaCPEDL+OvXr3y9PSkKMrDw+PcuXNgJ8FqG3HK6DwXHBsbSxziaZoWi8UQn9TNzW337t0ZGRmHDx+OjIx89eoVmIAAQllZGZlbzcFi4blttATHBo4dOwZehcC427dvf/nypYW2fuQrElCq87oNsAuJtKKiIthVGjNmDABYWFjo6urK5/Pnz5/f0tICziwdHR2dbpAQP5eiKG9vbyYtKZXK+vr6rKysvvd9Jx3BDCJgMwJISzZD1+OK4OanVquZi3hTp041J4gYLmQdLzU1FThp0qRJYLuIxWKNRmOBlnTf0+7duwUCAbF4SKOfP39OTEzctGlTdna2Tqcjl+Z9r/f//8LCY3t7e2NjI/Dib7/9FhgYSBw6wKUCvNIhnE9TU5NcLv/69Svw1j///CMSiWBuraio+PjxY3Jy8rZt21avXn3o0KF79+6xHE+MFxuJwhYy1tMSWIEtLS0kCnhDQ8O5c+cmTpwI9odQKJw1a1ZYWFhJSYkxaBZ0sOYrFi2RzhoMhh07doACJCTu06dPKYri8/leXl719fXMnUImLUH0P9L6/fv3165de+vWLfIEM4jAr4IA0lLfjZRJWho1apQ5HypCSxCsMysra/To0RRFTZgwITMzE1wn4K81tLR+/Xo+n2+ytw+7EusrsJbgLywKffjwYdWqVbB+uHjx4i9fvjDnUxK5Fa5iItU7T9e2tLTs3r2bw+E4ODikpKSAN/ynT59CQkIGDRrE5/NHjRp15coV4jGhVqshaDe5wImlm7mP1tAS2dAqLS2NiIgoKioi7X779i0uLm7MmDEQtwkuhFy5cmVaWhoYkbC6aGxxgj5Esjn1yPMtW7Y4OjqOHz8+Ozsb3FLA3KytrV20aBGPx3N3d79+/TrQfKdLJ7jbLVq0qKWlhUlLFy9enDp1amBg4Nu3b5kuD3q9PiYmxtnZmSzzkqYxgwj0fwSQlvpujGDiZllLI0aMMDf5MmmpoqJi7dq1YCpFR0fDqhr5aw0twf2qJqdUWVdiAQFkSSizpqZmz5498CK/atWqT58+QXnoFHQBeBfmR0JLarX6+vXrU6dO5fP569ate/bsGVRUq9X19fVnz56dPn06RVFDhgxZsWLFzZs3m5ubIVo2XCRv/VwPi4HM4EPEQZxsVkGMj1u3bgFiFEUdPny4ubmZ9F0ikWRkZMyaNcvR0ZHP57u7u4NT3MiRI0NCQl69esUcFOBXws1ESLeZBw8epKWlNTQ0gDToo1wuJ97qgYGB5eXlNE2r1eqUlBSIKbx48eLW1lYm/ahUqvLycolEIpPJmEAZDIYzZ87w+fysrKxulcECiEB/QwBpqU9HxPg47dChQ80dKiIzYEVFxfbt2yFWXlBQ0JMnTzqPvhJOUiqV1tDS9u3bKYp6+vSpDdPoxYsXN23aBJzk4+MD1AIv+LDWR2iJsBHJ5ObmLl68WCQSzZkz5+bNm52XOTHdvltbWzMyMiB4EkVRY8aMOXz4cGVlJXhqMKdaa8bJnLWkUChaWlru378fFRW1bt26OXPmLFy4cNeuXQkJCXBtB9PxT61WP3v27ODBg3BhIyyg8Xi8wYMHL1q0yM/PLzo6OiEhIS0t7d69e+/fvyduCNZoSMo0NDRAHtCQy+WJiYkQZHb+/PmPHz+GPTatVktoaenSpUBLxj8YsiNI5IOzn8nzYaQMZhCB/okA0lJfjwu51xxmeQ8PD+NZBnQCWvrw4cOWLVvgnX358uVwfwR4W5G7eayhJYhOe/36dWOfgo6uZAGIadOmQVzzoKAgOHNKFtkILZGZnRASZGbMmEFR1KRJk1JSUmANipAN+KCrVKqioiIPDw+Kojw9PblcLrFgSEkLujG/MkdLlZWVMTExY8aMgRXIESNGpKamMq/noGlap9M1NTXBcqVSqWxtbY2OjnZ1dXV3d+90ioPuw184PwQhGA4dOpSQkMDUwZo8tEL8ufV6fVZWlrOzM0VRw4YNy8rKgkuV4AeQl5cH7S5durTzxkjmIh60ZdICBlo6ceKENfpgGUSgXyGAtPTThgNoycHBgfgLkBBERKcXL14sXrwYtjpCQ0Pfvn1LvoKZC/6uWrXK0dFx2rRpYrGY6apA03R7e7tGoyGuCk5OTomJiUSIyQxEmoAX8PDwcNBz8ODBhw4dam9vh2U9rVZLXM+Z1g+Qk0ajkcvl165dGzNmDI/H8/T0PHfuHE3TxP4j7YKfIU3TcXFxwEzQWV9fX1LG+ozBYBgxYgTEnkhOTq6urq6vr9+/f/+QIUPgeq1Zs2bl5ORUVVUZc7NxKyqVqqqqKigoCJhVJBJRFOXg4AC3NVIUNXr06L/++qtbPIlkmUzW2tpKrEw4Xt1pvEZGRrq4uMCV6OfPn4cCsMFGLhrmcDjgBQ7jSwgbhoM1BDRNw4ndkJAQOBJgkrqIYphBBPoVAkhLP2c4yH1LFEWxaEmpVIrF4qqqqsTExD///FMoFA4bNiwyMpL5dg/XGmk0GqClhQsXUhTl7u6emZn59evX2trakpKSBw8evHjxorS09PHjxxERETCr8ng8Pz8/y32GVb43b94EBwePGTPG0dFxzpw5ly9fbmxsBFpSqVRqtRpoiRmOQS6Xw7T75MmTLVu2DB061NXV9a+//srOzmYdA4ImwMMQGOLbt29w2YSrqyuHw/ntt9+sv9ScdEcikYBZKRKJ1q5du379+gULFsBluB4eHjt27Pjnn39YJ39JXZIh22nw5N27d9euXdu7dy9x0uNyuUOGDAkLC7t+/XpZWRnZZiMSus3AXldjY+OVK1cgniF4spw/f54AxaQluIVr2bJl1rAp+FCcPXuWx+P99ttv6enp3eqDBRCBfoUA0tJPGA6DwVBbW0tuICRzNEwolZWVjY2NiYmJDg4OPB5v8eLFhYWFTC1hcQzuA4SZfdmyZWDTTJ8+PSAgYMeOHatWrfrzzz/XrFmzdu3aJUuWcLlcFxcXHo8nEAhWrVrFlMYMvwTTpUQiuXXrlpeXF9TauHFjbW1tR0eHXq+XyWQsO4m8toNMsVhcXFwMd/3xeDxfX9+KigpWc3CaCuwk6AUUKCsr8/b2dnJyoiiKx+PBDUPMut3mO0NRAA6wIEbs0VWrVrEwtCyK1SlYMs3Pz583bx5FUY6OjhEREYQhiAnI4jPSBJEGLxMSiUSlUrW1tZ06dWrs2LFOTk4ODg4bNmwoKCggRg8zqmFeXp67u7tAIJg3b15ZWZm4K7UwEjRUX19fV1fXueT74cMHlUp14MABgUDg6uo6d+7c+/fvE2Uwgwj0fwSQln7CGOn1+levXpG4Z0BLsMyiUCiKi4vB+nF1dc3JySHuZERRcHgj19RqtdotW7a4uLhwuVw+ny8QCPjfE8zOsKEiFAo5HM7s2bOvX79ORLF8yeBmjW3btsFmxq5du5gexrC4BzMm2Q8jfnc0TT9+/HjJkiWurq6DBw9evnx5QUEBubmKzN16vZ4QG3MZUK/Xf/v2raysDLb9+Xx+aWkpU09r8uHh4VAdyAP2tNLS0phHTa2RwyqjUqlAZ7VaXVNT8/DhQ7AaoRjhEnO0xJRWV1dXVFQ0a9asIUOGAPsuWLDgxo0bhLpgFRSCX8APIy8vb9CgQWTnKdgoBQUFHThwYP/+/YGBgfu60rhx44CS4e/y5cvr6+uZTTBVwjwi0N8QQFr6CSOi1Wrv3bsHU8aECRPgJKlCocjKyoqIiNi1a9fKlSv3799/+/ZtrVYLswnMfWQjgbhiAzndvXv34MGDy5YtW2o+BQQEhIeHP3v2DCY7so8FZNPR0dG5tX769Oljx45t3bp19+7d2dnZ5eXlEGmN7GeQdplO7RKJ5Nq1awEBAcHBwdu2bQsODr59+3Z1dTVzHiQ2GQk8AZoTViNbYhs2bIDIpMRXzfoRunv37vjx4+GaQYqili5dmpOTAw1BkEDrRQE+0AU4PwTgk79QAHBgjguJRght1dXVlZSUJCUlBQUF7dq1a+vWrX5+fosXL16zZs327dtjYmKKioqI4cVSjwAIl11RFAXbZkzKIXnoNVjY5CGXy92yZcvTp0/B254lHz8iAv0TAaSlnzAuGo3m9u3b7u7unp6e5GqDJ0+ebNiwYfLkyWvWrCkoKIDIAuRIDZkNyTkhmMdhzoVVJqVSWWM+GQyG1tZWuLUdlgGh50B4L168CA4OHjt27KpVq65evdrS0kIIiTnnEvIACRqNpri4+OTJk0uXLp06derOnTvv3bvHtCQI+RFiIxIILZEnkHn+/Lm/v/+yZctsG5iIiIjffvuNx+Nt3LgR7C0wdAgZ2yAWMGcOASsPMuEh8dVubGwsLy/PzMz08fGZPHkyUMXUqVMDAgKuXbtWW1sLB63McRJTz5qaGj8/v6FDh0JcIsI6kOFwOBBskMfjgZ3s6urK5XKnTJmya9cu4CRi3TLFYh4R6J8IIC39hHHR6XSdx/LDw8MLCwvhjfjBgwf+/v5Xrlypra0F32tQC8IUESoCMoC/zNkcHI4NBgNxGTfOwOpQe3t7R0cHTKDQhFqtfvTo0dGjR+Pi4l6+fAmiYJcLTBkozGya5BsaGvz8/Pbs2cNc62MByqwOHWFqTkSRDMROZe1IsWSa+2gwGD5+/JiTkwNxGYCKftxQgC5Y+Av6kAI0TUskkuTk5D///HPLli1Hjx5NSUkpLCxsaGgwGAxkYZOmaeLgYK5HzOew/glBNFjPmVGA4TdDjkirVCoyjsxamEcE+i0CSEt9OjRkjlYqleXl5WSKqaqqunTpEtxIS4KfEqdeC7QEsznpA1n2IU9YGeZ6FHzV0tLy8ePHoqKib9++QbRvqVRKZljLmebm5vT09OfPnzOdv4F1SE8J33SbgSoshXv0EXgIQjkAtt0C0iP55tBgCYFGnz9/fvHixby8vAcPHrS0tEgkElCvW1dAljSbP8KKK3O51WZRWBER6EsEkJb6Em2azGsWWjWeSU3SEpnlSXmSsSC826+YmyVEW3MZsvVlLBbUM1fR3HNjOT16QrwPelSr1wtbORA/oq0xgOZ6QUqaK4DPEYH+hgDSUn8bkf+nLpZOVtISq5ZtH8ksZk3Gwo6FNdWNy9imc3+rZTyCJjW0spjJutY/BJCtL48lEYGfjgDS0k8fgm4UgGmF2EbGmd6d3cgsZswZxk8svO8bF7bmSTdY/CJfWzkiVhb7wU4D7D8oBKsjAn2JANJSX6JtS1swrRizEVkls0Uo1kEEEAFEoL8igLTUX0fmu15IS9+RwH8RAURgQCCAtNTfhxlpqb+PEOqHCCACvYoA0lKvwmkHYUBLFv7aoU0UiQggAojAT0MAaemnQW9lwxYICb6yUg4WQwQQAUTgl0AAaemXGKb/HXhisdSvoT1qiQggAoiA1QggLVkNFRZEBBABRAARsD8CSEv2xxhbQAQQAUQAEbAaAaQlq6HCgogAIoAIIAL2RwBpyf4YYwuIACKACCACViOAtGQ1VFgQEUAEEAFEwP4IIC3ZH2NsARFABBABRMBqBJCWrIYKCyICiAAigAjYHwGkJftjjC0gAogAIoAIWI0A0pLVUGFBRAARQAQQAfsjgLRkf4yxBUQAEUAEEAGrEUBashoqLIgIIAKIACJgfwSQluyPMbaACCACiAAiYDUCSEtWQ4UFEQFEABFABOyPANKS/THGFhABRAARQASsRgBpyWqosCAigAggAoiA/RFAWrI/xtgCIoAIIAKIgNUIIC1ZDRUWRAQQAUQAEbA/AkhL9scYW0AEEAFEABGwGgGkJauhwoKIACKACCAC9kcAacn+GGMLiAAigAggAlYjgLRkNVRYEBFABBABRMD+CCAt2R9jbAERQAQQAUTAagSQlqyGCgsiAogAIoAI2B8BpCX7Y4wtIAKIACKACFiNANKS1VBhQUQAEUAEEAH7IzAgaMnQlewNpl6vt3cTKB8RQAQQgf88AgOClvRdyWAw2HU4dTpd3/CfXXuBwhEBRAAR+LkI/DK0BDM+86/1wPUNWyiVSqKe9bphSUQAEUAEEAEmAv2IlgwGA5g1er1eZ5T0er05c8fcc2Y/IW+hpGX5FirSNA3Ld2q12nIxY33wCSKACCACiAALgX5ESzqdTqlUyuVymUzW8T21f08ymczc5k23ZKBWq1tbW1tMpba2NolEIpVKtVqtsXywfiwwFk3T3759KygouHjxYnx8fMT3dPLkyfPnzyckJNy+fbuqqkqtVrNwx4+IACKACCACJhHoF7QEvCKTyS5fvhwbG5uUlJTwPcV/T8nJyVevXr1x40ZLSwurJ8Z0wizw6dOnW7dunT9//pL5VFJS8unTJ4VCodFodDqdtivRNE1oyUIT8fHxixcvFgqFlKk0f/78I0eOvHz5Em0p5qBgHhFABBABcwj0I1oKCAjgfU/c74nTlQYPHgxzPo/HEwqFDg4OPj4+2dnZ0CuNRqPVas310MPDg8kXQqHQycmJoihnZ2dHR0fyFZ/PHzZsWFBQUFlZmUQiAWlkUdGkQZaenj5x4kQulwtCIAMKw194zuFwKIoKCwtrbm42pyQ+RwQQAUQAEQAE+iMtASUxZ3ZCHgKBgMz1M2bMCA4Ovnv3rlKptDCcpC4zIxKJ4COXy3VwcKAoisfjURQlEonmzp177Nixd+/e0TQNO1xATswm3r59e/ny5RkzZjBlOjg4jB079vfff584ceLo0aOdnZ1BJpSZMWNGTk4OUwjmEQFEABFABIwR6I+0xJzNmfM+5F1cXMD+AC5ZtGhRVlaWccfIE5YEYtwwWwFmIiWdnJx8fHyeP3+u0+mAk1jW0vnz54cNG0ZRFNFk7ty5ISEhOYy0fv36MWPGgEwgv6SkJKIVZhABRAARQARMImAtLbHmZZOybH4IwpmLeDwer7IrvX37tqKi4k1XunHjxvHjx127EhAJ7Oj88ccfT548Mdc6IRuKovbu3fvw4cPm5uZnz559+fKlvLw8JycnNTX10KFDI0eOhDU9kOzo6Lhz506tVgvMxOr+pk2bKIpydHQUCoVcLvfQoUPNzc3gNwHldTqdQqGQSCS3b99ev349GFIPHz40pyQ+RwQQAUQAEQAErKUlmqaVSqVUKu3o6DA5U/8IoCZpyZzAS5cu7d+/f/jw4RRFAS0JBAI/P7+GhgaTVZi0FBgYCLtQCoUC3Bngb01NTWJi4pEjR4gtRVGUu7t7cHCwscyEhAQPDw9gL3d398OHD7969QpgIcgQGpPL5f/88096enp2dva7d+8UCoWxQHyCCCACiAAiQBDoAS2ROiqVqnc9nntES+AgFxYWBvYKsI5AIHjw4EF7e7vxPpNlWoIzUmAVicXiDRs2cDgcsr63ZMmSr1+/0jSt0Whomm5qaqqqqvL29gaZXC53wYIFhJMIPqyMXC7XaDS9ixirCfyICCACiMB/BgHTtMTyh9ZqtRqNRqlUwuzc653vES1ptVqxWFxUVLRu3Tom5cTExJic+plljK0lcAcH4pFKpaWlpVOmTOHz+VBLKBRWVFTQNE0kt7e3e3h4wJYSn8/ftWsX2EksV0BiLbGwYhVjfYsfEQFEABFABEzTkk6nI9DU1NSUlJRkZGTExsbu378/MjIyKyurqKiIFPjxTI9oyWAwAElcunQJHPMcu5K/v79KpTJWxhpakkqlCoUCqkdGRoJYIKeMjIympiYiWSqVcrnckSNHUhTF5XK3b98OWDERg3AVsDwI+kilUsiYoytjtfEJIoAIIAIDEwETtGQwGMhLvUajKSoqmjNnDkVRnp6esJfj6enp4+NTUFAAkJHCNiPYI1qCVgwGQ0tLC1AO0NK+ffvkcrmxDtbQElCdVqvt1ITQkqArHTt2rLGxEcTKuxIRyOVyN27cSFb5kHKMwccniAAigAj0FAE2LcE7PgTDpmn68uXL5KgQ2AcwKbu5uc2cOTMzM5OsbvW0YWZ5G2gJAgKBizahJZMOBYRFKIoyXsSDvSVgYug1oSVwavD393/37h2saioUsLUjaAAAIABJREFUCrVaDd4WFEXx+fxZs2aVlJSoVCqyGMjsF+YRAUQAEUAEeoqAaVqiaVqlUqWkpIwZMwZmZ4qiBAIB01GNoqj58+ffv3+/p00al+8pLQFJ6PV68Hpg0RLLaumWloDhiGNeZGQkuDzAXyYtgea7d+92dHTk8/kCgcDFxcXb2/vu3bt6vb6jo4PZNeYiHvM55hEBRAARQAQsIMCmJVJUrVbPnj2by+Xyu5KTkxMxmyBCEEVRTk5O/v7+5jyziahuMz2lJbKRw+PxgJMcHR337dsH1hL5Ftq1TEuEjUgmMjIS2JfL5QoEAuYiHgg8e/YsxHfg8/kuLi4URe3cubOiooJFS5YDvHaLCRZABBABRGBgImCWlu7cuePm5iYSifh8PstIYk70zs7OPx68wDZaKi0thb0ud3d3FxeXoKAgcExg7XUxtTVexDO2aRISEqAKuNsVFBQ0NTWxfhxwnJaEeBAKhb6+vmSzTalUqlQqk+EhWHLwIyKACCACiAALAdO0pNPp8vLyRCKRQCAgky9zfif5vqcl4LC6urpjx46BGsCaJ0+eBDupR4t4hJYgLkNLS8vhw4dBLCzivX79WtOVVCqVsivp9forV65MmjTJpSuBwx4wk7+/f2Ji4sePHwFljUbDUoaFPn5EBBABRAARYCFgmpY6OjoyMzMJ91jI/Cxaunbt2tixY4kXxuDBgyGgOGsFj6ZppvLG1hILjoKCgrlz50K0PXd39zFjxoBvNxAS/AXvhtjY2NGjRzOFC4VCgUDg4OCwcePGsrKy1tZWpVIJ22BITiyc8SMigAggAuYQME1LLS0t6enpzDnXXL7vaYmm6Y8fP+7du9fT0xO2dng8XkBAAEScY63gdUtLYC3BplR1dbWnpyfEYOXxeJ6enqdPnybe4QRBYmBlZWUtWbKEnL1lQeTn55ednQ3kROpiBhFABBABRMAyAqZpSaVSlZeXu7m5WdhVgll4xIgReXl5ltvo9lswKVihWpm1oIBMJistLU1PT//rr7/c3NwoihoyZAhFUZMmTbpz5057eztcRcGsyKKl4ODg1tZWCF8Eez/gmPDs2bPw8HAIG8HhcCBIeUBAwNevX415jshvaWnJysoKCAiYPXu2QCBwdHQkXosAzqhRo/bv3//kyZOOjg7wpDd5sooIxAwigAggAoiAaVqCwKyzZ882ZwqQeHR79ux5/vz5D+JokpY+MFJNTc3r169jY2PB1wDW7mDTq/OQb0xMDE3TIAT+MvVhGjFbtmx58+aNRCL59OlTVVXVy5cvCwoKsrOzp06d6uLiQkLhURQ1ceJEy/dlQBMtLS0qlerx48erV69mNkTyAoFg/Pjxly9fZqqEeUQAEUAEEAFzCJilJZqmL126NG3aNBcXF3M20+jRoysrK82Jtv45i5bAJZ3P5zs4OPB4PC6Xy7oSUCgUAosMGTIkJSWFeaTXeBeHMAQz4+bm9ttvv5FLb0UiEfOm2okTJ+bn55s8nGuuUzKZ7N69e3/99deECROYDcGVhiKRKC4u7suXL+aq43NEABFABBABQMAsLclkMpVKlZCQ4OXlBVs4zNmWoqgFCxakp6frdDoS8M1mTJm0BCTEasv447Rp0zZu3JicnNzS0sIMpWqsA7MusYdcXFzIgSfIgK/5uHHjAgICbD4j/OXLF1hjnDBhgkgkggNeXC7X1dV19OjRFy5cYJ1tMtYWnyACiAAiMMARMEtLBJesrCxwTiPzu6en57x58woKCnprp4RFS0xm4nA4cKzVwcEBTlDx+fw///zTemuGqG05IxKJdu3alZGRQS5KNza8CCaWMx8/fkxPT/f29hYIBHw+XygUwlropk2bvn37ZrkufosIIAKIwABHoHtagkBEz549i4+Pj4mJuXTpElxnx+QkmMFtnseZtAQWBo/Hy2SktLS069evP3369M2bNwaDQaFQMB3BwXkBBtJYByYbrVixIjExMSMjIy4uLjEx8fLly3fv3n369On79+87OjoMBoNOp9NoNHD9EvG4s+0n8vr16z179pDQGBRF/f777ykpKbZJw1qIACKACAwQBKyiJYJFa2ur8ZVLMH3/yCRukpbgEKtSqVQoFDKZTCqVqtVqYB3gITg/BBfCggRwsSPaQoZJS4GBgXBPoF6vr6urE4vFUIZQLJhKxpfMsmRa+bG0tHTBggU8Hs/JyYnH4wkEgjVr1lhZF4shAogAIjAwEbCKlmAql8vl5O5Xcv8QROAm0U5tA9EkLVkWBXcakQU3QkvGtZi0FBwcTPwj4GJDnU5HiEoqlWq1WqbjuLHtZSzfwpP29vb8/HzmEqhIJLJQHr9CBBABRAARsIqWLMDUK4aFDbREzh51yxzmaAk6xTqWBHdb9FaUVbVa3djYuG3bNqYOFsDErxABRAARQAR+lJZ+fAWPHDmycJz2R8aJSQlMawlksswsYvZ1y3bWqKTT6T58+ODr60t0cHJysqYilkEEEAFEYMAiMNBpiUU/PWJZvV7PMraYPyNwyvj06VNQUBChpfHjxzPLYB4RQAQQAUSAhcCP0hJLnG0fbVvEs7ItQgkURRlbS1YKMVlMr9cbO4CwSt64cWPatGnkPPLs2bNZBfAjIoAIIAKIABMBpCUmGt3kZTJZ56VKkZGRd+7coWlao9FIJBJmHZbtJRaLt2zZQjhp2LBhp0+fZpbHPCKACCACiAALgX5BSzCb983eUrf2DQsg8vHr16/FxcXbtm3z9PT08vJ69OiRXC6XSqUmYxQplUqxWJyRkUHOLQmFwnXr1r169YoIxAwigAggAoiAMQL9iJb27dsHZ2n5fD6PxzPW1bYnrEU8C7tB3cp/+/YtiTLu7Oy8cuXK8+fP19TUtLa2gmc5SFCr1Z8+fdqyZQvhJAcHB1dXVwgp220rWAARQAQQgYGMQL+gJRgAYi31T1rS6/VVVVVbt24ViUSwLgexhRYtWrR3795wRvLz81uyZAlZu3NycqIoavv27Q0NDTbbagP5N4p9RwQQgQGFQH+hJYPBsHfvXoeuBHe89tYwkBtsKYratWtXdXW1bZLhBvQbN24MGTIEiJN5nTyfz3d0dIRr5sE+43A4EAqPy+UuXLiwtrbWZBAK25TBWogAIoAI/FcR6C+0pNfrd+/eDRO6o6Ojm5tbbyFOURSfz4erMYKCgj5+/GibZAgPodFobty4MXfuXLiBkLlCaDI/duzYs2fPQiAJZhw/23TAWogAIoAI/OcR6C+0RNN0Tk5OUFDQ0aNHo6Ki4uPjewv6c+fORUREHDhwIDw8/NmzZzZfLUFIxWAw3Llz58yZM/7+/uvWrZs5c+bEiROHDh3q6urq4eExatSoOXPmLFmyZPv27SEhIdeuXWtsbIQgSb3VI5SDCCACiMB/GIF+QUsw45OAe70Lt1arValUhFQgILptTej1epVKpdVqIco4TdMNDQ3Z2dnp6emnTp062pViYmLy8/OfPXsGl7iTKBIymcy2RrEWIoAIIAIDCoF+REu9jjuEbOgVseDCDgEANRoNBC/X9jD1iiYoBBFABBCB/zYC/YKWiEnRb7EGWoLg4nAbUw8p6f+L99veoWKIACKACPQfBPoFLbGCI/QfdIgmYHiRe55ss5Z60XojimEGEUAEEIH/GAL9gpb6P6bAKHDJE1wxRS4MtD4DrNb/Obj/DwdqiAggAv9hBJCWrB3cH2em3rrGyVqNsRwigAggAr8gAkhL1g4a0pK1SGE5RAARQAR+AAGkJWvBI7RElvLI9erWZ3AFz1q4sRwigAgMVASQlqwd+R+nJZBgbXtYDhFABBCBAYkA0pItw86kqB7lbWkM6yACiAAiMJAQQFqyZbR7REXMwrY0hnUQAUQAERhICCAt2TLaTKbpUd6WxrAOIoAIIAIDCQGkJVtGu0dUxCxsS2NYBxFABBCBgYQA0pIto81kGuvztrSEdRABRAARGGAIIC3ZMuDWUxGzpC0tYR1EABFABAYYAkhLtgw4k2ysz9vSEtZBBBABRGCAIYC0ZMuAW09FzJK2tIR1EAFEABEYYAggLdky4EyysT5vS0tYBxFABBCBAYYA0pItA249FTFL2tIS1kEEEAFEYIAhgLRky4Azycb6vC0tYR1bEYBxsa12/wxdyPyl2dYvrPVrIdD/70e1E55IS7YAy5wgrM/b0hLWsRUBpCVbkcN6/QUBnU7XX1TpWz2QlmzB23oqYpa0viWFQmF94X5bUqvVdnR0/Cz1CC0xTR+NRmNZH+Z4MStartUH34Ji5CbJfqVbH3R/YDbBpCXyyxwIUCAt2TLK5CfSo0xPW9JqtT2t0t/Kd0sD9lZYp9PBGJkDE64p0el0arVapVJptVoob2/FeiSftZiD90n2CL1ftzDzxpxftxc2aI60ZANodI/YiBTuUUsvX768cuXK58+fe1TL3oWtfEkXi8Xl5eXMdz1m3q5K1tbWyuVyhUKh6kpqtRrmdHO0RJSRy+UNDQ0ymYw8sXfGekzUanVra2tlZWVpaalUKu0PtESUJz/vbjNMPEl15kPMsxAwGAzl5eVisbgvf5YsHX7KR6QlW2Dv9n+gyQI9aunixYsbNmxIT0/vUa1+Ujg/P9/f3z83N7e6uhpU6rNpKDAwMCEhQSKR6HQ6MH2sxKS0tPTWrVsvXrxQqVRWVvnBYt0yJZGvUCg+ffp09erVM2fOPH/+vD8wE1He5E/d5EPSHZqmSXXmQ8wbI7B9+/ZTp079xMVwY5X64AnSki0gm/xf1+1D61vS6/VPnjzZtm2bs7Pz2LFjg4OD1Wo1TdN9uedkMBgOHjzo7e29bdu2iooKWOACywN6aqE7sbGxfD6foignJ6fNmzcXFhb2zVzf1tYG7c6cOfPJkydisRiUJKQIS3Ymbb6cnBxXV9eRI0du3br18ePHdkJbKpUWFRU1NjbSNK1UKi1gyPwKXpavXLkyduxYPp8/b968rKwsrVarVqsNBkPfYEvTNMAIjCKXy2malslkzIUmy3ma/v9lBugX9B2E0DTd3NzM7G9v5VUqVUFBgZeXV0hISF1dXW+J7Us5HA7HwcGBz+fHxMS8fPmSpmlYGP/27VtfqtHHbSEt2QJ4twxkskCPWpLL5ffv3581axbVlXx8fO7cuUPTtFwut96iJ7NAj5qGwmq1eseOHQKBYOTIkZMmTTpy5EhdXZ2VAs+ePSsSiUDzcePGPXz4sL29HZaerJRgg8I0TX/8+BEaFYlEK1asyMrKMhgMGo1Gq9WSGdMcpx4/fhwozcHBYePGjcXFxYTVbFOGWauT46VSqUQiuXnz5vLly3fv3p2fn2/8CmwOHKlUStN0ZWXlqVOnhEIhRVEjRozw9/d/9+6dXq8n9GauOlMT47xeryc7cMbfsp7k5uaGhoZmZWUxGzUHKasuTdN6vV7TleRyeX5+fkBAwMOHD+FXbVz4x5+0tbVVV1dv2bJl4sSJS5YsOXToUGFh4Y+L7TMJBoOBw+Hw+Xwejzdt2rScnBxouqqqKiYm5tixY5cvX/706RM87IP/X33WcaQlW6A2yTrmHsJLovX/dYlCcrn8+vXrY8eOBbNj+vTpeXl5YrEYZlhr5iBrypDmWBmZTBYQEEBRFMyDs2fPBl60RiaxlkQi0fbt279+/SqXy+3hTcBC9enTp0KhkMvl8vn8P/74IzU1ValUarVa3ffE/K/Lqnv48GFXV1dHR0eKovh8fkpKSk1NDfABCxkbPgJo1dXVy5cv53K5FEXNmjWrpKSETO4gk+XaQBoi9pBKpdq4caNAIOBwOBRFRUVF1dfXa7sS+ZmRWtZkFF0JmJuQk8lfslKpfPny5YwZM+Ancfv2bQumZ7dNP336dNmyZRRFrV69+sWLF92Wt60AaHjv3r358+fD+8qyZcuuXLnS0tJivUAmGtbX6q2SQEtcLnfYsGHXrl2TyWRarba8vNzPz4+iqDFjxoSFhYEh+CPD0Vva9pYcpCVbkGT+UrvNk/nCmgmdaAMmkUwmCwoKGjRoEMxlIpHoy5cvsJxijTRrypAWjTOhoaEwB7m5uWVkZMAcSvprXJ48SUtLg1lg8eLFZWVl8LzXaYloQroZFxdHURRM2cXFxbDQAf9ddTod4SRmRVJ3586doLO7u/uGDRvs4WySnZ0NlOng4CASidLT02E1j+BGFhvJE5IheorF4gULFgwbNoyiqF27dr1//x5IhXSKVOk28+HDh/T09LCwsFgr0pYtW9zc3AAiHo/n6up6+PDh6upqK6r+q0hUVFRqaurcuXNBFEVRW7du/fjxY7fa2lxALpenpKS4u7tDi0KhMCkpqUfMRP4LQ8ZmTWyoCLTE4XCioqKam5vhBUUqlba0tGzfvt3JyQn+h+7fv/8XXaU0iQnSkklYunlIpgArM+begrtppuvrrKys6dOnk//DNTU1sM1jTV0oAzOy9eVJSUJLq1evfvXqFTwnXSbFjDNMWiJkZmHONZZgzROiCUzZnY5qK1asgP+lQUFBzO0KUpKIBa4iRPX27VsvLy8AeeHChS9evOh1bTuXqg4fPuzg4CAUCqdNmxYdHV1bWwtbhkQr2Dtkak6+IpnOrZ3IyEgwYQ8cOMDyHQAoWltb37592+3M++rVq2PHjq1evdrX19ff3z86Ojo9PT0tLW3jxo0zZswYN25cJ54nTpxISkrKzs4+cuSIn5+fl5fXpEmTJk+e7Ovre/PmzZqamsuXL/v6+q5evbpz5fbcuXOxsbHnzaSEhISkpKTU1NTExMSZM2dyudyRI0eOHTs2OTmZ9M5Omc+fP585cwbsYDc3t/Hjx1+6dKmnbTE3VslbQk+F9LQ8RVE8Hq9z2fbSpUtKpRJ+ljqdrq2t7Z9//tm9ezfY9xRFrV+/vqCgoLm5mfWj6mmL/aE80pIto0CmOSszMP3Z0lLXZlJiYqJAIHBwcBAIBGAt9YjnJBKJbU0b0xJZKLD835JJS+B2BRsYtqlhuRbR5NGjRyNHjqQoasOGDawZGYaJKYfQEqyIZmZmenh4uLu7e3h4xMXF2YOTGhsbN27cSFGUi4sL4SSiPOjW3t5+586dS5cutbS0aDQatamk0+kyMzMnTZpEUVR0dHR9fb1MJpPL5SDKYDAoFIro6OiIiIjs7GziU8DsO8nX1tbGxcVt27bNz8/v1KlTxcXFX758efjw4ZIlS2Cymzx58uXLl6uqqmpraz91pZqamnfv3lVWVn748KGtrU2pVObm5h47diwoKCgpKam4uLisrOzNmzfl5eVvzaS6urpXr16BteTo6Hjx4kWlUtkH59tqa2vnzJlDZvnjx48THKzMwK+C/BewstYPFnN1dWXSEvmPT5gJXsVgNcXX1/fNmzc/2GJ/qI60ZMsoWMlGpBjMfTk5OZs2baqqqmLtKHSrwevXrx0dHQUCQUBAAOzDs96RLUgoKytLTEysrq423mC3UAu+AloSCASrv1tL5P8kaz5liWLSEhASIMAsRv6DkYdkYrUs3Ny3sbGxndstAoEgNDSUhY9xFTI0NE2r1eqFCxeCmbV+/fqvX78SlWzOGBNhWlraxIkTKYry9vYGO4mQHylcWVk5a9YsLpe7Zs2akydPnjaVkpOTQ0JCVq1aNX369F27dqWkpERHR585c+bs2bMXL16Mjo7etWsXTFKenp5paWmWu2AwGMRiMcuTntBSYmJiW1ubVqttamqSSCRSqZTs1bEg1ev1PXpJhz0qDodjeRolyFjuhZXfJiQkOP8fe18eE9X1vn9nMgwQZAsipHWJa6zaaNVYl2jV4EIEJSoaxCWuQdSIaAQ0oBIRiQoEEIOI0aIGUGOLRkEiixGBKEoANWxGEQICYRkmzBa4vwnPt+/v9t6ZcRzbT2295w9459yzvmd5znvOe95jbw+ZmGCJeoIJAsoaCoWiu7u7p6cH2xXUfGbmblmwH3/80c7OTiKRQFoitmNYdXR0lJWVkcA0bNgw6HT8D2DesuqYGUuEJTMZ9adgJnqwwU/9/f1arfb06dPDhg07cODAq1ev/pScGT82bty4du3aJ0+eNDc3f/z40Uxga29vDwoKcnV13bFjR0lJCc60zcjt/4IAluRy+Yo/YAnjE3U0kQ5gSSKRLFq0CFpwwihC5MCQo401Y+nTyOQFOHjwoEQi2bx5c01NDT4JM+VFwU+FQkGz1Z07dwyGMTMpigv85h5FrFq1atSoUfb29hkZGbwZnNpFo9F4eHgwDCOVSrdu3XrhwoVkjktKSkpISIgfdHFxcScG3ZUrVyIHXVRU1NWrV6Ojo318fNzc3GxsbORy+fnz56lI5hCYznBwxTBMWVmZ6clXqVRinaRWqysrKy9fvnz//v3GxkYcd0EXg/6S/KfVaseMGSOVSu3s7Nrb203o4n8u203XsampafPmzQzDCDfxkJHwLxLU6XQ9PT319fWVlZVv375ta2vr6+vjNaLprC37qtVq58+fb2dnJ5VKubCERR6Qqa+vb82aNdbW1lKpdPr06dnZ2cYGiGVl+EdiibBkCduF3deYD3eS3bt3r0wm8/X1zczMLCkpefToUdFf6vLz8x89evTw4cO8vLySkpLy8vLIyEg3NzdMc+vXr29ubv6s2mZlZY0aNUomk60QwJLpdNLT05Gpt7c3wRIvCmCJexNrYGDgk2oR4DNOyyBvdXV1IeWDBw/qd9grKipYluXqow8MDLx//76kpITufHBLop92jx075uDgwDCMt7c395NBWqlUXrt2LSMjw7T6OGCJoLeiogLIFxAQgGKgstilI1FSo9GsW7cOrAsLC6utra002z179uzNmzfPnz+/e/cuNN0Zhnnw4IHBWvA8aZWj0+m6u7uxa8QwjDkHFWgRlmV3797t7Ow8evToqKiojx8/GtqAVGs0GuAcFCbd3d0BhAY1Hrljildgy36qVKrIyMiRI0deuXKFNg/+UNI0/B+YyrJsd3d3YmLi0qVLZ8yYgUviKpWK6s4tDxWb62kZrVKpZs+eDWkpNja2tbW1u7ubCkoS6suXL318fPTifkxMTGJiYnp6umXZfT2xRFiypC2o55lJII/Dhw9jwOMYg7QY/nIC5+r29vZ2dnYymWzIkCFSqdTW1nbHjh1YnJpZZ8CSVCpdIYAlrMiMrctycnKwib9t2zaVSoXJSHjAptPpbt++XV1dzTsCMZYsij0wMNDV1RUbG+vr61taWop5Tb+APXz48Nq1a6HB2NvbS6NXp9Nt2bLFzc3t8uXLbW1t3OW/Wq3Ozs6eOXMmwzCzZs365HhWKpVxcXFWVlYTJkxIS0szgUzoGDjiqqmp2b59O7LIyclBLTo6OnitgDs9BEsXLlxQq9XdZjvI0G1tbZWVldjMHD16tJnHiqSAjptVOABbsWKFmXtBYKm/v/+IESOAiIGBgbifJPzLsmxnZyf6/OTJk7G2UCqVBhsdnmq1Gtf1FF/gqOc3Nja2trbSsqCvr0+pVJpOv76+/uTJk6SIOHXqVL0Go0HmoN11Op1Go0GyvWa7vr4+lUqlVv8feIOrnp6eUG/JyMigDkPTDnx6e3ubm5tv3boVGxs7c+ZMKyurgwcP/h2qpFSAv5sQYckSDlO3MEEgXQRgWba1tdXX11cmk3333XdBQUEpKSlxcXFnzpyJiYk5ffp09F/hzpw5c+7cueRBl5SUFB8fL5VKoUJqY2OzaNGiY8eO0fqdNcNlZmaOGjVKv5nj6en54sULxAC64C+mftqlIeL69esMw8jl8lWrVvX09PT29gqHXHt7+5UrV8aPHz979uyzZ8/Szht348tgGXE1dfPmzVKpdNmyZfv27QsODl63bt24ceNGjRq1e/fuo0ePhoWF7d+/P/APh7MWa2vr6OhoLHIp5VOnTtGyYMuWLdHR0bv/cIGBgXv27Nm7d+++ffv2D7oVK1Z8//33DMPY2dktXLjQNDJBaNNXJyIiAmq+ERERdKKGSae2tvb8+fOVlZUQobjSkrHtRCq5MeLjx496bQgbG5sZM2YYC8P1HxgYwH5Ud3d3dXV1UFAQbslcvnzZIFRw44KGqfhFixZB1W3t2rXZ2dlCQIIPy7KlpaXguY+PD21oG8xrYGBAp9MVFRUdO3YsNDT08OHDIRa5iIiIc+fOJSYmHj9+PCgoKCIiAp0EaR46dOjgwYPBxt2iRYscHBxkgw4lBzLR6CaewAeyMm21mUlQIkRoNJq5c+fi6Cg+Pr6trU2hUAgZ1d3dXVFRkZaWNnfuXBRv2LBhuG1NSf27CBGWLGkv6nwmCKRLHTc/P3/y5MkymWzdunVKpRJ3PDGPGxvAn+tPRxS4Nt/Z2UlH35GRkSUlJVgkUpE+WfOMjAzA0vLly1++fInwXKGn0IiLiIiABsHEiRMfPHiQm5ubl5f36NGj/Pz8goIC7FzGxsZCnQwDKTw8nHeJx0TxtFrt4sWLEdHKymrIkCFyuRw/ZTKZfNBZW1vjfEUul9OZ8PDhw2keBGwEBAS4uroiwLBhw4YOHYp0cP8JqVlbW9sNOtxrxurVHGTCknzTpk329vbLli3Lzc2lSmFyiY+PZxjm0KFD3d3dWq2WC0vc1THFMkEgQa1W29DQAOaPHDmSRARjEdEZAEstLS0lJSVTpkxhGGb69OlmSloA1I6ODgiddnZ2r169UiqVxnovy7L3798Hk3fs2AGVE2PFY1m2o6MjISFh1KhRNpY6aLHCVgKgBTTut1Fzf5IYNmwYwri4uDAMs2jRImND6Z5F7sGDBzk5Obm5uQ8fPnw06MrLy3HOJ5VKt2zZkpubW1RUVF5ens9xubm5L168OH369Jw5c6ysrGxsbGBgRSKRBAQE/EtlJhGWTIwIo5/QHQ3+FcbBAnncuHGY6Xx9fZ8/fy5c8vAiArHq6uru3bvX3d39yfDc6BqN5u3bt35+fhKJxM/PDxNxc3OzRqPhlRnDnhuXS9+4ccPd3R3SUnV1NT7R7tOTJ082btyIUxlle9OgAAAgAElEQVQ6jXBxcYGWNvaRGIZxcnJy+cOBA8OGDRs9ejQiYoRDq/vRo0fmHyMHBAQgtcTERJz90q4dd3Ha0tJy+/btCRMm4MBm586dHR0dJLJkZ2dPnDjR0dFxwYIFeiOE9fX1sPFKSfGItLQ0YNKQIUPmzJlDN4W5TOPSOp0uISHB1dWVYZji4mLKFxJhZ2fnli1bMFGuW7fu48ePXFi6dOmS+VamKNO+vr5Xr15BWvrxxx/J3wQxMDBABy16eQINt3XrVhNReJ+wZ4U9LplM1tzcjJ0og8jU09MDMLazswsLCzPHNqBSqSwsLNy1a1d6enppaWlHR0dPT49Sqez7lGNZtqmpycrKSiKRODk5ZWVltbW1wbT8F/4li1bCgZmZmQmRmmEYIj6JeQYDoOfgk0wmc3NzGzNmDC+klZWVfhsA0ItlKAVwdHQMDQ2lfQ5eq33NP0VYsqR1eJM79yclB0+VSvXq1avIyEhazickJJAZKwpskOjv7793796WLVuCg4Pj4+PJGrfBwFzPtra2mJgYKysrT0/P27dv414I1AQwirhjiTtXQhJCyVmWvXHjxrhx42xtbVesWFFdXQ1/jUZz48aN/fv3X7169dq1azt37tywYQM2Rk6dOnX+/PlLly5t375dJpNZWVm5ubnFxMScPXsWG5VHjhwJDw8/e/ZsUlJSVFQU0AKj99KlS7CrxK2ICTogIEAy6MyBpalTp1pbW3t6esJ+Eu1kent7Y1THxcWR6oSJTNPS0nB24u7ufujQIWPyBE6J+vr6IHy4u7sfOXIEl2Sh0wG0u3nz5g8//ODg4GBra3vixAlIGHS2lJ2dbaIkxj6p1eqKigpIS2bCEtckHbQ/pFLpnj17jGUh9IeiKWDJ0dERmGEQkzQaTXNzc0hICMMww4YNi4+PN8eauFarbW9vf/fuHW5KCQtgwodgyd7e/tGjR52dnVjwfeFfjCbhhnN/f39RUVFISMjmQRcSEnL0C1xCQoKfnx/sU4wYMSIwMDAjIyPlD3f+/PnExMS4uLhz587FxsbGx8dfuHDh4sWLly9fTk1NTUhIiI2NLSkp4Q5wE4z6qj59u7BEWCLsW59sIYprgsCavaGh4fTp0yQ6yGSy9+/f47DUYFxe1rt27cL+kr29/fbt2ysqKuh0mheSfioUipqamn379jk5OT19+hRKVn19fdzNNwoMAiXhebIse/369XHjxsnl8uXLlz9+/BgBkpKScF7l4eFRXl7e1dXFu/XCsuyzZ88AS0uWLOEmy4VDvSUCqA9JpdJNmzYZ1MXixuXRAQEBUqlUIpGYA0uQycLDwyHqATYePHiAUyJ/f/+Ojg4qm4kJ6+LFizgzmz59ek5ODs7JKSKVUKPRtLS01NXV7dmzh2GYPXv2KJVKHCbhbB+XgdauXQspc/78+bBZzpWWMjMzlUqlWq1uNcN1dHSQgFJWVoZ6/fjjj581JX38+BGgOGTIkPj4ePNlNXAAvWLChAlAGmOwVFFRsXjxYolEMnny5EePHpnT7hhKhATEZ3OIpqYma2trtFpjYyPvZNGcFAyGMTZkWJZFjXjDzeBg/6Qny7K3b9/GtuqGDRtqa2tRGDAc0Yk51G/BKCoAb61psDpfm6cIS//XNz6rYT7Zn3DmiesOMKqIjfHdu3eTMi51Iy6BTkaFWbRoka2tLcbVhAkTjhw5AgVoCmCQKCkpuXDhwvXr1+mrCTCrr6/Pzs6OjIzEOXD4H+7ixYt+fn6wCuru7n748OFr166FhITozXOhPNbW1sOGDbtx4wYmXMqLZVm9brpUKoXKA9cfNOpYV1fn4+Nja2vr4OAAXQDz50G9CklAQIBMJjMTlrA2v3LlSkdHBzasiouLcaNz6tSpDx48MHPzEPexHBwcFi5cCIN7BtWxVCpVfX399evXra2tx44dm5OTAz149Acwoby83NnZGZzMz8/HhTAuLOmvH124cCEpKem4Ge7EiRPR0dGnBh2gxc7O7scffyS5UNgKQp/6+vpFixa5uLisWbPGtAEkYVyWZbG9OX36dNQFvVoITsXFxRMnTpRIJD///DNEcIOp/VWeTU1NWNhJpVIy3vNXJf53p6PRaG7evAnbY9OnT6fzXWP5Yl7irkWwv40RJ1w/GUvnH/f/5mBJiCiQloRLfgopbCT6ZIJAV+jp6amoqPAddPHx8WRZDitKLiCBppUOtsUhv8vl8h9//PH48eOlpaWfnECVSuX79+/fvXtHszzSNNYpe3t7b9y4oTc/4evru2HDhkOHDh0/fjw1NfXixYuY4LDJFhoamp2dHRUVpV/ak9uzZw9UtLkjYWBgIDExEbDk7e3Ny5cu9FRXV69cuVIqlVpbW//dsAQ1qnPnzvX29sKIw/HjxyUSif5+67lz50zoefOa/vz58zgtW7hwIfRWeLVD+Lq6uvDwcEBOQEAAZNyqqqonT54UFRW9fv36xo0b/v7+OAM4fPgwcB3iDm3ibd269cGDBxcvXkxMTIyPj4+Li4uNjT0ncLGxsXFxcfHx8efPn9cLc8ePH9+6dStSnj9/vonlCK9q+tXSsWPHoNav13yjvTWUrbe3t7Gx8dWrV9yG5qZQXV2N07tVq1bRgBJiEuZZ6A6sXr0aUiM3nb+cfvPmDfCSYSyc6ww28V9eTmMJPn36FK/bODk5YQvaWEiwnZQAsTjA/ip3VjER/ev5ZGFTfT0V+MKSGOtzSqXSoC4msjOBRvQJsKTRaLq7uzHj0Ks/UJkTYhI9wYA1OIY6NqBiY2Pfv3//SUxC8VQqVU9PDzcwZS2sb2dn5+3bt3fs2OHv73/ixInMzMwXL148f/4cR2JQTPjpp5/S09NxJ+Ydx5WWlra2ttKFWdS9v78/MTERyk7e3t68iYzkyOrqam9v7/8xLOH85tWrVz4+PnZ2dufOnaupqRFKe8Y6VXJyMsMwjo6OCxcuNCgn4QA/Ozsbeh+urq6BgYGZmZnJycleXl4rV66EVVMHBwfcrl2zZg2pkKCT+Pr6SiQSqVQaGRnZ0NBQUlICMCssLCwoKMg34goGXX5+fnZ2dkpKypAhQ8aOHbtnzx4zq4ZgMFYrlUrpchXxQW+7OiQkZPv27fX19cI0tVptYWEh9Cx27dpF0pJBWEpPT8diy8/Pz6AwJ+yiVIzPJfr6+oqKiiAtWVtb87ri56b2j4SvqqqCZSw7O7sbN26YLgMNQNQUUxD9/QsZa7oYX/71G4IltBlYptFoWltbL126NHXqVEwQ9vb2S5YsuXHjhjmb3UjKnL8QoklwAdQZBCSup06na29vh8KSfoaSSqVctWbTrY7DHqx2yYw0igHYE0bHO6e4AIhTEPTgrKyskSNH6rXIlixZwtXnoauIZByMuj6IxMREWEPx9vYGBtOQ4MKSl5fX/xiWNBpNT0/Pnj17xo8f//PPP0P5TcgQYz5cWOLOzlQ7RLx37x60BG1tbXHi4uzsbGNjM2vWrG3bts2ePRvSzIwZM+7fv4/TCLzmp9FocOAklUp5d3upBbn9hEtDw1CtVn/48OHOnTtFRUXGNDKEtcMJFkrl4OAQFxeXlpaWmpqakpKSmJh49uxZb29voM73339/9uxZbgq4RpaamiqRSBwdHRMTE0lagso7D5zOnz+PtQ4AjJsUaO44FX79LJ+Wlhb9LihxG/vnvMb6rAR5Q95EXPRzEwHM/NTc3IwjWP2mRWpqKrcAwhTwFWOQxCbTUYSJfA0+3xAsgd2YTR4+fBgYGAjpGIsp/J0wYUJwcHBpaWlPT4/BpRwS4ba0aRqzCW8K++QUg+MZf39/KA4sXboUiq3m95j3798/evTo559/9vPzy8vL48IGNxEMUd4qEoFZlsW9JYlE4uHh8eLFCxipxFfSnKaf3CwAS3pDnF8hLFVXVy9evHjbtm2kxMFliGmaC0tcpnFnOpiE+eWXX2ArYcyYMWvXrj106FBSUlJBQUFmZubEiROxEwiDdbhozLIszGGsXr0at08+994SLX3UajWVzdhChFfNjx8/3r9/H/na29tHRUWlpqbevHkzJSUlLS0tLi5u0aJFGCBTp05NSUnhRe/s7Dx9+rRUKnVxccnKyoK0pNPpDMKS/uULLASDgoJ46eAnBpTBT5/r+fbt2/DwcMDSihUrwCJuY5lIMDk5+e7duyTLcstGQ95EdFTfRAAzP3V1dW3YsAFXrOLj4zHKjLEI/tyRyNV3MLPiZhbsbw32zcESy7KVlZV4JBSCCFR+rays8NPJycnX19f0m1rUL80hMEfgooOJtoSFFQTo6+vDi3YMw9jb2588ebKvr6+np6erq6vbuIOVE2wunT17Vi6X29vbAxuePn2qVqu5/ZJXcm7BsB8NBfHRo0dLpdLFixcTLGGFTt2dxgABlU6n+9pgafTo0XrltDNnzly/fj0uLm7OnDkXL15ElcvLy/F4Ln7ShM5lCNFcWCJPCAf0E4YJnj17tnHjxtWrV2dkZGBR0tHRodFocnNzsQ0YFBREu6xYAA0MDLS2tnp5eVlbW7u6ut67dw/2hNRqNdCFeM5rO+FPlmUVCgUOlhQKxScv1dbW1i5evNjW1hYXZerr6xsbG+vr62tra+vr6xsaGs6fP4+Lxps3b8bJE9WXZdm2trZt27bJZLIJEybQ6SnmZSEynThxAvc9jx49ikSgcAja/MMwbgGM0XV1dTB8IJPJDhw4AJNUxgLDX6fTqVSqmzdvjhgxYuPGjXjTnY5teKw2lhQSIeUmY8HIn+6NxcfHx8bG4to1LHLpdLo1a9ZgTXDixAk6MeKOZUoHxaMhycUwfKKQXznxLcLShg0bZDIZQEgqlUJJl3wYhnF3dz937pyJBw54vdP0z/7+/suXL588eTIsLOzMmTN/aLr933/urYbw8PDTp0/Hxsbev39/zZo1MOXi4OCwdevWy5cvJyQkHDPDnT59ev369Y6Ojlgk4oads7Pzb7/9xp1AuWXm9VHs0UFBfPTo0TKZjAtLdJEQsWiv4GuGJRcXF6lUevTo0ePHj2/atOnJkyctLS06na6vr2/Dhg3jxo0rLi4GNmi1Wt5bTVzmmANLJCs8e/aMttGQeGFhIa5qbdq0iWujFnjDsmxtbe2SJUusra2///57M62scotHdGdnJ9CxtbUVVmvpk5BQqVSJiYmQYKAdAG0OHK/i1urt27fHjRvn7Ox85MiR9+/f8xKpqanx8fGRSqUzZsyga9fGYCk0NBS2R6OiogzOrbzEv+QnGa2wtbX18PBIS0uLjY09derUyZMnowQuOjo6Kirq2LFjeMEIq4fRo0cXFBRwBwuXNlG2nkFnIgDvU39/f2xsLOaimTNnwrIwwmzZsgWwFBISgo0W6jC8RFA2EZZ4bPkX/KyqqhoxYoSzszPBEq6/0E+cCsybN49rKoZXMW7X/CTd399/9erVgIAAvYG4AwcOJBhycXFx0YMKvgkJCRcuXEhISBg/fjxwZc6cOYmJibdv305JSTll0uHiKkztbd68ecGCBcuWLdMfYMyaNWvTpk0GYYnWU9wK4lrP58ISdzDExcXpr4jSJh4PDjG0qqurly9f/r85W3J1dbWysgoLC7t161Z2drZCoQD2aDSalJSUSZMm+fj4ZGZmQlTi7dtwOZOQkICtORP3sVBZg1IX5rtp06bR/iEtkxG+sLBw+vTpEokEdydzcnKamppg1KCnpwfP/Zlj+RNqnDExMStWrNi9e3dhYaFGo+HZw0W9tFptU1NTSEgI9AaHDBlia2tLVSbYyM3NHTNmzLBhw06fPg2IpTBarfb+/ft6TVGYYCfNcmObeIGBgdbW1lZWVomJiYTNLS0tqampgDSyRUJZWExcvnwZGkM4EsvMzLx48WKkcRcTE5OcnLx48WIywS6VSn///XdjY9xYwZ4+fbpz0O0y4vbu3cu9aRsQEDBr1iyy0SCVSqdNm0brkrCwMEwFe/bsgSqTwWGLjkfLRBqP3MIbK/DX5v/NSUt37tzBkpBwiAiYgUHncHR01C+djLUWt6XNoSsqKqKjowMCAhISEgr+7GBV7vHjx0+fPn327Nnr16/r6+vDw8OHDx8ukUjkcnlQUFBtbe27d+/KPuWeP39eXl5eUVFRW1v7/v37xsbGysrKjx8/dnZ21tXV8TbxaPYUrrxMwxI2lGjConS4fIiNjeXBEk3TGDY6na66uhpbqf8DBfGxY8dCWoJFA5wxYJp+/fq1XorFLZ+8vDxjLQ7/uLg4bKsuW7aMG5LLDfKHZ2trKyAwISEBBqju3bvX398Pz/b2dnAGrXD37l08FThq1KiJEyeOGjUqLCzs9u3bDz7TFRcXnzhxYtSoUTiTCAkJwaPGvLJBW+HmzZvQwbOxsUHn7+3tBYzBzK5SqdRbp3ZwcJDL5VFRUbx9Nrz0MXz4cIZh/P39AbToQjxlB/zcvn27RCKxtbXFu7Qsy7a0tGRlZY0bNy4yMrK9vR1qQQZZSuU3k4iJiYF1lbFjxxYXF1dUVNTU1JQYcs+ePSsvL6+srGxoaFi3bp2zszNMFnl4eOTn53P7Npc2Vozz58+7ubm5uroOHToUTx67/Nk5OjpaW1tjh0Yy6MicnV5txMXFxcbGhuw/RUdHA5Z27tzZ3t6O21fCYSvCkrHm+Nr98Z407W4RIBEBFQMM5ri4OGP14XbNv4qmRWhvb6+np6ebm5uVldXUqVNpVwRnDCgStmhwzKMzz5HWFqXAXU9xa2oOLBHMUETMI+DG2bNnoW21efNmyo43SdXX18Pcqr29fVhYGKBCp9PhFpEwfcoIBF2nhQEb3leWZUnNJCcnB3ZxIiIiOjs7+/v7sUhHFiqVqqamBrbLJBJJcXGxMCnywQO4Q4YMWbFiBXliOuD+BA2GaDQa3PhBr4uJiSFj4XjgHO2Otrh69SqOwfz8/BwdHfXaB1ZWVjgjhHFC/WoJC3k3NzdnZ2dHR0dbW1syPCqTyUaPHj1lyhQyS4hMXVxcuI/Aoo0wr1VVVS1btmzJkiW7du2aNGkSej5gCSqUMKWalZUFWIqMjCQRB9Wsq6uDBjPDMD/++KN+DsX139BBg9+HBQ7ll0gkc+bMgb2c3bt3wwzK0KFDN27c+LkGhYWcJ5+AgACsQQMDA8nTWHvBX6PRBAcHQ+3Qy8sLFr+MjXFumly6o6NDv/yNiYm5evVqZWUlyd9I59atW0DxOXPm5Obm4g5J958djO6ji2IxxDDMggUL3r17B4stIixxGf7vppVKJezHYKcO6xTCJIxh+osZxGCFjXVTi/0pl/7+/o8fP5Ll06ioKCw/6fUBhITIYh4e/V8oLiwRIIHgrUxNw5LwbElY67Nnz7q6utrb2wcHBxPcUh1BVFRULFiwwMrK6vvvvwer9SJdaGjomjVrSB+BF4X7k2BpypQp8fHxR48e3Tvo9u3bFxQUFBwcHBIScuTIkT179syePdvJyUkikYSHhwOWcBaNMQ/LC3i01MnJae3atcIjfco3JiZGIpHY2dnxHgzkMZDCgygqKlq7di3DMIGBgW/fviVYglI4Zn80xJkzZ6B0sG/fPoDE2LFjcZG5oKBg1apVDMO4uLjoJarjx49HR0enpaWFh4dDiV8ikYSEhFy6dCk2NjYpKWnXrl1jxoyxs7NzdXU9dOgQgTSVDe1SXFzMMMzWrVufPXs2bdo0HEmagCVo31AiuKe1evVq3KUdN25cfHx82qBLSUlJNuTWr1+/ePFiX1/f8PDwO3fuZGdn649USVDz8/NrampCj+LmYiaN5RoFJh022IQlf2PEwMAAwZLe5uzOnTu5oqGwnxtLB29K0X4mgsGgrU6ny8rK+u6772xtbT09PcvKykwkgjb69ddfsRU5atSoK1euwH6VQRbBUzi6qeQm8vqqPn1Dm3iY2fPz8wl4QOD2IoCK+4l3cYTbbNTMfxVBiXd2dp47dw7FcHV1JVNDUDvWarUtLS04SCdMIh108jFIECxxw5sJS0uWLKmoqOjt7YUSM+3jGat+cHAw3pU4dOgQsoMmIc6B8Ve/N/Xzzz+jpsHBwfq3qAMDA/EmxezZs7lHvsQcLkGwJJPJ8ECG7Z8dZtihQ4fa2tryYAlzDfGBZdns7OwJEyY4OTlZWVkFBwcbW1BHR0djAwq2DKg8BmEJnp2dnbt27WIYZv78+b/99ht2DiE4coVdFAboaG1tffHiRQ8PD5lMtmrVKlLBePTokbu7u4uLy6ZNm7q6uoA03d3dc+fOxQMcKA/yffXq1bp16+zs7Dw9PUnzggoMori4eMWKFe7u7pmZmSzL/vLLL1B8+CxY6u3txVm9ra1taGjos2fPXr16hVvAT/7sSktLnz17VllZWVVVVVNT09TU9PHjx9bW1mvXrmHrUq/jExUVhe0Bgyzlld/gTxJN3r59i81JBweH5ORkg4F5ngRL2Mwke7XG+jkvurGfiI5RybLsb7/9NmrUKEdHx1WrVpm2JwRdTf2mI04lJRIJdvZ4dwEpX2QkwhIx5F9AYCUF+8pc+MFCD2ZXAFF2dnbDhw9/8uSJsVoZ66Zf4o9F9P379/HCCsMwISEhVABgakdHx4kTJ3x9fRMSEgh7sGFFP40RBEvcAGbC0tKlSysrK5VKpUqlOmuGgxohwzA7duzQ3xN6/PhxWlramT+7lStXohUcHR0nT568Zs0arjIYwzCYK4kDPIJgac+ePZB7eJuEtNd0/vx5HixhtEMPHpshzc3NsPojk8n8/PygTcfLkWXZqKgovPO7evVq7leDcyg8L168OGnSpNGjR9PpTltbm0FY0mg0np6ekId+++235cuXOzo6+vv7f/jwQaFQaDSarKwsbNlt2rSpt7dXrVbDnMfPP/+MN4i5GsmwZMEwzPbt26Evzi0w6CNHjuhPPhITEwcGBlQq1dSpU9EinwVLQMeioqLCwsK6ujoTW0xUAHCGmKZ/ZAhvBfn4+PT09AgFO4poPtHT03Pv3j0oYgwbNuzatWvmxCVYwnYFnS4bG9efTFOj0ahUKhpxqPLvv/9O9y6g/MLruvQT66e6urqtW7dimbV48eKOjg5jLBJh6ZMt8nUFQIPBTA5W5TxkAiyRXdRTp06ZeJXOWDe1wJ/HJticZhhmzpw5pK9FA1hv+gHHJHigKC0tDRI99XsTxJfA0vLly6urq1WD7vLly97e3gEBAXpjbkePHg0PDz9x4sSpU6fi4uLOnz9/586dc+fOTZ8+Hew9evRoe3v7jBkzdu7cmZSUlMxxoaGhgYGBPj4+Hh4eUVFRBw4c8PLymjNnzi+//DJlyhQ/Pz/TW3kES9y9VtQRo5oOq7KyskzAEpkLO3nyJB6tmTt3bklJCboKr3U+C5YaGxuvXr06a9asuXPnHj58GNYcqquri4uLr169mpKSEh0dDfO4BQUFsJdBjxC+ePFixYoVuDH29u1bISz19fWZhqUXL14A5IzBUmFh4eHDh3fs2NHc3PwlsMRjkQU/r1+/DgXo/fv3010uDCULUsNgUavVdOJ16NAh1NFEajRyWZb18PDAKAMsYeFCAbiEiQS5n6iPYf1kJiyhfSG4P3v2DANKIpHAgBbNCdyMUDZRWuLy5KumoQCGvdqmpqbAwECcyUNUgroOaYXSXjyaWVgxbtf8q2i8B7Fs2TK5XD5s2LCIiAje3nRbW9u9e/dwhItjcA8PD1z3o/2ovwmWPD09X716BaNtmZmZW7Zs2bVrV0JCQt7gm7MFBQWFhYXFxcUlJSW1tbV379718PDAKIJ98e+//15vB7a2tra0tBTqhFB8evHixevXrxsaGpqamj58+PD+/fuGhgaNRvPmzZuKigrTl0D/Eljizhd4UZdhmPHjx5eUlGg0Gkwi3NY3B5awkq2pqQkNDYUGwbJlyxITExMSEiIiIvz8/JYuXTpmzBicLsBgz9mzZ3EZCH3Szc3t3bt3sMy0ePHihoYGISzhCqoJaam8vHz58uUmpKXr169fuHDh1q1b0HyzWFri8scy+sqVK9g048KSZUlRLLwcj0749OlT8jdN4DmoOXPmQHAHLJkY4KZTo69cnGBZ9s6dOyNHjsSaw7S0BJBGAUhV5NGjR729vQaXTQjJzY6HqVSkr5z4Vs6WqMHQHk+ePPHy8sIUj7/QBbKzs8ML1likIJawCeH/V/2F8XKNRrNv3z6YUDMoKj1//nzr1q1UWm9v7/T0dCyaSOv6b4KlFStW1NTU4EiJZdmPHz+awIyGhgZ/f3+5XO7m5oYnG7y8vAIDA/GmERdBacWH7UEcXKnVavykJhDyn/uwxZdIS1xYunDhAtbIY8eOLSkp4ZrwoQKcOHFCJpNZW1v7+vqSp/AgqqmpadOmTXiLTyKR4OAHz3Bgopw2bZq/v//vv/9eX1+PBzKUSmVbWxumnvXr17Msu2rVKsxcdXV1FsBSaWkpFgfGpKUnT57QwcY/JS3hRjOZrTt48KDwGgOXz2bSKpUqKysLrB4xYoT5z0tqtdp79+5Bjx8HXZSjwcFOX00TdJcIS5bbt2+PGDHCTFjCiNZqtTBnxTAMtEL6+vqEykQoJO3MY5uaxhENN9Ol/Rq+fiuwRLyG7kB3d/ebN2+SkpK2bdu2evVqHx+f7du3nz59+tKlS1Cl5W7TU1wiDPbRz/WkhQyGYnZ2Ngz+y2QyrqgEvbimpqYbN25gpI0cOXLGjBlVVVW8Fxm4M74Qn75kE8/Ly6uhoQHpY7/bYBeHXYCioiJ3d3e5XL527VqFQqFUKpOTk8mkCvFQSGAjnmztED+FIf8qWOKuK3NycqZMmeLo6Ig79jgS4GV9/PhxKGWsW7eO+4nLDY1G09nZGRkZSdutaLVffvll5cqVe/bsCQsLy8/Pr6qqwiRFul4ZGRkIiTPF1atX/62w1N/fz92m/t9LS5ise3t78U6mRCI5fPjwl8PSwMAAtN6dB93+/fvplJHbZAZprVZ76dIlDEMeLCE89UkQBhMx6EkLx0j7R58AACAASURBVIGBASiImwNLdMikl93Dw8PHjBljZWU1atSo7OxsCEy8vFAq9Gqcj3LlLW4v5UX82n5+c7D0lzQAr3d+yU+WZZVK5fPnz6EC4ObmtmbNGuHDNiqVCmfyLi4us2fPLigo4Mkr1O+FgEQLLiATNwAtrLhsESqIe3t7NzQ04J6NSqUCoMJIOWkGkppARESEvb29s7Pz9evXMRIqKiq2b9/u6ekJrROKzs0UGh8qlQpiClhKV2d4If8OWNIbx9u+ffvQoUNxHmZwE+/o0aOApY0bN3KLxB3wAwMDCoVC/yjJ8ePHsRc0e/bsc+fOFRQUvHv3jhuLS+tbE88djR07trCwUK1Wr1271snJac6cOXfv3sXkkpKSIpPJxowZs23bNtLGbGtrmzdv3ujRo11dXclqFMuyOTk5v/zyi5OTkzFpiZu7ZdKSsYN3bso8+tmzZ3itA/64QwYrBlKp9OzZszDxQAt8XnQzf169enXIkCFyuXzhwoWf+/Z8ZGQkFgfTp0+/ffs2N0fhMOd+NU3T8LQMllQq1atXr/BwJcMwBw8eNJgdtx8iAC16DIb/aj1FWLKkaYQd1HwfGnKIguuKMTExOO7+6aefiouLeXZi2trarg++X+7q6jpixIjTp0/ztHGALoQ3QvghA2W8C09mwtLatWvr6upYln3//n1ZWVlmZubOnTuXLVvm6Ojo7u5+5swZEi67urpgH1Yul9Ms/O7du82bN9vZ2b169cqYsjIXlrC3hpEsHGlosM86W3J2dubeW8Isj7rTX41GU1dXV1BQAG0Cg9i5f/9+3FsKCAjg9hteIXHkU11dHRsbW1xcjAS54YV0bm4ujoJ8fX0bGxsHBgZ8fX1lMpmrq+vJkyfz8vLu3bu3YcMGEpcTExPT0tLS09N//fVXOzs7mA66cuVKUlJSZmbmnTt3goKCcFK1bds22LYQZko+FsASrJE2Nzd3meGw3VRYWDhqUDF6woQJt27d6uvrGxgY0DMnNDQUCkexsbH0GieNDiqkmURHR8f69euHDBkik8nCwsJqamrMjIhgO3fuBJO9vb0LCwspLsrD+0tfP0l8EpZwcMsVj7i0SqV6+/YtKa+uXLny48eP6MbcrLnF02q1tbW15kuK3HT+cVqEJUuagNv8n0sTLJGUnZCQgFvfEonk/PnzQhGhuroaO8uurq7bt29/8eIFLVSpuxMmEQKBIP8v2cRzdXXVvwN08uTJrVu3btu2LTAwMDg4+NChQ/rtJr1pS9wxwrMXz58/xw2wmTNngrOY8jD1bNu2rbS01BjHaRPvL4cl3Eak67QGYYlbKh7M0Cc8/Org4ADNOvLnhYdQqFKpmpubCbApMI/APZv09PRRo0YxDEMpQ48Ol4F4sDRp0qTLly8Dfm7fvo1NJ7lcnpaWdnvQPXz48OjRo7hpgJsuvIUOrwyfC0vNzc2RkZFBQUFbt24NNMOFhoZu3rx5zpw5mPEZhlm8ePHNmzdx7eHgwYOwSpyYmEg72xhWvHKa8zM5ORlC6pQpU7Kzs7u6usyJRWF++OEHPBV24sSJ5uZm+Bsb4xTrkwSNU2PSEg5WuVDEpbHQOXXqlIODg0QicXJyunz5MkE45Y5yYqWVnp7u5+fX29sr1Nyh8F8tIcKSJU1jrJua40+wNDAw0NXV9eHDh7Fjx2K4BgYG4hSa25P6+vrIMsXkyZNramrQxVFug+dJf7m0BP1dbIy4uLjs3r377t27dXV1tEWAU66amprAwEBYjdu/fz9KqFAodDrdrVu3UM1jx45xjzS43P/7YAmSaHh4eEtLCw4XsSYgUYnLcG6ReDQUGRwdHY8cOcL9xIMl3CTjvlTCDSyku7u7g4KCpFKp/vIvaXAsXbqUYZgxY8ZcunSJu4nHMMwvv/yifzijvr4eFt5gOUkqlebn5yuVypcvX7579+78+fOw9gv7T6ZXzVxYkkqln7y31NbWRrfrCGlMEBDmgBZ41UIul+/bt08IS7wRJOTVJ31w+8rBwSE+Pl6vDykUKUynAGO1MpksNTWVHiDmlYp+mk6K+9UgLC1duhSaeNAFhxkILhoRrVar+/r60tPThw4dijtVixcvViqVvH6LgqFXY88fo49bkn8FLcKSJc1E/dICAvZaIO68fft23bp1tra2Mpls165dT548weIamx6gf/31Vwz4sWPHPnjwAI+Uk8UaCENpaWmbN2++ceMGdNjgiYuNn5SWUJIXL16Ul5ffunUrLi7Oz8/vp59+kkqlUAz7/vvvpVKp/jJHfHz8kydPPnz4wJvjVCoVjDhcuXIFioLLli2jS1cYJK2trfotpqFDh06dOvXx48ekRMSd0P8+WIJFH09Pz9raWmOwROt0dAhuwaiL+Pv74wW/8PBw8sQ6g/sTp268F7a0Wi0atLW1tbe3t7Gx8e7du8nJyXv37qXbxw4ODrdu3UJS+utcVlZWnp6eL1++5MKSVCrdvHkzFLEwK9GyBu2CybSsrAxPDeEYzLTQxoWlIUOGQN2Dy4GCggLYxIPxIZVKlZ+ff+vWrYsXLz5+/Pjdu3ckvvP4YPpnf3//hw8fYMLA2tr6k6ZyTaemX2qEh4ej03p5eZnzqAcvwf7+fv27XNgUffjwIWn3GBvmvOgmfhqEJW9v75KSEpi/ozFFbO/r62tra+vs7MTVaa1W293dHRMTY2trC4C/cOECL0chLP1V15N5Gf3dP0VYsoTDxrqpOf6UX3d3d0hICC5vb9++nTAJpywIpre0DXNq+gsucXFxdF+BlvlAnYaGhpiYmLlz54aEhECcwjRBg4F29rhnS0iEZdnLly+vW7du0aJFI0eOdHd3J4t89vb2CxcuPHbsWExMTE5OjrH9kL6+PoVC0dXV5efnBwSNioqiDRDM2nilfsyYMba2tl5eXjipIsERlf37YAnbXJ6enlVVVZ+EJWpEaikicLrj5OQUERFBnjxY6uvrQzNpNBocGKCN6uvrr1+/HhYWtm7duhUrVqxZs2b//v3R0dGpqalBQUFubm729vaLFy8mq0t4l08IS1ZWVjxYwhtODMPwYGnJkiWw6o2nb7kF5tFcWHJ2dj548GB6enpQUNChQ4eOHDkSGho6c+ZMLixR9Pb2dssACSnodLo3b97MmzePYZiJEyea2OClHE0Qd+7cgW73pEmT8vPzDapQm4jOsuy7d+8AS7a2thhH1EWpV3AJ06lxv9JI5G7irV69urKyEjY40HYdHR2vXr3Kzc3VC83Hjh07ceLE1atX3717h4WCWq1uamqiVcj8+fOLiooIxqioXGmpu7v7SxqIW4X/JS3CkiXc5nZN82n0G6xw29vbT5w4gUl81qxZeXl5sFeP0mDBOzAwkJqaij2x0NDQjo4OtVqNcxeSgUCwLNvQ0ODh4eHm5rZr167S0lJACA0G7A/wNvfQfdvb27ds2QJ7ctbW1liLDR8+fOHChcnJyW2DDi+rEqdgYxQSD0Slzs7OtLQ0iEqLFy8mUYmYgwLEx8djPzA0NFR48V6r1UITz+KzJdQIPIF8oNFoMjMz3dzcGIYhWELJEZj3lwrME55Qd8DSkCFDIiMjiRs8WIIKX21tLfZju7u7nzx5cuvWreXLl8OmKhrd3t5+/fr1Dx8+1N/TOnToELa5bt68ibqr1eqFCxdaW1svW7asvLycKy0JYemHH37AvV2DsARbSrTdyi020VxYQn8bPXo0luS2traYB21tbeVy+cmTJ3t6eiDxU3SLCZ1OV1hYCCwJCAgg+0yfm6BCoWhqaoLQOXTo0GPHjn0yBZrNuftg6enpuG3m5uZGHKMuISR4uXABgJssDXxsckBBXC6XEyxhtNbX12dmZu7YsQN36p2cnJYsWRIUFPT06VN0KvWgg4FzqN5s376dTDkTLGHUgxvd3d1UU15pv+afIixZ0jrCDmqOD/pNX19fVVXVvn37hg0bJpPJfH196+vrUQjS/tLpdL29vYWFhVCm8vb2Fko/hEy0IaY/GJ85cybDMGvXrn369ClWWHT4hJW7QWkpMzPTcfCJBOxQBQcHw3gEDTPkBQTqG3SYKLExpVAoSkpKoFYwYcKEiooKEpV6enowPsm0s6+vL64MJyQkUDBUX6PRQGnNYljitgKmFY1Gk5GRgVchCJaoSDxMQr6EbUiN2z8AS3Z2didPnuT6c0e+Tqd7/vx5aGjoypUr7ezs8GwPLtXa2NiMGDFi4sSJly5dgg4CHsOFWMMwDHQXtVqtvvUXLlwol8uXLl2qT40LS3K5HNISSsuy7OTJk2ElwSAs4XIuUuCWmUvzYAkzHWlJ9Pb2ZmRk2NjYAJbwlfoGNx0eTWwhghcA11fROtHR0UiZF8acnwqFYvPmzQ4ODo6OjoGBgfX19QQqvOhUEiJo+LAse+rUKcDSiBEjKAC3U/FoXuLcpLi0QVgaMmTIggULjh49eubMmenTp6MFHR0dJ0yYsHXr1hs3bghfAWZZtqOj48WLFx4eHgjv7u6em5tLHZWK19/fD7PuFrOUV7X/8U8RlixhODW/+QQpRhcXF0M6kcvlR44cqa6u1mg0GOTcrlxYWOjj4wOdpby8PIQhjCFMAgHpqrW1FePK3t7ew8MjJycHQ6uvrw8m1wxKSwMDA+3t7SkpKTNnzly3bh0OisEUmqap38O/c9CRJmFubi5MNesfgaWXOCgF6AvRlZr8/Pxx48YNGTJE/5B5ZGQk18ASttdIIsSij2YHXjuRgnh0dDTvE36Cmb29vVlZWVxYosBgJklFqCP0FIR3FbVa7du3b5cvXw5MJcUEpMYt5MDAQG5uLtYHUEZgGEYul0+bNi0wMPDatWtlZWWYLDB1FhcXYyN3/fr1KLNare7p6VmwYIFMJvPw8CgrKzMIS9RbJk2aJJPJ7OzsuEJMWVkZ0M4CWEJ3AjxDfePChQsQ8iIiImCWgltlYqmQQCPSeosXQKFQhIaGuru7SySSvLw809jJi0s/29ra9NaD0aO2bdv29OlT0wdp2NBG+WGbFUllZ2fDtCvtfHLlD4MjncoAQq1W47n6np4e7r03rAVVKlVVVVVubu7KlSvd3d3xRO/QoUNXrlw5d+7cNWvWbNiw4dChQ/n5+XSzgrvbQcOtvb09MTERzWFraztmzJjY2FjaYIe9+b6+vtmzZ9O+Lq+cX/9PEZYsaSODfdS0J7KprKzEAa9MJtu7dy898UfrdwR79+7d7t27rayspkyZkpeXhxclMA0ZRCaqQ0lJyYEDB7A2nzZtWn5+Pq15Sc+HC2mYegiZKioqWlpagEYIRikbI8rKymbNmqXHGL1p7ZiYGMoOQxpAiFx0Op1Sqezp6cnKyoJoBYtt1dXVNMfpdDqulQdj0xn3Om1SUpLBsmFIf/z4MTs7mwdL4DbV3WB0tVqtUCgwwalUqsbGxvz8/IkTJ2I6OHv2LDcWlR+eeXl5CIa/U6dO3bFjR2lpKS1NEEypVL5+/RqPWWAjF/44q5s/fz4MAZSWlhqDJaVSqdVq6VUIBMPfvwSWqI5ZWVlWVlZDhw4l833gIQUwRtCgwNSMuZXLLhydMgxTW1vL9TeWIM//7du30dHRwPV169bBhDkvDG9yx1fKS6fTKRQKPNzn7OxsbW3t7Ox89OhRCkZVEBK8jKA4h4GjUqkUCgXWH5WVlY8fP05OTvb19aWDQPQNd3d3T0/P1NTU58+fc1OjYY4RBAt4NDDb29uPHDmC/XCYnD9//jw3+sePHydPniyRSOhVFO7Xr58WYcmSNhJ2UBM+yECr1aalpeGQY968ednZ2VqtFstSbgm0Wu379++jo6MnTpz43Xff1dTUCJ/doy6LiZV+sizb1dVVX18/adIkurpx584dqBIgO0hdhEyUApCJSkIyBPkQQeuyzs7O5ORkCATu7u4XLlwAJmHyRal48hkSwbkazOPiSb2srCxYiyAAJlVDmj6oACBIWpozZ05mZmaa4OGMEydOnDt3LikpydfXF7C0ZMmSqqoqTFKYH6n6mGSbm5vfvn0LdsGQEj3eoz9iCwwMtLOz018PGjFiBO/RDWEhfXx8bG1t8TZSbm4uPY+EwkN2VCqVZFOAriupVCpkPW/ePIlEsmjRIpgzZ1kWVh5oE48YAlhydnbGqQ+WL58LS2q1mh62IGmJsnj58mVGRsbvv/9OrS+sMgXmwgCtt6he2FumwLixxzDMZ4lKAwMD3d3dbW1tSUlJOPry9/evqqqiZHmEWq1ua2tramrq7u4mQxIIg4p0dHRABLG3t582bRp0Ak0Manzi5cKybHd397t37yorK3NycqKiovbs2QPxGsAJKHJ1df3pp5/27t2bm5sLYZTHTDAQnZOGKpdgWba9vX39+vU2NjYY6S4uLkFBQVVVVRiDpaWlw4cPl0gkr169Mme7VViRf9ZHhCVL+P/J/op+RsFycnKCg4OXLl36008/+fj43Lt3j/YHQGCWbG9vLy0tPX36tIuLy7x5886cOQNM4qIXt8vCFGNHRwcscPf09LS2tj5+/HjWrFlOTk6Y97dt21ZRUaFQKGjZxe3fNC9/LhfKyspOnjw5ZswYV1fXWbNmnTp1inaxuXlRprRYRkbt7e3Hjx8HWlhbW0+aNOns2bOlpaXY0iS+mSMtLVu2LDs7W6+brted5bpjx47FxsZeunRp27ZtyMjDw4NgiSpOxPPnz2NjY/UPeB8/fjwjI6O8vLynp6e3txdNWVZWNm7cOAcHhxEjRmBjjcsx3rTS39//+PHjlJSUs2fPfvjwoa+vjzcVYpNQqVTisGrFihV3795FglhlKxQKqHcvXLjw6dOnSJ8HS1qtFisAf3//FStW7Ny5k9tPPheWNBoND5a4lfrw4QO3vmbSGo2mvLz8/v37Bw8ePHPmzIMHD168eNHe3k6SVnl5OXopwzDc7Iylzw3z9u3bHTt2jB07dsaMGV5eXqTBaCxuRkbGr7/+mpycjHsOPPWKx48fb9q0SSaTOTk5LViwoK6ujjqhCYKXFxZqfn5+P/7446hRo6CqLpfLQdjb2y9YsGDbtm2RkZG3b98WKiPwhjb1TFp30siFEJ+Xl7do0SJsEQPwVq5cmZiY+OjRo9jYWDzm8uzZM26v4BX4q/0pwpIlTWNmTx0YGOjt7S0qKvL19cUtyIyMDOpbSITkkvb29uTk5CVLllhZWdnZ2ek1touKit6+ffvq1avi4uJr166dP3/+5B/u+PHjoaGhhw4dCgsLO3LkCKbjiIiIgwcPbt++fePGjWQn1MXFJTY2FjdpeLILHR1RGT7JC8wLRUVFISEhMIy9Zs0a6EcAWWETGrsZwFRCJuy208+qqqrly5djrYdB9cMPPwQFBb1+/bqlpQVrarDIYKlIWtqyZcvrQVdRUfHixYuXg66ioqKysrKioiIvLy8yMnLcuHEuLi5z5sypqKjg1po78nNycnx8fKRSqZ2d3XfffTdv3rywsLD09PSioqLk5ORffvkFG49WVlZZWVm8ItF0SQQvgPBne3t7TEwMjO7cuXOHIuJwyxgsYdEdGhoKqQXXUd+/f9/W1oYUaA56/Pgxep05Z0ssy2o0GhcXF9x1RSIEHsLCm+nT0dGBG3X29vbW1tYTJ07cunXryZMnHzx4UF5efvHixTVr1sDA0qJFi8xJE6JAS0tLfX19cHAwOvnOnTtzc3M/KWwlJycvXLgQ5rLmzJlz+vTpsrKynp6erq6ud+/ecd9g27x5M9cwo5mDHQ+lHz16FMoI6NL46+DgoO8/iYmJJSUljY2NxhZbJjIiZKLhA7sPv/322+zZs+3s7KCKiexmz57t4eGBLb4HDx5AhjaHvV9PGBGWLGkLEx2IPmm12ry8vF27do0ZM2bSpElXrlyBPEGwxJ0TBwYGHj58iDkaayvJoGMYxs3NzdnZ2cbGhtvzqNMPHTp01KhR8+fPX7ly5YEDByIjI2/dupWXl7d69Wq5XA4t0uXLl3d3d1OHpgJwJ2gU2zQvoDqxZ88e60E3efLkmzdvVlVVKRQKbL5BW4GrXkGZgoB4B5pl2ZaWlvXr11NdpFKpo6OjTCYbOXLkli1bMjMzTZSKYIm0DzB0CWKx9mxpabl16xbUr3/66aeHDx9y2Q4aDEGpCgoKAgMDhw4dyt11kcvljo6OmLKdnZ3r6up4GyMEKqYZSF97e3vfvXvn7u4+cuTIgwcPYrbFV9ia48GSVqtVKpWFhYU7duy4desWDgza2tpw+tXe3t7U1FRbW1tZWQkdYpZlb926hZMw07BE3VWn002ePHnkyJFr1qwBLPHqSIU3h6CFv0ajaW9vf/bs2f79+yEYOTg48CZuFxcXYweEvLxgTKSurg5vdowaNeq3336DVUleSO5PFEaj0SiVyqSkpBkzZsDWkXTQUfeTSCR4BzI2Nrajo4NUdYhFQoKXi0KhePXq1YoVK9BVJBLJhAkTcMsCm3XGAImbjjGa+iqNKZ1O19PT8+rVKxh0gGY/FjowAMYwzLVr16CfaSzZr9NfhCVL2kXYQYU+9fX158+fPzJ4G/HatWuksUoLH+78CGv8kyZNwiAhBCJixIgRU6dO9eO4/fv3HzlyJCEhQX9kdeHChczMzOfPnzc0NGBjJzU11d3dHQhnZ2eHXSN0aIOwRAOGKkLbjJhz8/LyAgICNm3a5O3tvWjRogMHDjx+/FipVOIQCMt2iEfQWaDBwyW4t3phAf3ly5d79+4lDIBpiYkTJ27bts1MWIqIiCCxjM6EsWeoVqvfv39/9epVNzc3FxeXQ4cO1dTUcNnOpdEPurq66urqrly5EhoaOnr0aLzCRY0il8t3794t7DGfC0tVVVUHDhywtrbW61/V1tZC0ESy0A1TKpXcTTyojPf19T179ozUzGB7RqPRYMn/22+/xcXFhYSEeHl57d27d+nSpVgvr1+/nqtvxis8mhuCUUpKysWLF3EagcMbbmfgRTT9kyKie7AsW1tbm5mZuWfPHmdnZ7y9Ca7KZDJ/f3+eOXxjiT958iQiImLdunVz584NDAxMT083FpLrD1jSarVqtfrjx49Pnjzx9/fHKa+tra1EIrEfdBKJZNiwYQEBAU1NTbgjSLUwRmCMoBeRrmlWVtaSQXfixIn8/HySX2mIcctmPo0y0OyBro5Zpb6+PioqasaMGTSOCGv1o7WoqMj8XL6SkCIsWdIQxrop17+6uvrKlSu4U4k7Qz09PZjHAQzcORHzQnp6+vjx42lfC+8aREREpKSkVFRU4Bk9WociEW7pYVkL5rP0xoS8vb2pd5oJS9zyc2Hp3r1727Ztw72QvXv34kaF3koFBCOUgbCBi0MmaDI9UFJSAnNHw4YNs7W1HT9+/OHDhx8/fkzX7Ll1JJqkpcjISMoaX1ELqHi0trZev359yZIlHh4ejx49okUrj/ngf3t7Ox0m9fX1xcTE2NjYYBplGMbR0XHNmjWvX7/m6S9Qkcwnjh496uDgoN8qzMvLA6RxRRMITDxY6unp4arOU1642tzT01NcXLxnz57hw4fb2NhwnxwELJE2OUXkEtgBw4JGoVBgAkU1LZtMqSNxcwGN26DgJx5Z/vXXX2nuFobn+gQEBIwePdrNzS0+Ph6S0yf37jBeaClGqaEYEGusrKxcXFyGDRs2f/58nDnh2SeqhTGCO0YQRqlUNjU1lZWV0WVErDk+d+FC5eQRNPypA8NnYGDg5cuXS5YsQY1o4Otvm506dYqXyNf/U4QlS9rIWDc14U9SBRbytMKiKBqNpr6+/vjx48OHD4+Ojn748CEuiKDrk5xBO2800ojADEIzLO6aSCQS/ZmTZbD05s2b8PBwHx+foUOH+vj43Lhxo7GxES+lohh0RRcYYAKETH9qa2u7cOGCp6fnggULEBLpgznCFlIoFPv27XNxccnIyGhoaBCaUqaDLqhQU+5IFhyjgc0luNNcY2NjVFQURvj8+fNjYmKKi4s7OjqEM7U5kw7tpWRlZS1dunTy5MlkC4MrLQE4VSoVTPJs2rTp8ePHdGIHVvCyI5VOnU5XXl4O7T68C8UwzM2bN1FBIRvJh4cKYDvOV6h38TKluJ9LPHv2bNq0aeCqv7///fv3DT4EzEs2IyNj9erVkyZNio+Pb2lpwV6lsCF4sbg/eUxobGwMCwsbMWIE9ruWLFmSmprK7Qk0MLkED4e46eMTzwc/P6ucBlPgehIyUcG4X9+8eRMcHPzDDz9AA5BhGB8fH26AfwUtwpIlzUQdwnwCXdN0l2JZtq2tLSUlBe9kY7YFIEEg4M6nNF8QgYkDf9VqdVFRkYeHR1xc3PPnz7myP4UnhMNopLoQRz58+HDlypXw8HD9mX9BQQHOxgCrmOih2sCd9LmJfxZdU1Pz/PnzoqIiikUco/JwiaKioszMzJ6eHtrU4n6l6YN7QkAJcmcfHo0LIkhKp9M1Njb6+flt2rTp+vXrLS0tPCNMvBxN/CQjF3V1dfv37/f09MQWJdYQ3Ig4flOr1TExMcHBwUVFRVi5o7G4IYnmznpKpbK+vj45OXnmoEtOTqa7cRReSPCKgZ4A1hF/eN3DYpTq7e3Nyck5cODAyZMn79+/DxHNxJyO0hYUFERERCQlJZE1RZ5up7BSPB+UnzzRuGFhYQEBARERETAfjDC84UAVp/FFPpQaCGM84WXNi/W5Pyl3Irgp4HHkgoKCuLi4ffv2rVq1ysytTm4i/zgtwpIlTUAd4ssJY9kjZbpsBFjiDhiaL4jgjgrcQ3r+/HnXoMMaHDM+hadpmlsLbnlg4PnNmzfkibgkupFkAx9CFPMJmlIxcdO1Km7ZKHcuYXpXikLyeMKtqUEaFeTGIsELnyjlzyKQl06nKyoqWr9+/bVr15AFiVDIhVRCNBpNb28v1gHGcNdYAYAxzwcd2t1YSPLn1RcggSag3kLsQixhFErtk0RXV5dCoSBVBfQWpG8sbnt7e01NDVjR39/f1dWFlZax8Gb648VFWvNRHXkEIfQrmgAAIABJREFUNzXuJ67/V0JjxiCwf//+PXd/+Csp5CeLIcLSJ1lkIAC3a34hTalD8qCfmKcIloRbfzRfEMGbKUjJAmlSMC4hLDy3AEIacTGPCIUkbspm0igAZcSNRWWjr0SQ6hqvyhTAIEEJmiAIDrkp0Pb9Z2XHSwG4q1AoWltbcQ2I5g6EJImWJFFuCubTKCQS+aQUYixZEyxCFItZwbIs786QObDELWd/fz8uG/CEPG4Yy2hjteamxg3D9f9KaGoXIfGVlNCcYoiwZA6X+GG4XdMYzY/z+b8xkWHQYr42lhf8TedgOi51YhOJ0A4kFzxoHifikxnxAvByNP2VF9iyn7wsDP7kpWwOf3hReD/BPZ4n9yexF+X5y+dcbl7m00LmmB/XzJCUhZnhEQyxPiuKGPjfwgERlixpKRpIJghL0hXE4U1V3KEozFoQ+08ewvCfO9UaTOELPf9UxP/0DzNhicvP/zQ//n/lqMr/38sM6nN7rxlJikG+Fg6IsGRJS9BAMkFYkq4gjsH0EUr4SRD7Tx7C8J87sA2m8IWefyrif/oHGGWiikJOmgj83/tkQW/87zFBrBE4IMKSJT1BOIMIfSxJV4wjckDkgMiBb54DIixZ0gWEICT0sSRdMY7IAZEDIge+eQ6IsGRJFxCCkNDHknTFOCIHRA6IHPjmOSDCkiVdQAhCQh9L0hXjiBwQOSBy4JvngAhLlnQBIQgJfSxJV4wjckDkgMiBb54DIixZ0gWEICT0sSRdMY7IAZEDIge+eQ6IsGRJFxCCkNDHknTFOCIHRA6IHPjmOSDCkiVdQAhCQh9L0hXjiBwQOSBy4JvngAhLlnQBIQgJfSxJV4wjckDkgMiBb54DIixZ0gWEICT0sSRdMY7IAZEDIge+eQ6IsGRJFxCCkNDHknTFOCIHRA6IHPjmOSDCkiVdQAhCQh9L0hXjiBwQOSBy4JvngAhLlnQBIQgJfSxJV4wjckDkgMiBb54DIixZ0gWEICT0sSRdMY7IAZEDIge+eQ6IsGRJFxCCkNDHknTFOCIHRA6IHPjmOSDCkiVdQAhCQh9L0hXjiBwQOSBy4JvngAhLlnQBIQgJfSxJV4wjckDkgMiBb54DIixZ0gWEICT0sSRdMY7IAZEDIge+eQ6IsGRJFxCCkNDHknTFOCIHRA6IHPjmOfCtwxLghNsNBgYGuD8N0kIQEvoYjCh6ihwQOSByQOSAaQ78B2HJHFwhphAsUaz+/n76aowQgpDQx1hc0V/kgMgBkQMiB0xw4L8DSx0dHYAWnU5nosK8TwMDA/39/RSlr6+P8IkXkvtTCEJCH254kRY5IHJA5IDIATM58N+BJTMrzAsGOOF5fvKnEISEPp9MRAwgckDkgMgBkQNCDvzrYQl40P+HE9bQtPSD6L29vdi7g+Sk0+mQnjA1+AhBSOhjLK7oL3JA5IDIAZEDJjjwr4clqtuzZ88uXryYnZ1NO3IsywItKIwxQqVSsSzb09OTl5d34cKF7Ozs1tZWY4EpWSEUcX1MRBc/iRwQOSByQOSAMQ78d2ApKirKyspq4sSJx48ff/36NVWYoIJ8hIRGo2FZVq1WBwYGuri4DB06NCEh4ePHj8KQ8KE0TRDG4or+IgdEDogcEDlgggP/NViyt7eXyWTjx4+vrKw0UW3eJ2z09ff3Hz58mGEYa2trhmG2bt3KC0Y/hWjEsmx/fz/XnwKLhMgBkQMiB0QOmM+B/w4sxcXFyeVyZtAFBwer1Wrsy5nPC5ZlY2NjraysZDKZnZ1dTEyMMC4AjAs/oFmW1el0XH9hXNFH5IDIAZEDIgc+yYH/DiylpqbKB52Xl1dnZ6c514+E3ElNTR07dqxMJgsJCWltbeXCjGmaZVmtVssNI0xc9BE5IHJA5IDIgU9y4D8FSzY2NnK53MvLC6LSJysvDJCamjp8+HCZTBYdHd3d3Y0AABuiQTQ3N2dkZFRUVFAiIiwRK0RC5IDIAZEDFnPgvwlLFrMD0pKVlVV8fLyJRAoKCnx9fd3c3Hbu3NnQ0ADJTIQlExwTP4kcEDkgcsBMDvy7YQk2GlBVbOLJZDIvLy9u5T9rNy81NXXkyJEymSw0NLShoaGL4zo7O+mXv78/DrHs7e3Dw8Nra2txzwlyFf5yyyDSIgdEDogcEDlgJgf+3bDEtRuUmppqZWUllUp5sMS9xvRJpqSmpo4ePZphGKlUKpfLbf9wdn92tra2DMPgr729fX5+PuVCyPTJvMQAIgdEDogcEDkg5MC/Epb6+vqgkK0bdH19fUqlMiMjQyaTSSQSPz8/bj21Wm1jY2NOTg48CT+4YYhOTU0dP348wzA//fTT/v379wpcUFBQcHBwSEhIWFhY+KC7evVqR0cHkiVMMm1agrITCZEDIgdEDogc4HHgn4clmsHb2tqocD09PUQLiezs7LKyMqVSyf2UlpYmlUoZhlm5cuXAwIDmD6dSqSIiIjw8PHJzc9+9e/dJWHJ1dXV0dExISFAqlWozHEzE8i4tUaW4JRRpkQMiB0QOiBz4JAf+eVgCugwMDFy+fNnT0/OHH35YtmzZqVOnjBVdqVROmTJl0qRJO3bsKCkpqaioeP/+fVtb2+nTp6VSqUQimTNnTllZWfEf7sCBAw4ODthzS0pKampqMpYyysCFJWMhhf5cOUk8WxLyR/QROSByQOSAmRz4imApLCwM5hXkcvkPP/xgogKjRo1iGMbZ2fns2bMXLly4c+dOXl5eRESERCKRyWRTp069fPnyxT+cj48PwzCOjo4Mw+zfv5+05oTp9/f3X7lyxc3Nzd7ePjo6urm5WSgs4c6sMK7QUJ7BMKKnyAGRAyIHRA6Y5sA/D0s4KNLpdPv375dIJAzDSCQSBwcHE+UmWNq+fXtsbGx8fHxaWtquXbugpzBlypTU1NTkP1xAQICrqyu0GFJSUrjKezqdTqFQ0GagSqW6devW0KFDraysEhIS+vv7FRzX0tKCIvX29mq1Wl7xRGmJxxDxp8gBkQMiByzjwD8PS7j6ahkslZaW9vb2AtgSEhKkUqmNjc369ethCggKERkZGZMmTZLL5YsXL/7w4QPLsnl5eQ8fPmxsbFQoFOCaTqfTaDR9fX05OTnjx493cnI6efKkQqHggc2bN29CQkLmzZv36NGjzs5OxP3jSY0/GcQTz5Ys645iLJEDIgdEDpgLS6Y1Bb6Ej7DerdVqLZCWoPiAZylu3LgBWNq7dy/09AAYd+7cgXTl6enZ2tra3d0dGxvr6enp7e196NChuEF34sSJ6Ojo2NjYdevW4ULS/PnzDx48GMNxsbGxW7du/e677yQSyaRJk6Kiojo7O9va2kRY+pLWF+OKHBA5IHKAx4F/HpawIWYZLD1//lylUgHY4uPjpVKptbX1unXruJX8/fffZ86c6eTk5OXl1dzc3N/fHxkZCeyBadehQ4fa2Ni4urqOHTsW/jKZzGrQyeVyGxsb3FkaNmwYvuK60qRJkxoaGniWHbjSFbcMIi1yQOSAyAGRA2ZywFxY6uvrI3MJ3Mn3y3er/ipYSk9Pl0qlMpls7dq13Mr//vvv48aNYxjGy8sLCuL37993c3NjGGbjxo137tx58+bNYzNcY2Pjnj17ZDIZwzC//PJLQUGBWq0W6oUTc7hlEGmRAyIHRA6IHDCTA2bBkk6na2trKy8vr6ioqKur6+npwbENJmUzczIWzAJYgiEGvQDElZbS09Mlg84ELNXX1+t0OsCSvb19aGhoVVVVb29vF8cRrgwMDHC8u9Rq9cmTJ+3t7W1tbf39/aEBIUpLxppV9Bc5IHJA5IBlHDALlgoLCxMTEzdu3Lhu3brDhw/fvXu3qqqqra1Nq9WSCGVZ9ngPAn/NP1saM2YMdL6FsMQwjAlYqqurI1iys7NLSEiAwgUXirgV4fnHxsZiH2/Dhg0IptFouGG4NDcdkRY5IHJA5IDIATM58GlYOnToEPS2MSMzDANjcceOHfv48eOXI5MF0hIOgRwcHD4XlmprawmW9MAWFxeH3LlwQioMvA06lmXj4+NxX+rAgQPgrwhLZvYzMZjIAZEDIgfM5IApWGpoaDh16tSIESMIkLjE+PHjjx49yrJsV1eXmZkZDGYBLOGsyN7e/gthKTY2FhqGXCi6fPnyvn37UlJScJxGn1iWTUhIgLWIDRs24FBNo9FQAC62ffmRm0FeiZ4iB0QOiBz4z3PAMCzBJF1UVNTw4cO5UATrPjjCgf/t27e/kEcWwBKsqQ4ZMuQLYencuXNCWPL29mYYxsXFJTExkSAHe5U8WOrv74ewiGAiLH1hTxCjixwQOSBygGVZw7DEsuyHDx8w+xMsyQYdkIk8PT098/LyvoSVFsDShAkTJBKJnZ3d3wFLEydOZBjGzs7O29ubB0uJiYkkLeGTTqejMCIsfUk3EOOKHBA5IHIAHDAKS7///jthD8Mw+nfEra2t5YMOd3rw1dnZOTY29ku4aQEsTZw4USqV2tra/h2w5Ovri/ru3r2bIAfSUlJSEg+WuAFEWPqSbiDGFTkgckDkADhgGJZqa2txDQjYg/tAhEm4u4NPMB/3Jdz82mBp+fLlsMt35coVLuqwLCvC0pc0tBhX5IDIAZED5nDAMCw1NzffvHnTysoK2CORSGAFFc+/whN/7ezskpOTzcnJWJivE5akUqkIS8aaTPQXOSByQOTA38cBw7DU39//6NEjGxsbQiCZTGZjYyOTyXC2RPKTq6vr1atXv6R8XwMs4YgIlvSWLVsGc+PXrl0TpaUvaVkxrsgBkQMiByzggGFYYlm2uLjYzs6OYMnKysrW1hZaD/gLY3HffffdjRs3LMiYonwNsES3r/r7+wmWrl+/LsISNZNIiBwQOSBy4H/DAaOwxLLsihUruLA0ZMgQ+gl5gmGYY8eOmXjv1Zw6fCWwBE1xhULh4eHBMMy8efPu3bsnwpI5LSiGETkgckDkwF/IAaOwpFKpbty4MXfuXHt7e4AQCU92dnawvb1169b6+nruu0QWlOxrgCWdTgcrRB8+fJg7dy6MsT558kSEJQsaVIwickDkgMiBL+GAUVjSaDS9vb2pqalTpkyBkEQaEAzDODk5rVy5srKyUqvVQs6AerQFRbEMlqCo/bkK4m/fvtVqtb///jteqaDrtAMDA3gfvbi4+IcffmAYZtmyZdXV1SIsWdCgYhSRAyIHRA58CQcMwxLeEVepVP39/bW1tcHBwTD3AGSaNm3aqVOnXr58ybIshIwvKcHfAUtc2z/chy3ev3+v1Wrv3LnDgyWWZVUqlUKhuH//Pmrq5eX1/v17EZa+pGXFuCIHRA6IHLCAA3xYojuh/f39sEOq0+mUSmVpaWlISEh6evqVK1eKiopaW1sVCgXCWJArN4oFsARTrSZs4n348OHevXvJycmbN28eMWKEg4ODtbX16tWr29vbNRrNzZs3hbCkVqsVCsXx48ddXFz05mhPnTrFfXlWvE7LbTKRFjkgckDkwN/HAVOwpNPpBgYG+vv7dTpdd3d3bW1t6/9r78xjorr6/39mMhsBxhpEjFSNX61xqbEucSOuwVajtaaP1tTqY7QPRlziGhSNWkwVSR8rcWtalSjVpqJGq8bqY6TVuJGiElQMuARUwiJhZpjJrLlzfj58fj25vcwMV0WYp/O+f9Azdznn3NedzsvPOeeeU1397NmzyspK0XbXJgtbDB06lNoVgzXiVVRUbN26deTIkUajkd6NZYwdPHjQarV6PJ6jR4/Gx8czxrZv3y7q7/F4vF5vSkoKdaEdPHiQvCsCJrxO+/a+hcgZBEAABASBoFoiIYngiT6Ky1ow8RrREs0gTnPiOZ1OyoGWAZSvt1RSUvLFF1+QwBITEx0Oh91ud7vdhw8fFloSzX00O+2gQYNoFY979+7J57tDtNSCTxxZgQAIgEAIAqG0JHcS51z8gofI7jUOvYaWyByjRo2iaCmYljjnV65c6dq166hRo7Zs2eJyuZxOp8/nk2tJVLiuro5znpCQoNVqGWP19fX0di1FS3TvmHxI4EICBEAABN4SAaWWRDFyJ70lIVFZr6qlurq6/v37z5w588GDB7W1tW63m4YCNo2WaERGXl7e5cuXKRjyeDyc89TU1NjY2M6dOx87dkzcr9frvXXrFmPMZDK9++67LpfLZrORnBoaGug0Wtiiffv2x44dE3wUqwWK/SJnJEAABEAABNQTCKol9Vm84ZmvqiXO+d27d202G3V6iXmDgmlJXj0S2J49ezIyMvLy8ugjnfD06dMlS5aQlmh5wxs3bqxZs2bPnj2FhYV0Tmlp6YULFwoKCu7fvy/0EywhLxdpEAABEAABlQT+97Qkj07kLWzqtXTnzp2Kiory8nJ5FHj+/PmuXbsyxvr373/r1i2v1/v48eOdO3fOnj17+fLl+/fvr6qqEpEZNWnS5dCSyq8aTgMBEAABNQT+J7UkbkzuFTVaogDLbreLHKhZj3OekZFhNpsZY6mpqdTiZ7VaHQ7HggULYmJi9Hr9hg0bAk6zBC0JmEiAAAiAwJsTiEQtCWp+v5+0dOfOnX79+hmNxqioqEOHDnm9XnqhmHNut9szMjJoXY++fft+/fXX4nKyF7QkgCABAiAAAm9OILK0RAqRU/N4PE+fPp06dSqNI09PT3/x4gWdQKGYz+d78OBBRkaGwWCIbtzmz59Ps7iKfAKaSRxFAgRAAARAQD2BttcSjTvw+XzLli2jkd8ajcZsNge7B/ECrGLMesBGPNFGJ89N3vRXW1u7c+dOo9Go0+kmTZpUXV3NOadRGHQJjSm32+3Lly8ndZlMpiFDhuzbt48aAwM6SV6EvGikQQAEQAAEQhMIFy1JkvQ2tCQXjAAhnPH8+fP169czxvR6/ahRo27fvk3n0PQW4nxKeL3eJUuWUGseYywuLu6nn36iMwOaSXE5PoIACIAACKgh0JZaol9zin78fv/Zs2d79uzZsWPHXr16ffjhh8Fq/0rRkvxkkSG55ObNm4sWLaJhDv/4xz/Onz8vpp2VDxyXX3Xnzp358+cbDAZaeqpfv345OTkBnSTMJy5HAgRAAARAQA2BttQS1U/8gpeVleXm5h44cKCwsPDu3bvBai83jbiWcx6wEU9+gsjQ4/HcvXv3s88+MxgMUVFRM2bMICeJCZYCXuXz+err6+/cudOjRw+SmdlsTk9Ph5YEWCRAAARA4M0JhIuWyAR+v99isYS+q9Ba0mg006dP9/v9AZvvKB76/vvve/bsqdVqo6KiVq9eXV9f73a7hV2ClS5JktVqdblcmZmZHTp0oH6m1NRUcaEiESwf7AcBEAABEAhBoO21RJUTWnI4HPTCbLBKy0MZefrHH3/UarU6nY60FLAhLi8vb+3atRMmTEhOTp40adLWrVsfPXokL0ieoXw/zY9HA8drampGjBjBGIuJifn0008VNhIfFZfjIwiAAAiAgBoCYaEl+imnkXVi3u5ghgi2f+PGjYwxnU43dOjQoqIieqlIIGhoaPjPf/7zySefREVFDRgw4NChQ3V1dfLAq1kXUhOf2+2WJGn79u00oysa8QRhJEAABECgRQiEhZbEXD6K1TQC3mEwLdH03lqtNjU19eHDh/Q+LM1OdOvWrWXLlnXv3n369OlXr161WCwUkzUtN1iJJE5JkrxeryRJz58/37dvX3Jy8unTp0V4pEgEzAo7QQAEQAAEQhMIOy3Jf9xDV11+1O/3nzx58vPPP587d25+fr7VaqWjPp/P6/UWFhYePnx427ZtFy9epCV3xfxDYpW/ENGSqJJ8Cj632/3777/X1taKo4qEvHpIgwAIgAAIqCTw99FSfX19bW0ttd2J8Q6+xu3Ro0cWi4XCrKYv2FKIpkZLIpijV25pAIXCRuKjygeA00AABEAABOQEwkVL8jq1YDqEbOSlkEvke5qmhW9Ib/J+qaYnYw8IgAAIgMDrEfiba0mNb14PXLAurtfLDVeBAAiAAAgQAWjpNb8J0NJrgsNlIAACIBCSwN9cSyHvHQdBAARAAATCjgC0FHaPBBUCARAAgUgmAC1F8tPHvYMACIBA2BGAlsLukaBCIAACIBDJBKClSH76uHcQAAEQCDsC0FLYPRJUCARAAAQimQC0FMlPH/cOAiAAAmFHAFoKu0eCCoEACIBAJBOAliL56ePeQQAEQCDsCEBLYfdIUCEQAAEQiGQC0FIkP33cOwiAAAiEHQFoKeweCSoEAiAAApFMAFqK5KePewcBEACBsCMALYXdI0GFQAAEQCCSCUBLkfz0ce8gAAIgEHYEoKWweySoEAiAAAhEMgFoKZKfPu4dBEAABMKOALQUdo8EFQIBEACBSCYALUXy08e9gwAIgEDYEYCWwu6RoEIgAAIgEMkEoKVIfvq4dxAAARAIOwLQUtg9ElQIBEAABCKZALQUyU8f9w4CIAACYUcgUrTk/3NrkSfg9/t9Pl+LZIVMQAAEQAAE5ASgJTkNtWm/3+/1etWejfNAAARAAARUE4gsLXm9XqfTyTnPzc1NTU3dvHnz2bNnrVaralz//0S/3+9yudatWzdnzpyNGzeeOHGitrbW7Xa/aj44HwRAAARAQEEgsrTkdDr9fj/nfOXKlQaDITo6etiwYQcOHFBAUfPR6/X26tUrPj4+JiZm7Nix+fn5aq7COSAAAiAAAqEJRIqWiIIkSZxzSZIWLlwYFRXFGrdNmzaFZhTs6LBhwyiHuLi4H374QX4ayU++B2kQAAEQAAE1BCJLS0REkqTt27czxkwmU9++fa9du6aGVNNzZs6cSVqaO3duVVUV5/zPcRV+8l/TS7AHBEAABEAgNIHI1ZJGo2GMLVu27LX7hFauXElaun37Nue8rq7OJ9sEd+rNevLkidiDBAiAAAiAQDACkaglv9+/ffv219YShUTUQUVaunLlCvH1Nm4vR0PIx+k9fvx47969I0aMyM3NDfYYsB8EQAAEQIAIhJeWVHbJiLYyYYiAj1McpWxFwxppiYzyqtGS3//fBjpJkvx+P0VLZrP59OnTdXV1Vqv12bNnT58+raioKC8vr2jcLl++vH79+ujo6ISEhHHjxt24cQMvPAV8WNgJAiAAAkQg7LSk3kyiLyfYsySF0Gk00oHOfHMt+Xw+SZJEI96qVat27NiRnZ397bfffvPNN5mZmVu3bv3qq682bNjw8ccfk/+0Wu0777wzb948m80WrMLYDwIgAAIgEBZaslgspBCVTqJ4hdwQ4hLK0+PxUI+Px+PhnNtstrq6unXr1jHGNBrNunXryBMWi0XNt4HylGtJo9EMGTJk2rRp8+bNG6lig5bUcMY5IAACEUugjbUkpPJK77R6PB5Jkrxer7g84POjRryioiIa1GC320XktHPnTsaYTqfLzMyUX+twOI4fP56VlRXMUk21xBjLysq6dOnSiRMnflWxQUty4EiDAAiAgIJAG2tJXpvKyspbIbfi4uJ79+5ZLBaHwyG/MFiatLRq1apDhw7V1dVxzj0ej8vl4pwfPHiQBojLteRyuc6ePTtw4ECj0bhhw4anT58GzFl0WYlGvIcPH3LOacRdwEvkO1VWXn4J0iAAAiAQOQTCSEsbNmygbpjQf9u1azd27Njc3Ny7d++qeU5ms5kx1rt379TU1KVLly5btmzr1q09evQwGAyMscTExGXLlq1atWrlypUzZsxgjGm1WsaYwWBYvHhx6PxXrFhBVb13757dbnc4HGJURYgLyYshTsAhEAABEIhkAmGkpaVLl4YWkjiq0WgSEhI+/vjjbdu2NfsyrLgqKyvr1KlTRxq3YcOGxcTEMMb69Onz3Xfffd+47dq1q1OnTnR+QkJCVlYWfTPE0DvFF0VES/fv329oaFAcpY8itBJHQzc8itOQAAEQAIHIJBCOWtJoNFqtVqfT6fV6g8Fgatx0Op0QDCXEi0elpaUhHp7RaNRoNCaT6Y8//nC73fWN26ZNm/R6PWNs1qxZjx49qmrcKioqFixYQJl/9tlnRUVFnPOamppgma9evZpCrkePHtFgCptss1gsVxq3YN1UwbLFfhAAARCIZAJqtfRW/41P4YgiWsqRbXl5edu3b58xY8bw4cM7dOggV5TJZPrwww9F9ZpGJ0ajkTEWExNDj9nRuG3dupUa62hCPLrK7XZv3LgxOjqaMbZ3796XL8w2NDTMmjVr8eLFv/zyi+JbUl1dPWfOHNLSqVOnOOfuv26rV682Nm6rV6+mnq1mR7QrisBHEAABEIhAAmq1pKbX5PXw0ZJ6Pp9PoaWGxo36bOx2e11dXVlZWVFR0ZYtW6ZMmUJyejmUjqyzceNGKt3n8wlF0R6KfsxmM92Cq3Hbtm0b7U9LSxPV9vl8GRkZHTp0eNlI+N1339F7ryNHjuzYseMHH3ywvXH7pnHLzMxcv359//79KZP58+dnN9kGDRqkadwGDRp0+PBhMhNVjyyoqKeoBhIgAAIgEMkEwldLsunl/pL0er3FxcWLFy+mgQmGP7cff/yR3pmlKRjEj77QEk0IpNDSqlWrxOMnLXXs2JExJrSUlpZGBel0usGDBw8fPnzUqFFjxowZ3dxGgRRdu3fv3hcvXnDOXS6XcJKooagAEiAAAiAAAmq1RAOg5VO9tRS7YNHSX1wk+0Bta4cPH05KSvpTSf/975YtWwJWSWiJoh+FllavXi2uIi3Fx8cH1FJ+fn59fX1DQ4PL5fJ4PH9tsQvwadGiRVT0okWLPB4PobPZbNCSAI4ECIAACDQloEpLZWVlFy9e/K5x+/HHH2kKuJb6x/5raEmSpLKysr1798q1lJqa2vT2OOctpaWCggKPx6P+rmkiCcbYunXr5L1K0FLAx4SdIAACIEAEmtdSRUXF6tWr+/btSyPfGGPdunXbtWsXtUqp/5kORvxVtSRJEsU9z549k2tp0aJFAce8tZWW0tPTqej09HSHw0E2opkphJmCMcF+EAABEIhYAkotyX9hhBOYAAAgAElEQVQxGxoajhw50qdPH3ojlX5kxd8ZM2b8+OOPKqc2CMH3VbXk9XpFk17ra0kM/fB6vSUlJb/++mtJSUlACGvXriVWa9eupU4vUriccAgsOAQCIAACkUkglJaOHTs2efJkGkgtbCRPJCcnFxcXv2GH0ytpiRY0EmZqQy15PJ4jR47Mnz+/X79+KSkpV69eVXBYs2YNsVqzZo1cS2Jevsj8wuGuQQAEQCA0gcBacrlcDodjwoQJ0dHRQks03Jn+Cjlt3ry5uro6dBmhj6rXEjXf0UtOFDCRlrRarcFgWLRoUcCpFqiqZrP5DYc8UN8SZUJzxWZmZtKsEB07dly1apXirV65lhQR0pu3fIZGiqMgAAIg8L9LQKklupPnz5/fv39fuCdgIi4ujjE2cODAnJycN7n/V9IS/b5zzgNqKeAsqG9DS/QS0g8//NC1a1ea8pVa6uQcFFpCkCSHgzQIgAAIBCMQWEuc81OnTul0OjHMIaCZGGPvvffet99+Gyx3NfvVa0k4ibLdtm0bzWvHGIuLi/v6669pRSVFoW9DS1TEsWPHSEsjR468du0aLZ8hSpdriWIsMR4P0ZKghAQIgAAIKAgE1lJZWdmePXtoRaLQZmpNLVHzHd3AuXPnBg0aJJdlXl5ewIikZbUkhjxwzo8dO/buu+8yxprVkuh2UrTmKR4GPoIACIAACDSvJflPvyKt0WhaX0v0y75p0ybq9DKZTIyx0aNH37lzp5W1dPz4cbmWFLGaPFoSh8isiJbwPx4IgAAIBCMQWEuKRrxgAVMra4n6ky5cuJCZmfnee+9Rp45OpzObzbt37y4rK1MMeKN7btloSW6UEydOyLUkQiIqF1oK9p3DfhAAARAIQSColmpra2NjY+k3PZiWGGPjx4+/dOlSiAKaPRSsb0l+Ib0YVFBQkJWV1aNHD61s0+l0ixYt4pwHe7337Wnp+PHjiYmJjLElS5Y8evRI3r73cvo7aEn+BJEGARAAAZUEgmrJ5XJlZWV1797dYDBotdqAZoqPj//ll18UXf0qCxanBdOSosEwvnFjjLVv354xFhsbS4m0tLSnT586nU5qKJNHM1REy2pJ7p6ff/6Z5nVNT0+vqalRjMiAlsQjRgIEQAAE1BMIqiVaQGjNmjX9+/cnM8lClP8mu3fvLpaTeJOefDVaogUsjEajeImqffv2H3/88fbt22/dukV3S8JoQS1RhmIGcXpvSZRis9l++OEH6tnavXs3jVmXlw4tqf8W4kwQAAEQEARCaUmSpOfPn2/YsIHMpAhfaAZSn89HE5gqYgVRQLMJNVqiovV6fbt27UwmU2xs7Jw5cwoLC30+Hy1jEaKU146WKE+Flmiot9/vt1qtu3fvpsxzc3M552JcA10ILYV4KDgEAiAAAsEIhNISDWyz2WxFRUWbN28ePnz4P//5z/Xr1587d+7u3bsVFRWSJHm9Xhpd1qwegtUgmJY+k22zZs1KSUnZsGFDVlZWfn5+WVmZy+UiJwXLVuxXo6Xq6uqKigqLxTJixAiz2ZyQkEAB0MvlPBRaEo14kiTNmzePMi8uLrbZbLW1taJQ9C3JUSANAiAAAuoJhNISNUl5vV5b41ZUVHTv3r3y8nKXy+V0Ol0ul3iR6G004j1q3EpLSx88eHD//v3S0tLa2lpa7shutws9NHurarR079691NTU5ORkOpkxdvnyZbp9uZbcbjdFSzQN0uTJk+n80tJSt9tNYy5EfeTRkhikhwHigg8SIAACIBCQQPNa8vv9Ih6ihGjIeu2GO3lVgkVLNBycFtwjC3o8HjWtdvLMVa63dOLEiUmTJtF0Soyxvn370jKyimhJaMnn8zU0NNAUD7GxsZWVldQVJy9ariUxy4Ni5Vz5+UiDAAiAAAj890c7BAUKF0QkJE+IeXRCXK7yUDAtCRe+4W+6iJbodgKuTmuxWAoLC7/88kvGmNls3rx5s6i8iJaKi4uFltxud319fVRUlEaj6dChg81mE+eLREAtCYbiNCRAAARAAATkBEJpSX7e2/s99fv9tFDF0qVLRRsaY0yUKE/IqxQwTSfLDw0ePDgpKWn79u20M6CWaOrxu3fvfvHFFz/88MONGzfErK+DBg2KiopijFVUVAgtcc7PnDlDtZ05c6a8OJ/PR/5LSUnRaDRdunTZuXMn7WlBl8tLRBoEQAAE/k4E1Grp7d1zaC1RuU1lE6w+Tc88e/ZsSUmJeLkqoJbcbrfL5XK73Q8ePBBC4pxbLJahQ4cOHDhw+vTptbW1QktlZWVLly6l0eGbNm2iypSWltrtdrfb7fV6X77/u2nTpgEDBnzzzTfV1dVyLQWrOfaDAAiAAAg004jXOoBCa0keKqlPU82pV0wogRoDA2qJcx5wrSbO+YEDBy5evFhdXU1v7Ho8HqfTmZ2dbTAYNBrNkCFDysvL7Xb74cOHhwwZMm/evEOHDtHa7S6Xy263u1wu+Ux9ojKtwxalgAAIgMD/HIFwj5bUq0h+Jj0GGi/n8/m8Xm/oaCnYY5Mk6e7du1arlZxEYZDVal25cqXBYNDr9UuWLKEXaUtKSv7973+PGzfuiy++2Lhx44ULF8SbTGTHYEVgPwiAAAiAgJxARGjJ3bjRbQeLluRQRFoMQ6dxGV6v1+FwVFdXDxw4UK/XG43G7OxseTC0a9eu7t27M8bef//9PXv2iMEaQpkiZyRAAARAAAQCEogILdEoc7r/V9KSaHMTwwWfPXs2Z86c6Ohog8GQnp6uaPqzWq07duzo0aOH0WjU6/Xjxo0rKCiQcxcZynciDQIgAAIgIAi0vZZoNQqPx6NmJJ4IO0In6PZEI95ra0lgoko+efJk586dNAAvOTn51q1bNLW5OM3pdNJ0Te+++67ZbDaZTBMnTszOzq6qqqJzoCXBCgkQAAEQCEggLLTk9/vdbneYa8nv9+/fv79jx45arbZXr17Hjx8XczcoyL548WL//v29e/emt6AYY1lZWWQm0SqouAQfQQAEQAAEiEBYaIlzXl9fv3bt2ri4OJ1OR4u1h46HQh+le2vZaOngwYNkGqPRmJOTU1NTE/o7tG3bNo1GEx0dTdHVypUry8vLES2FhoajIAACIBAuWrJYLMePH58/f/6sWbPmz5+/YsWK0OIJfZSea4toyWq1lpeXp6WldejQwWAw9OzZ8/vvv2/WSZzz2tra1NRUxpjRaGSMdevWbd++ffjCgQAIgAAIhCYQLlryeDx2u91qtdbV1dE4gtDiCX2U7rlFtNTQ0LB06VKdThcdHT1s2LDCwsLQQOVHq6uru3TpYjabNRqNwWBYtWqV/CjSIAACIAACTQmEi5bkrVtimu3Q7glxlO7zzbV05cqVPn36MMYSEhL2799P78k2hRhsj8/n+/7773v16mUwGEwm0+rVqxVrMgW7EPtBAARAIGIJhIuW5A8ghG9UHqLcAmqJ5hZKS0ujqYOmTZsmL1pcmJOTs23btkWLFs2cOXP69OnZ2dnl5eVNz2x2T1VV1aeffkrdS2vWrMGQh2aJ4QQQAIEIJxARWvJ6vRSm2O12Css+++wzUsXL1QXFAoaSJLlcrurq6oMHDyYlJY0aNerTTz89ffp0SUlJZWXlawQ6kiRZLJYDBw60a9cuISHhu+++k0+4F+HfPNw+CIAACAQkEI5aooqqDIwCniZyoPZAb+PGOScrvFxUd926dYyxDz744PTp0z6fj2au83g8paWlixcvnjBhwtdff/1K3UgB4dL8QzU1NTdv3rx69apincBgl2A/CIAACEQygYjQEq0oKB6zJEn5+fk7duw4deoUrStIM+Z5vd6CgoLff/89JyfnwYMHYho9ceErJex2uzgfQZJAgQQIgAAIhCYQvloKXW81R0UgJZrpgl1FXT7yYRfBzsR+EAABEACBt0rg76wlsewe+emtckTmIAACIAACLUIAWmoRjMgEBEAABECgZQj8zbXUMpCQCwiAAAiAQGsRgJZaizTKAQEQAAEQUEEAWlIBCaeAAAiAAAi0FgFoqbVIoxwQAAEQAAEVBKAlFZBwCgiAAAiAQGsRgJZaizTKAQEQAAEQUEEAWlIBCaeAAAiAAAi0FgFoqbVIoxwQAAEQAAEVBKAlFZBwCgiAAAiAQGsRgJZaizTKAQEQAAEQUEEAWlIBCaeAAAiAAAi0FgFoqbVIoxwQAAEQAAEVBKAlFZBwCgiAAAiAQGsRgJZaizTKAQEQAAEQUEEAWlIBCaeAAAiAAAi0FgFoqbVIoxwQAAEQAAEVBKAlFZBwCgiAAAiAQGsRgJZaizTKAQEQAAEQUEEAWlIBCaeAAAiAAAi0FgFoqbVIoxwQAAEQAAEVBKAlFZBwCgiAAAiAQGsRgJZaizTKAQEQAAEQUEEAWlIBCaeAAAiAAAi0FgFo6ZVJ+/1+zjn9feWLcQEIgAAIgEBIAtBSSDxNDvr9fkmSOOf0t8lx7AABEAABEHgjAhGtpVWrVv38889VVVWvqhmfz0fR0okTJ2bOnLljx447d+5wzh0Oh9fr9Tdub/RYcDEIgAAIRCqBiNZScnJy3759x40bt3z58vPnz79Gu9y+fftMJlP37t3HjRu3du3aZ8+e0RfJZrNF6jcK9w0CIAACb0QgcrXk8/n69u3LGNPr9bGxsTt27HjVdjmfz7dv3z7259a+ffsLFy5Q7OV0Ot/oseBiEAABEIhUAhGtpQEDBjDGtFrt7Nmzr1696vP5VH4NqBFPkqQTJ06MGDFCq9V269YtNzdX5eU4DQRAAARAIBiByNWS3+9PTU2lUOfo0aN+v1+9ljjnPp/P5XJdv349KSmJMTZ27NhgiDnndrudc26z2aqrqznnbrcb4VQIXDgEAiAQyQQiV0ucc6GlBw8ekGnUfxW8Xq/T6bx+/frkyZONRuNHH33kCb5xzi0Wy6VLl/bs2eNyudSXgjNBAARAINIItLGWxKA1MfD6VR8A5RBwtEKIQ1SK0NL9+/e9Xq/H41HfvSS0NGbMmLi4uH/84x/1wTer1bpu3bqEhASz2bx79+4XL1686m3ifBAAARCIEAJtryUC/aptaOLxhHAPqY5ME9BbqampGo2GMVZQUOBs3MTIb5F/sITQ0qBBg6glcFHwbcSIEQaDgU5r165dZmZmbW1tsJyxHwRAAAQimUBbaomMQtqQJIne+FH/MISQmiYoE7Ff5El76KPT6Vy2bJler2eM3bhxw+Vyud1ur9dL9amrqxNXNU34/X6hpTFjxpBvOnfurFex6XS6L7/88vnz502zxR4QAAEQAIG21BJN4SNJktVq9Xg8vuY2qXETcQ85hnZKkiQkpDhB/owlSRKFcM6/+uqr6OhoipboKrIj5/zSpUv19fUulytgs55cS+PGjWOMjR49urS0NHjv0n+PuFwuh8Nht9sdDofb7abITNRWXk+kQQAEQCBiCbSxlog7aen+/fs/q9iKi4tpPJvcQ4o0ZUs7OecXL17897//ffjw4bq6OkmS3H9uK1asIC0VFhaKSx4+fHjo0KGkpKRp06YdOXLE4/HQ2DmRG9lUREvJycmMsaSkJM650NKfJbhdss3n87ndbkmSPB6P1+v1+Xxk04j98uHGQQAEQKApgbDQEv2g//TTT2YV2xdffLF3716SU7AgSXGfX331ldls7tSp04oVK65fv15SUlJcXFxYWDht2jStVqvRaPbu3VtYWHj79u2bN29mZmb26dPHaDRGRUV98MEHV65c4Zw7nU7qqRLBjdDS4MGDO3ToMGbMGJfL5ZVtFB4JUXk8HoqxKB8RtIkMFXXGRxAAARCITALhoiWv10vj4vR6vclkMhqNBoNBr9frGjetVkv9N+KvRqN57733tmzZIub7kQdMime5efNmcaHZbDYYDD169OjWrRvt1Gg0JpPp/fff79OnD71gyxh755136OjJkyfr6+vJIvIGPXpv6caNG2PGjElISBg/fnxlZaXMSl6KsUhpYvQ5xV7U8Eh5QkuKh4WPIAACEU7g9bXUsr+nHo8nNTVVDFdjjBkMhqjGLTo6Oioqymg0CrVERUWZTCaDwdCzZ8/MzMyioiJqWBNmUjxUoaX4+PjVq1dnZ2fn5OTs378/OTk5KiqKMbZgwYJdu3YdOnTo1KlTCxcubNeuHZU1f/78yspKn89XUVFB7W/0yq3f7/d4PA6H49q1a6NHj9br9ePHjxeNeNRAR012L168uHbt2m+//UZVopeWoCXFA8JHEAABEBAEmtGScI/4xW+aEHm9ScLtdqemppIkGGPx8fHjZNtHH300fPjwzp07U1eQTqfT6/Ukqg4dOsyfP99ut1PFAtZBaOnLL7+kxjS3280537p1q9lsZozRuDhSTm1t7YwZM6Kiojp16kQ6efLkyfLly0+fPn3//n23202tcG632263X716dciQITExMWPHjn3y5Im8yY4stXfv3pkzZ44dO/bq1asifoKWAj4m7AQBEACBl4PRQmlJOEmseif6V+RyahGOpCWKluLj45OSkkQRinEBv/7664cffigiJ0qcOXNGjZbmzZsnH4aelpYmRuLZ7XbSUlFR0aRJk2JiYhITEy9fvtzQ0HD27NnOnTvHxMSMHj16+fLlu3bt2r17d1bjNmvWLKqARqOZO3duhmzbvXv3hg0bOnfurNPpoqOjO3fuvHPnTmIl716SQ24RksgEBEAABP6nCYTSEtmIBoyJcdiUEM5oqV9V0pK2caPx1qIIhZZsNltpaemsWbPIYVqt1mg0/utf/6qpqQn2JES01FRLJpOJBojLtZScnGwwGBITEy9cuCBJ0vXr17t16xYbG2symZYtW7btr9ucOXPGjh07a9asnX/dfv7553379ul0OvLW4MGD8/LyqIbQUrAnhf0gAAIg0IyWBCDRmS/v9hdRlDjttROkJcYY/Y6PHj06mJaoiJMnT4rhCYyxHj16nDt3zmq1BqxACC1Rs2FBQYFcS+PGjdPpdImJiTdu3OCcP3z4kKZp6Nq167Fjx279dautrS0oKLh27VrFX7eHDx8WFBQkJCQwxjQazerVqx89ekTVg5YCPibsBAEQAIFmGvEEIEmSHA6H1Wq12Wxe73/HmLX4JrRE0y40q6XS0tLPP/9cNOVptdo9e/aI8QiK6r2qlsaOHavVahMTE69du8Y5f/78+dSpU7Va7ZgxY+iVKUX+IqykwXX0l1a8HTp0qEaj0el0169fFxaHlpoCxB4QAAEQIAJBoyVqnbPZbJcuXdq3b19KSsonn3wybdq0efPmpaam7tu378mTJ6+61jj9LoswSP4MXC7XwoULaVE+xtioUaPEaYpGPM651+t98uRJRkZGTEyMGMkt1vGjC+WZv6qWxowZo9FoEhMTz549yzmvrKycMmWKRqNJTk6uqamxWq0NDQ02m83pdNLQCXlZ8rQkSWQ4nU53//59MUwcWpJTQhoEQAAE5ASCaomW/b5y5crw4cPffffdmJgYEZpQYuvWrZWVlZRXsz1MwjHyhLwer6Qlv9/vdDqPHj0qNKbX67du3UrVeBtamjx5skaj+eijj+RasjVudru9qKjI4XDImzepDj6fb/jw4RqNRqvV3rp1i8bmCWKil07OAWkQAAEQiHACQbXEOS8uLl6xYoUIRxRaSkxMnD17ts1mc7lcrawlznlVVdXXX39Nk0JQxfbv3y+epaI+bxgtPX/+fNKkSRqNZuLEiU21tHHjxtjY2BkzZty8eZMmg7A3btSUp9CSiK4oYGoaCIpbQAIEQAAEIpNAKC0tXLiwS5cuNFZN4STxMTc3t7a2VqGBpihFkCQf0ScPa5xO54IFC2h0gEajCTFAnDK/efPmyJEjO3XqRJNB9OvXj4YniN99eR1aVktkYqfT2dDQ8LK/bcWKFURjyJAhV69eFVNC+Hw+r9c7fPhwuimKlsQagNCS/AEhDQIgAAKCQGAtSZL09OlTeqen6cQ/9Cus0WhiYmImTJhAHTAix4AJ9VpijGm12hBaovl7Lly4EB8fT3WLj4+fPXv248eP5a1k8mq0rJYaGho8Ho/b7SYtbdmyhYD07Nlzy5YtpaWlVDRNyUpaYoyRlsRa6dCS/AEhDQIgAAKCQGAtcc6PHj0aExND4+JEbCRP0AJ6vXr1ys7OFtkFS6jUEvVg6XS6KVOm0JB0RYY0DvD8+fOTJk1ijNFED4mJibdv36ZDAQcKtqyWaEYJn89nt9utVqvIPCUlpaGhgSpM61Z4PB5oSfEE8REEQAAEQhMIrCW73b537165hIKlW1ZLsbGxFC2NGjXqrmwrbpzwOz8//9dff920adOECRNIioyxYcOGHTlyRIzblo87EHcuzNH0ddqA7y0pRuIp+pYcDgcNKbTb7RaLZfPmzVSZlJQUUSItHwUtCSBIgAAIgIBKAq+vpbcRLRkMBnrLp2vXrrMat88++2zGjBnTpk2bMGHC8OHD+/XrFxMTQ213BoOhd+/eR44c4ZyTKoLd89vQEuectLRlyxaqj1xLtJwgtBTsiWA/CIAACAQjEFhL8kY8EZcoAiaajqFloyWafEir1bZr146mD4+KioqOjjaZTE27uHQ63caNGx0OR3V1dX19fcDmO7rtltWS6B9yOBwWiyUzM5NQpKSkiGXXabwDtBTsa4f9IAACIBCMQGAt1dXV3b9/v3v37rR+REAziVmCLl++HCx3sV9l35JGo3n5BpLBYDDKNtOfGy2/JOyo0+nGjx8/ffr0PXv2lJeXBxyDRxV4q1raunWrVqs1mUz79+8nLdHQcK/XCy2JLwASIAACIKCSQGAtUdf9mjVr3nnnnejo6IADH3Q6ndFoXLFiRbCZ6OQ1UKklrVZLyyxFR0frdDrNXzchJJHQ6XRxcXHdunUbP348TRQkL1Sk36qWKPO4uLjDhw9DS4I5EiAAAiDwegSUWiJ/UDtVSUnJlClTunTpQmZSxEx6vX7p0qVPnz4Vw89C1EClljQajdFo1Ov1w4cPD5bbpUuXdu3aNWzYMCEnSsybN08MfBCzz1Emr6elrl270tj3qqqqiRMnitdpRT8WNeLRe0uJiYnnzp2DloI9NewHARAAAZUEAmvJ4/FYLBaXy3Xp0qVZs2aRmUgYhj+3lStX0rs4akpSqSXGWFRUlFarnTx5Mg0Qb/qX1t8rLCxctGiRmBLp5VSt8fHx2dnZDoeDVlSSv+H7elrq1q0baammpkahJcqctERrvffs2TM/Px9aUvNlwDkgAAIgEIKAUks0CwNNxU2X1dfXZ2dnv//+++3bt6fWvAkTJuTl5T158oTmzQuRuzikXkv0KlJSUpI7yCZfAfZf//rXO++8YzAYOnXqxBjr1avXs2fPfD4fFSdKV6Ol8vJy8aLuuHHjOnbs+N5779G039XV1XItNTQ0iMka7ty5M3jwYMbYiBEj6B1bsWI6+pYEfyRAAARAQD0BpZaEP+RZ0HoWAV8Jkp8WIi2ybXbyIVrcLykpSa6fYOknT57MmTOHGvH0en27du0uXbpEE9O9UrSUm5u7f//+l/PaTZw4kQyn1+uHDBlC034/ffqU3pSiOfFIS5T/77//3rNnT8bYxIkTfT4fRUtkJorz8DptiG8FDoEACIBAUwJKLTU9Q+xxuVzybhWxX01CvZYoIFOpJc754sWLGWM0oFyv1//8889N69NstHT06NHbt28fPXp07ty55EXG2Oeff2632znnhYWF48ePF31Ldrvd6XTSAlS5ubl0/j//+U+hJXqXVkzVStZUTD4k1vhoWlvsAQEQAIFIJtCMlqglyul02u12t9tNZpIHIirZqdcSjTtXr6Vdu3bR735UVJRer//uu++qqqoUtWpWSyUlJbR21MmTJ4cOHUrdZ1lZWZTP5cuXx44dK7TkcDhopSWbzUala7Xa1NRUr9dL0ZLQkt/vV0RL1E5I2RITRVXxEQRAAAQinEAzWpLTecP1gYSZFAkqQswg/qpaWr9+fefOnePi4khL3377rVgFSlQ+LS0tNjb2/fffP3PmzMOHD8UbTmlpaTT5UH5+vuhOy8zMHDBgwM6dO2lEA+f8l19+iYmJMRqNo0aNevbsGb236/f7PR5PTk4OYywuLi49PZ3mwbPZbB6Ph1hxzjt16hQVFaXT6X777TdRHyRAAARAAASCEXgFLQXLQuV+hY3ER7r8tbWUnp5OoySioqKMRuORI0dqamoUVTp16tT69esPHDggD1Y45wG19PTp07y8vEePHtEyuJzz3NzcuLi4/v37b9u2TZ6z3+8XPVvbtm1zu92XL18uKSkR3uKcz549e+rUqRs3bqytrZVfizQIgAAIgEBAAmGnJZpkKCkpqenQcDHITYyAsNlsK1euNJvN0dHRNDdEcXGx1Wol59ENezweanYT9+/3+2konUJL4iq/3+/z+WiIR11d3YEDB5KTk3fv3i1/L4pzfu7cufj4eJPJ1L9//ytXrrxcMzctLW3x4sXHjh2j1k6bzXb27NmCggIxck/UAQkQAAEQAIGABMJXSzRkQPGXGseElk6fPk3js6l7yWQy1dTUkFHEuMGqqipqVWt6/wot0Vqxfr/f6/W6XC4Keqhxj14Z9vv95eXlwjGpqak0b2xmZmZ9ff3L8MvpdH755ZcxMTETJ07Mz8+n6Vyblos9IAACIAACwQi0npaC1YD2i0Y8mkti8uTJopWvaeLlALwXL17s27dv8ODBtFYhvYebkZFBzXQi7qHMSS2KnU0b8UhLNMuqy+USV8mXNm9oaKDheffu3WvXrh11LN25c4ciMIvFkp+fP3XqVKPROHDgwPT0dHQphX7uOAoCIAACCgJhqqUQkw9xzp89e5aent6lSxcKksxms8lkmjJlym+//UYhjmJ0htwr8vsPGC3RmhQ0po5zLsI1MXE457ysrCwlJYVGZ6xatYriJ3HCH3/8MW/ePMaYTqcbMGDATz/9JO9tklcAaRAAARAAAQWBNtaSGGvudhVHuTgAAAYnSURBVLsXLFhAmtFoNO3bt58YZEtISKDTOnbsaDAYtFqt2Wzu1q3bnj17aNF0+fhsutumcRLtb1ZL1MlEZrJarWK03ldffaXVauPi4qZOnVpRUUG5iWZDznlRUdH8+fOpnoyxuXPn3r59O5gdFY8EH0EABEAgkgmEi5a8Xu+CBQto1nDxa95swmQydejQYfbs2Xv37n3w4AFpibqFaAqi0I82hJbIbZIkUZsejbbw+/01NTU5OTk0E0S/fv3Onj1bX18v3jLmnLtcLkvjdvv2bbmZxo8fn5eXR2FT6FrhKAiAAAhEMoG21BIFMRQwSZK0cOHCgCtoNJUTtZ7p9fpOnTotXrz47t27Ho+HJujzeDzULSSG0oV4umq0RCGO3+8nRZ0/f16v12s0msTERJrItWn+brebKlNcXDxo0CDGWHR0tEajGT9+/H/+8x/R+9X0wrDaI386YVUxVAYEQODvTaCNtSRv19q/fz+9GBsXF9dURWJPXFzczJkzc3NzL168WF9f73a7qSdJLAhLM4jLcw72CENoSbjN5XJZrVaaAXbdunUdO3ZkjI0dO/bkyZPBsuWc0xu7Tqfz9OnTNG0EyWn8+PG0PJVovQyRCQ6BAAiAQAQSCBct+f3+ioqKs2fPHjt27GjjlhdkO3PmzK1bt+rq6mw2m91uF/09kiSJljeV/9JPS0uj+EzM8kDdSF6v1+Fw+Hw+i8VCox4ePHiwfPny//u//9Pr9TNmzJDHSSLaE+MsqHR6G/fx48fffPONGC6o0WgeP35MZ0bgtw23DAIgAALNEmhjLYlfcL/fT+8G0cCBgO/S0utKbrfb4/FQZ48IiSgfNQ13gogkSWlpadQeKLTk9XppJB41BpLnzpw5I4ZjzJgxg1z1cgaHR48eiZ4nUWFFGGS1Wv/444+RI0fSC7/R0dH37t0To89FZZAAARAAARAgAm2pJfks2kIwr/1g5APh1GTidrtpTQrG2Pfff0/DFmhqWnH5vXv3MjIyaN68JUuWnDx5UrFCvLCRSCi0RGP5CgoKRLdZZWUltCQIIwECIAACCgLhoiURNinqp/6jwgfNXmiz2Xr37k1dVhkZGWVlZRQnOZ1Ol8t18eLF7du3L1u2bOXKlampqRs2bKBpjeTZyoePi9ebqIGOLCs6vV4KeOPGjb179x40aJDFYlEzSlBeENIgAAIgEDkE2lhLFDDJw6ZWQ19dXd29e3eNRmMwGH766aeKigoxevvx48dr166dNGnSnDlzdu/eXVlZKUmS2+12/rnRwDxhoBAJ0hXn/Pnz5zk5OQcPHnS73a9q0FZjgoJAAARAoM0JRK6WOOcpKSmHDh26e/fu8+fPxXzhpaWlJ0+ePHDgwB9//CGWVhIdTtS/FcJDAQ9Rtxk9bDFGo82fPSoAAiAAAmFIoO211IZQHj9+TMIgVdBfu91eU1NTW1sr/EERj8I31Oqo8q/8HhEqyWkgDQIgAAIKAhGtJQWLpsKQ93ipNFDA0xQF4SMIgAAIgEAwAhGtJcXwP6EluY0EuIA7xdGmCbmfmh7FHhAAARAAgYAEIlpLAYlgJwiAAAiAQBsSgJbaED6KBgEQAAEQUBKAlpRE8BkEQAAEQKANCUBLbQgfRYMACIAACCgJQEtKIvgMAiAAAiDQhgSgpTaEj6JBAARAAASUBKAlJRF8BgEQAAEQaEMC0FIbwkfRIAACIAACSgLQkpIIPoMACIAACLQhAWipDeGjaBAAARAAASUBaElJBJ9BAARAAATakAC01IbwUTQIgAAIgICSALSkJILPIAACIAACbUgAWmpD+CgaBEAABEBASQBaUhLBZxAAARAAgTYkAC21IXwUDQIgAAIgoCQALSmJ4DMIgAAIgEAbEoCW2hA+igYBEAABEFASgJaURPAZBEAABECgDQlAS20IH0WDAAiAAAgoCUBLSiL4DAIgAAIg0IYEoKU2hI+iQQAEQAAElASgJSURfAYBEAABEGhDAtBSG8JH0SAAAiAAAkoC0JKSCD6DAAiAAAi0IQFoqQ3ho2gQAAEQAAElAWhJSQSfQQAEQAAE2pAAtNSG8FE0CIAACICAkgC0pCSCzyAAAiAAAm1I4P8BPeQtZPIwimoAAAAASUVORK5CYII=;" parent="1" vertex="1">
                    <mxGeometry x="-632" y="1140" width="282" height="392.89" as="geometry"/>
                </mxCell>
                <mxCell id="ySScw8KteJKSBOL0Q-q0-32" value="" style="edgeStyle=orthogonalEdgeStyle;rounded=0;orthogonalLoop=1;jettySize=auto;html=1;" parent="1" source="ySScw8KteJKSBOL0Q-q0-27" target="ySScw8KteJKSBOL0Q-q0-30" edge="1">
                    <mxGeometry relative="1" as="geometry"/>
                </mxCell>
                <mxCell id="ySScw8KteJKSBOL0Q-q0-27" value="avcodec_alloc_context3(nullptr)" style="rounded=0;whiteSpace=wrap;html=1;" parent="1" vertex="1">
                    <mxGeometry x="480" y="170" width="230" height="60" as="geometry"/>
                </mxCell>
                <mxCell id="ySScw8KteJKSBOL0Q-q0-28" value="解码数据" style="text;html=1;align=center;verticalAlign=middle;resizable=0;points=[];autosize=1;strokeColor=none;fillColor=none;" parent="1" vertex="1">
                    <mxGeometry x="525" y="118" width="70" height="30" as="geometry"/>
                </mxCell>
                <mxCell id="ySScw8KteJKSBOL0Q-q0-35" value="" style="edgeStyle=orthogonalEdgeStyle;rounded=0;orthogonalLoop=1;jettySize=auto;html=1;" parent="1" source="ySScw8KteJKSBOL0Q-q0-30" target="ySScw8KteJKSBOL0Q-q0-34" edge="1">
                    <mxGeometry relative="1" as="geometry"/>
                </mxCell>
                <mxCell id="ySScw8KteJKSBOL0Q-q0-30" value="avcodec_parameters_to_context" style="rounded=0;whiteSpace=wrap;html=1;" parent="1" vertex="1">
                    <mxGeometry x="480" y="300" width="230" height="60" as="geometry"/>
                </mxCell>
                <mxCell id="ySScw8KteJKSBOL0Q-q0-33" value="AVCodecContext* codecContext" style="rounded=0;whiteSpace=wrap;html=1;" parent="1" vertex="1">
                    <mxGeometry x="810" y="170" width="230" height="60" as="geometry"/>
                </mxCell>
                <mxCell id="ySScw8KteJKSBOL0Q-q0-37" value="" style="edgeStyle=orthogonalEdgeStyle;rounded=0;orthogonalLoop=1;jettySize=auto;html=1;" parent="1" source="ySScw8KteJKSBOL0Q-q0-34" target="ySScw8KteJKSBOL0Q-q0-36" edge="1">
                    <mxGeometry relative="1" as="geometry"/>
                </mxCell>
                <mxCell id="ySScw8KteJKSBOL0Q-q0-34" value="avcodec_find_decoder" style="rounded=0;whiteSpace=wrap;html=1;" parent="1" vertex="1">
                    <mxGeometry x="480" y="430" width="230" height="60" as="geometry"/>
                </mxCell>
                <mxCell id="ySScw8KteJKSBOL0Q-q0-40" style="edgeStyle=orthogonalEdgeStyle;rounded=0;orthogonalLoop=1;jettySize=auto;html=1;entryX=0;entryY=0.5;entryDx=0;entryDy=0;exitX=0.5;exitY=1;exitDx=0;exitDy=0;" parent="1" source="ySScw8KteJKSBOL0Q-q0-36" target="ySScw8KteJKSBOL0Q-q0-39" edge="1">
                    <mxGeometry relative="1" as="geometry">
                        <mxPoint x="595" y="730" as="targetPoint"/>
                    </mxGeometry>
                </mxCell>
                <mxCell id="ySScw8KteJKSBOL0Q-q0-36" value="avcodec_open2" style="rounded=0;whiteSpace=wrap;html=1;" parent="1" vertex="1">
                    <mxGeometry x="480" y="560" width="230" height="60" as="geometry"/>
                </mxCell>
                <mxCell id="ySScw8KteJKSBOL0Q-q0-38" value="AVCodec*codec" style="rounded=0;whiteSpace=wrap;html=1;" parent="1" vertex="1">
                    <mxGeometry x="800" y="430" width="230" height="60" as="geometry"/>
                </mxCell>
                <mxCell id="ySScw8KteJKSBOL0Q-q0-42" style="edgeStyle=orthogonalEdgeStyle;rounded=0;orthogonalLoop=1;jettySize=auto;html=1;" parent="1" source="ySScw8KteJKSBOL0Q-q0-39" target="ySScw8KteJKSBOL0Q-q0-41" edge="1">
                    <mxGeometry relative="1" as="geometry"/>
                </mxCell>
                <mxCell id="ySScw8KteJKSBOL0Q-q0-53" style="edgeStyle=orthogonalEdgeStyle;rounded=0;orthogonalLoop=1;jettySize=auto;html=1;entryX=0.5;entryY=1;entryDx=0;entryDy=0;exitX=1;exitY=0.5;exitDx=0;exitDy=0;" parent="1" source="ySScw8KteJKSBOL0Q-q0-39" target="ySScw8KteJKSBOL0Q-q0-48" edge="1">
                    <mxGeometry relative="1" as="geometry">
                        <mxPoint x="1490" y="700" as="sourcePoint"/>
                        <mxPoint x="1130" y="1329.92" as="targetPoint"/>
                        <Array as="points">
                            <mxPoint x="1410" y="720"/>
                            <mxPoint x="1410" y="1280"/>
                            <mxPoint x="1205" y="1280"/>
                        </Array>
                    </mxGeometry>
                </mxCell>
                <mxCell id="ySScw8KteJKSBOL0Q-q0-54" value="否" style="edgeLabel;html=1;align=center;verticalAlign=middle;resizable=0;points=[];" parent="ySScw8KteJKSBOL0Q-q0-53" vertex="1" connectable="0">
                    <mxGeometry x="0.1223" y="5" relative="1" as="geometry">
                        <mxPoint y="-1" as="offset"/>
                    </mxGeometry>
                </mxCell>
                <mxCell id="ySScw8KteJKSBOL0Q-q0-39" value="av_read_frame" style="rounded=0;whiteSpace=wrap;html=1;" parent="1" vertex="1">
                    <mxGeometry x="730" y="690" width="230" height="60" as="geometry"/>
                </mxCell>
                <mxCell id="ySScw8KteJKSBOL0Q-q0-45" style="edgeStyle=orthogonalEdgeStyle;rounded=0;orthogonalLoop=1;jettySize=auto;html=1;" parent="1" source="ySScw8KteJKSBOL0Q-q0-41" target="ySScw8KteJKSBOL0Q-q0-43" edge="1">
                    <mxGeometry relative="1" as="geometry"/>
                </mxCell>
                <mxCell id="ySScw8KteJKSBOL0Q-q0-47" value="是" style="edgeLabel;html=1;align=center;verticalAlign=middle;resizable=0;points=[];" parent="ySScw8KteJKSBOL0Q-q0-45" vertex="1" connectable="0">
                    <mxGeometry x="-0.1702" y="3" relative="1" as="geometry">
                        <mxPoint as="offset"/>
                    </mxGeometry>
                </mxCell>
                <mxCell id="ySScw8KteJKSBOL0Q-q0-56" style="edgeStyle=orthogonalEdgeStyle;rounded=0;orthogonalLoop=1;jettySize=auto;html=1;" parent="1" source="ySScw8KteJKSBOL0Q-q0-41" target="ySScw8KteJKSBOL0Q-q0-55" edge="1">
                    <mxGeometry relative="1" as="geometry"/>
                </mxCell>
                <mxCell id="ySScw8KteJKSBOL0Q-q0-41" value="是否" style="rhombus;whiteSpace=wrap;html=1;" parent="1" vertex="1">
                    <mxGeometry x="805" y="880" width="80" height="80" as="geometry"/>
                </mxCell>
                <mxCell id="ySScw8KteJKSBOL0Q-q0-46" value="" style="edgeStyle=orthogonalEdgeStyle;rounded=0;orthogonalLoop=1;jettySize=auto;html=1;" parent="1" source="ySScw8KteJKSBOL0Q-q0-43" target="ySScw8KteJKSBOL0Q-q0-44" edge="1">
                    <mxGeometry relative="1" as="geometry"/>
                </mxCell>
                <mxCell id="ySScw8KteJKSBOL0Q-q0-43" value="avcodec_send_packet" style="rounded=0;whiteSpace=wrap;html=1;" parent="1" vertex="1">
                    <mxGeometry x="1090" y="890" width="230" height="60" as="geometry"/>
                </mxCell>
                <mxCell id="ySScw8KteJKSBOL0Q-q0-50" value="" style="edgeStyle=orthogonalEdgeStyle;rounded=0;orthogonalLoop=1;jettySize=auto;html=1;" parent="1" source="ySScw8KteJKSBOL0Q-q0-44" target="ySScw8KteJKSBOL0Q-q0-48" edge="1">
                    <mxGeometry relative="1" as="geometry"/>
                </mxCell>
                <mxCell id="ySScw8KteJKSBOL0Q-q0-51" style="edgeStyle=orthogonalEdgeStyle;rounded=0;orthogonalLoop=1;jettySize=auto;html=1;entryX=1;entryY=0.5;entryDx=0;entryDy=0;exitX=1;exitY=0.5;exitDx=0;exitDy=0;" parent="1" source="ySScw8KteJKSBOL0Q-q0-44" target="ySScw8KteJKSBOL0Q-q0-48" edge="1">
                    <mxGeometry relative="1" as="geometry">
                        <mxPoint x="1330" y="1060" as="sourcePoint"/>
                        <mxPoint x="1372.5" y="1190" as="targetPoint"/>
                    </mxGeometry>
                </mxCell>
                <mxCell id="ySScw8KteJKSBOL0Q-q0-52" value="是" style="edgeLabel;html=1;align=center;verticalAlign=middle;resizable=0;points=[];" parent="ySScw8KteJKSBOL0Q-q0-51" vertex="1" connectable="0">
                    <mxGeometry x="-0.0312" y="-3" relative="1" as="geometry">
                        <mxPoint y="-1" as="offset"/>
                    </mxGeometry>
                </mxCell>
                <mxCell id="ySScw8KteJKSBOL0Q-q0-44" value="avcodec_receive_frame" style="rounded=0;whiteSpace=wrap;html=1;" parent="1" vertex="1">
                    <mxGeometry x="1090" y="1030" width="230" height="60" as="geometry"/>
                </mxCell>
                <mxCell id="ySScw8KteJKSBOL0Q-q0-48" value="是否取到了帧" style="rhombus;whiteSpace=wrap;html=1;" parent="1" vertex="1">
                    <mxGeometry x="1162.5" y="1180" width="85" height="80" as="geometry"/>
                </mxCell>
                <mxCell id="ySScw8KteJKSBOL0Q-q0-58" style="edgeStyle=orthogonalEdgeStyle;rounded=0;orthogonalLoop=1;jettySize=auto;html=1;" parent="1" source="ySScw8KteJKSBOL0Q-q0-55" target="ySScw8KteJKSBOL0Q-q0-57" edge="1">
                    <mxGeometry relative="1" as="geometry"/>
                </mxCell>
                <mxCell id="ySScw8KteJKSBOL0Q-q0-55" value="avcodec_send_packet(nullptr)" style="rounded=0;whiteSpace=wrap;html=1;" parent="1" vertex="1">
                    <mxGeometry x="730" y="1130" width="230" height="60" as="geometry"/>
                </mxCell>
                <mxCell id="ySScw8KteJKSBOL0Q-q0-60" value="" style="edgeStyle=orthogonalEdgeStyle;rounded=0;orthogonalLoop=1;jettySize=auto;html=1;" parent="1" source="ySScw8KteJKSBOL0Q-q0-57" target="ySScw8KteJKSBOL0Q-q0-59" edge="1">
                    <mxGeometry relative="1" as="geometry"/>
                </mxCell>
                <mxCell id="ySScw8KteJKSBOL0Q-q0-57" value="avcodec_receive_frame" style="rounded=0;whiteSpace=wrap;html=1;" parent="1" vertex="1">
                    <mxGeometry x="730" y="1320" width="230" height="60" as="geometry"/>
                </mxCell>
                <mxCell id="ySScw8KteJKSBOL0Q-q0-61" style="edgeStyle=orthogonalEdgeStyle;rounded=0;orthogonalLoop=1;jettySize=auto;html=1;" parent="1" source="ySScw8KteJKSBOL0Q-q0-59" edge="1">
                    <mxGeometry relative="1" as="geometry">
                        <mxPoint x="960" y="1350" as="targetPoint"/>
                        <Array as="points">
                            <mxPoint x="1020" y="1510"/>
                            <mxPoint x="1020" y="1350"/>
                            <mxPoint x="960" y="1350"/>
                        </Array>
                    </mxGeometry>
                </mxCell>
                <mxCell id="ySScw8KteJKSBOL0Q-q0-62" value="是" style="edgeLabel;html=1;align=center;verticalAlign=middle;resizable=0;points=[];" parent="ySScw8KteJKSBOL0Q-q0-61" vertex="1" connectable="0">
                    <mxGeometry x="0.0724" y="-3" relative="1" as="geometry">
                        <mxPoint y="-1" as="offset"/>
                    </mxGeometry>
                </mxCell>
                <mxCell id="ySScw8KteJKSBOL0Q-q0-59" value="是否取到了帧" style="rhombus;whiteSpace=wrap;html=1;" parent="1" vertex="1">
                    <mxGeometry x="802.5" y="1470" width="85" height="80" as="geometry"/>
                </mxCell>
                <mxCell id="ySScw8KteJKSBOL0Q-q0-64" value="缓存帧" style="text;html=1;align=center;verticalAlign=middle;resizable=0;points=[];autosize=1;strokeColor=none;fillColor=none;" parent="1" vertex="1">
                    <mxGeometry x="730" y="1388" width="60" height="30" as="geometry"/>
                </mxCell>
                <mxCell id="ySScw8KteJKSBOL0Q-q0-65" value="I帧 P帧 B帧" style="text;html=1;align=center;verticalAlign=middle;resizable=0;points=[];autosize=1;strokeColor=none;fillColor=none;" parent="1" vertex="1">
                    <mxGeometry x="1015" y="958" width="90" height="30" as="geometry"/>
                </mxCell>
                <mxCell id="ySScw8KteJKSBOL0Q-q0-68" style="edgeStyle=orthogonalEdgeStyle;rounded=0;orthogonalLoop=1;jettySize=auto;html=1;" parent="1" source="ySScw8KteJKSBOL0Q-q0-66" target="ySScw8KteJKSBOL0Q-q0-67" edge="1">
                    <mxGeometry relative="1" as="geometry"/>
                </mxCell>
                <mxCell id="ySScw8KteJKSBOL0Q-q0-69" style="edgeStyle=orthogonalEdgeStyle;rounded=0;orthogonalLoop=1;jettySize=auto;html=1;entryX=0.5;entryY=1;entryDx=0;entryDy=0;" parent="1" source="ySScw8KteJKSBOL0Q-q0-66" target="ySScw8KteJKSBOL0Q-q0-59" edge="1">
                    <mxGeometry relative="1" as="geometry"/>
                </mxCell>
                <mxCell id="ySScw8KteJKSBOL0Q-q0-70" value="否" style="edgeLabel;html=1;align=center;verticalAlign=middle;resizable=0;points=[];" parent="ySScw8KteJKSBOL0Q-q0-69" vertex="1" connectable="0">
                    <mxGeometry x="-0.5098" y="11" relative="1" as="geometry">
                        <mxPoint as="offset"/>
                    </mxGeometry>
                </mxCell>
                <mxCell id="ySScw8KteJKSBOL0Q-q0-66" value="avcodec_close" style="rounded=0;whiteSpace=wrap;html=1;" parent="1" vertex="1">
                    <mxGeometry x="500" y="1660" width="230" height="60" as="geometry"/>
                </mxCell>
                <mxCell id="ySScw8KteJKSBOL0Q-q0-67" value="avcodec_free_context" style="rounded=0;whiteSpace=wrap;html=1;" parent="1" vertex="1">
                    <mxGeometry x="500" y="1800" width="230" height="60" as="geometry"/>
                </mxCell>
                <mxCell id="ySScw8KteJKSBOL0Q-q0-71" value="找到对应的解码器" style="text;html=1;align=center;verticalAlign=middle;resizable=0;points=[];autosize=1;strokeColor=none;fillColor=none;" parent="1" vertex="1">
                    <mxGeometry x="310" y="430" width="120" height="30" as="geometry"/>
                </mxCell>
            </root>
        </mxGraphModel>
    </diagram>
</mxfile>